<svg width="49" height="39" viewBox="0 0 49 39" fill="none" xmlns="http://www.w3.org/2000/svg">
<g clip-path="url(#clip0_213_3114)">
<g filter="url(#filter0_f_213_3114)">
<path d="M37.3756 37.1894C40.2395 36.4031 45.4733 34.1889 47.3769 32.5001C49.5673 30.7375 45.1712 28.5917 44.6513 28.272C44.1313 27.9522 18.5239 14.4276 14.0511 12.3216C9.57828 10.2156 -4.85185 14.0529 -8.36903 15.891C-11.236 17.3893 -9.26633 18.5505 -8.89715 18.8664C-8.52798 19.1823 12.7694 31.7752 20.4412 35.6484C26.2511 38.5816 31.754 38.7327 37.3756 37.1894Z" fill="black" fill-opacity="0.2"/>
</g>
<path fill-rule="evenodd" clip-rule="evenodd" d="M17.2066 23.1732L20.1094 21.915L20.1098 21.916C20.1275 21.908 20.1454 21.9002 20.1634 21.8927C21.8918 21.1688 24.2857 22.9689 25.5102 25.9133C26.7348 28.8576 26.3263 31.8313 24.5979 32.5552C24.5783 32.5634 24.5586 32.5713 24.5388 32.5789L21.73 33.7981L20.2849 30.4037C19.8915 29.8559 19.539 29.2269 19.2511 28.5346C18.9854 27.8959 18.7966 27.2557 18.6815 26.6375L17.2066 23.1732Z" fill="black"/>
<ellipse cx="3.39453" cy="5.76677" rx="3.39453" ry="5.76677" transform="matrix(-0.921954 0.38611 0.384195 0.923749 20.4414 21.8389)" fill="black"/>
<g filter="url(#filter1_i_213_3114)">
<ellipse cx="2.54602" cy="4.32528" rx="2.54602" ry="4.32528" transform="matrix(-0.921954 0.38611 0.384195 0.923749 20.1172 23.4985)" fill="url(#paint0_linear_213_3114)"/>
</g>
<g filter="url(#filter2_di_213_3114)">
<path fill-rule="evenodd" clip-rule="evenodd" d="M19.5728 25.3965C19.9356 25.6219 20.2908 25.953 20.6085 26.3671L19.8327 27.6395C19.7358 27.5201 19.631 27.4203 19.5234 27.3441L19.5728 25.3965ZM19.4619 29.767C19.6209 29.8354 19.7789 29.8486 19.9195 29.7942L20.9572 31.7084C20.9009 31.7432 20.8418 31.7737 20.78 31.7995C20.3644 31.9736 19.887 31.9137 19.4137 31.6691L19.4619 29.767ZM19.267 31.5873L19.3152 29.6884C19.1908 29.6087 19.0691 29.4971 18.958 29.3598L18.1994 30.6039C18.5268 31.0279 18.8935 31.3639 19.267 31.5873ZM19.3769 27.2558L19.4262 25.3113C18.9392 25.0484 18.446 24.9796 18.0181 25.1588C17.8968 25.2095 17.786 25.2781 17.6859 25.3623L18.7315 27.2909C18.7703 27.2583 18.8132 27.2317 18.8602 27.2121C19.0175 27.1462 19.1977 27.1667 19.3769 27.2558ZM17.4483 29.2961C17.6304 29.7337 17.8539 30.1308 18.1034 30.4755L18.8622 29.2311C18.7779 29.108 18.7021 28.9691 18.6391 28.8176C18.6313 28.7989 18.6238 28.7801 18.6165 28.7613L17.3578 29.0656C17.3862 29.1424 17.4164 29.2193 17.4483 29.2961ZM19.9286 27.768L20.7042 26.496C20.9498 26.8376 21.17 27.2301 21.3497 27.6622C21.3858 27.749 21.4197 27.8359 21.4512 27.9226L20.1726 28.2318C20.1663 28.2157 20.1598 28.1997 20.1531 28.1836C20.0898 28.0313 20.0135 27.8917 19.9286 27.768ZM17.3076 28.9246C17.0983 28.3128 17.0013 27.7096 17.0093 27.1682L18.4692 28.0641C18.4742 28.2389 18.5063 28.4278 18.5669 28.6201L17.3076 28.9246ZM20.2226 28.3729C20.2957 28.6015 20.3283 28.8257 20.3231 29.0271L21.7847 29.924C21.8117 29.3577 21.72 28.7162 21.5007 28.0639L20.2226 28.3729ZM21.773 30.0915L20.3095 29.1934C20.2769 29.4227 20.1883 29.6097 20.0486 29.7202L21.0799 31.6224C21.4749 31.3105 21.7112 30.7615 21.773 30.0915ZM17.0154 26.9973L18.4734 27.892C18.4888 27.7004 18.5404 27.5333 18.626 27.4085L17.5738 25.4677C17.2426 25.8148 17.0521 26.3563 17.0154 26.9973Z" fill="#4C4C4C"/>
</g>
<path fill-rule="evenodd" clip-rule="evenodd" d="M20.2935 30.3563C19.8967 29.8057 19.5411 29.1725 19.2511 28.4752C18.9833 27.8314 18.7936 27.1862 18.6787 26.5634L17.2105 23.1147L20.0668 21.8766C20.0986 21.8614 20.1307 21.8469 20.1634 21.8332C21.8918 21.1093 24.2857 22.9094 25.5102 25.8538C26.7348 28.7981 26.3263 31.7718 24.5979 32.4957C24.5928 32.4979 24.5876 32.5 24.5825 32.5021L24.5829 32.5029L21.7339 33.7396L20.2935 30.3563Z" fill="black"/>
<path d="M16.3392 29.7863C17.5628 32.7283 19.956 34.5265 21.6844 33.8027C23.4128 33.0788 23.822 30.107 22.5984 27.165C21.3748 24.2229 18.9123 22.2663 17.1839 22.9901C15.4554 23.714 15.1156 26.8442 16.3392 29.7863Z" fill="#2D2C2C"/>
<g filter="url(#filter3_i_213_3114)">
<ellipse cx="2.38613" cy="4.17123" rx="2.38613" ry="4.17123" transform="matrix(-0.918177 0.396377 0.370986 0.928609 20.0781 23.6587)" fill="url(#paint1_linear_213_3114)"/>
</g>
<g filter="url(#filter4_di_213_3114)">
<path fill-rule="evenodd" clip-rule="evenodd" d="M17.9145 29.3705C18.5142 30.7166 19.5519 31.5642 20.3818 31.4077L19.7774 29.9253C19.4251 29.905 19.026 29.5652 18.7593 29.0464L17.9145 29.3705ZM17.7493 28.9549C17.2722 27.5943 17.4148 26.2655 18.0735 25.7466L18.6782 27.2297C18.4495 27.5171 18.4093 28.0638 18.5892 28.6328L17.7493 28.9549ZM20.2015 28.0144C19.9242 27.4048 19.4642 27.0081 19.0748 27.0227L18.4747 25.5509C19.3357 25.3438 20.4395 26.2518 21.0419 27.6921L20.2015 28.0144ZM20.3521 28.4356L21.1974 28.1113C21.6351 29.4582 21.466 30.7517 20.7914 31.2326L20.1915 29.7612C20.4348 29.5061 20.4983 28.9895 20.3521 28.4356Z" fill="#A9A8A8"/>
</g>
<path fill-rule="evenodd" clip-rule="evenodd" d="M-4.07212 11.7781L-1.52739 11.1883L-1.52726 11.1889C-1.51256 11.1852 -1.49779 11.1818 -1.48295 11.1785C0.028518 10.8479 1.70573 12.6667 2.26321 15.2408C2.82069 17.815 2.04734 20.1699 0.535876 20.5005C0.520725 20.5038 0.505558 20.5069 0.490375 20.5098L-1.97554 21.0827L-2.64272 18.1218C-2.88334 17.6153 -3.07823 17.0479 -3.21028 16.4382C-3.3322 15.8752 -3.39047 15.3227 -3.39129 14.7996L-4.07212 11.7781Z" fill="black"/>
<ellipse cx="2.80351" cy="4.76183" rx="2.80351" ry="4.76183" transform="matrix(-0.976187 0.213537 0.211819 0.978055 -1.27344 11.1753)" fill="black"/>
<path fill-rule="evenodd" clip-rule="evenodd" d="M-4.08391 11.8488L-1.53919 11.259L-1.53905 11.2596C-1.52305 11.2556 -1.50695 11.2518 -1.49078 11.2483C0.0206859 10.9176 1.6979 12.7364 2.25538 15.3106C2.81286 17.8848 2.03951 20.2396 0.528043 20.5702C0.513358 20.5734 0.498657 20.5765 0.483942 20.5793L-1.98734 21.1535L-2.65853 18.1747C-2.89549 17.6725 -3.08752 17.1109 -3.21811 16.5079C-3.33857 15.9517 -3.3969 15.4057 -3.39906 14.8882L-4.08391 11.8488Z" fill="black"/>
<ellipse cx="2.83466" cy="4.81474" rx="2.83466" ry="4.81474" transform="matrix(-0.976187 0.213537 0.211819 0.978055 -1.25391 11.126)" fill="#2C2C2C"/>
<g filter="url(#filter5_ii_213_3114)">
<path fill-rule="evenodd" clip-rule="evenodd" d="M33.7099 11.3235C33.7376 11.3478 33.7672 11.3699 33.7989 11.3887C33.8951 11.4458 33.9821 11.4867 34.0605 11.5098C35.1185 11.822 43.9174 16.9431 45.813 18.9594C47.6576 20.9215 47.5236 22.063 47.4613 22.5929C47.4524 22.6694 47.4449 22.7332 47.4451 22.7848C47.446 23.0424 47.4309 23.5602 47.4117 24.2191C47.4004 24.6072 47.3877 25.0442 47.376 25.5057L47.3362 27.0736C47.3296 27.1907 47.3271 27.3102 47.3245 27.4323C47.3136 27.9505 47.3018 28.5139 46.9685 29.1232C46.5576 29.8741 44.5965 32.6162 35.3498 35.2658C32.1919 36.1707 28.5769 34.9696 26.2997 33.9513C25.3733 33.5763 24.6739 33.2216 24.3257 33.0372C24.2731 33.0093 24.2325 32.9673 24.2061 32.9169C24.1979 32.9013 24.1845 32.8867 24.169 32.8783C24.1454 32.8653 24.1318 32.8422 24.1304 32.8153C24.084 31.9482 23.8962 30.6903 23.6071 29.4706C23.3379 28.3987 22.992 27.3654 22.6052 26.6637C21.5974 24.8352 19.4114 22.5562 17.6326 23.1203C15.6139 23.7604 15.6946 26.6424 15.7156 27.3306C15.7218 27.533 15.7418 27.6684 15.7616 27.8021C15.784 27.9541 15.8062 28.104 15.8073 28.3478C15.8074 28.366 15.8058 28.3836 15.8027 28.4005C15.8001 28.4147 15.7979 28.4291 15.7977 28.4436C15.7972 28.4767 15.7961 28.5125 15.7945 28.5512C15.7912 28.6264 15.7099 28.6707 15.644 28.6345C15.62 28.6213 15.5918 28.6191 15.5647 28.6228C15.5055 28.631 15.4422 28.6212 15.3832 28.5891L0.0936766 20.2707C0.0125745 20.2265 -0.0442577 20.1474 -0.0541851 20.0556C-0.0910816 19.7144 -0.0800412 19.3187 -0.0677294 18.8774C-0.0337292 17.6588 0.00996964 16.0926 -0.919232 14.3662C-1.76856 12.7883 -3.03731 11.7258 -4.22218 12.065C-5.40705 12.4041 -5.75889 13.6621 -5.84087 14.3656C-5.92138 15.0565 -5.90009 15.693 -5.88775 16.0621C-5.88278 16.2107 -5.87926 16.3159 -5.88441 16.364C-5.90235 16.5315 -7.55793 15.0321 -7.65265 14.4744C-7.94093 12.777 -7.96981 11.1936 -7.75254 9.48361C-7.71699 9.20388 -7.59574 8.49818 -7.50976 8.22155C-7.49669 8.17952 -7.48932 8.13612 -7.49085 8.09213C-7.51136 7.50288 -7.38674 6.64105 -7.2165 6.27891C-7.20126 6.24651 -7.18635 6.21237 -7.17069 6.1765C-6.98787 5.75798 -6.70236 5.10437 -4.60761 4.23058C-1.63319 2.98985 6.44957 0.264897 6.76116 0.204317C7.49738 0.0611806 8.43336 0.154451 9.19109 0.229959C9.6357 0.274264 10.0189 0.312453 10.2644 0.293181C13.8165 0.0143429 17.9118 0.609211 23.2658 3.48821C23.971 3.81021 24.6669 4.17413 25.3396 4.58564C27.0014 5.60211 28.403 6.67058 29.5729 7.65645C31.0096 8.80625 32.1091 9.83708 32.8933 10.5722C32.8933 10.5722 32.8933 10.5722 32.8933 10.5722L32.8933 10.5722C33.2196 10.8781 33.4912 11.1328 33.7099 11.3235Z" fill="url(#paint2_linear_213_3114)"/>
</g>
<g filter="url(#filter6_ddi_213_3114)">
<path d="M19.3914 17.0901C17.4451 16.2259 16.4075 13.5246 13.5026 10.3177C13.4316 10.2393 13.4609 10.1128 13.56 10.0759L25.8719 5.49001C25.8944 5.48164 25.918 5.47883 25.9412 5.48465C26.157 5.53868 27.4089 5.96656 30.8105 9.11451C32.5205 10.6969 32.8604 11.1064 33.7486 11.7384C33.8891 11.8383 33.8588 12.0498 33.3228 12.4693C31.6141 13.8063 22.2694 18.3679 19.3914 17.0901Z" fill="url(#paint3_linear_213_3114)"/>
</g>
<g filter="url(#filter7_di_213_3114)">
<path d="M5.78076 6.3782C3.21598 5.49884 2.55077 5.47734 0.768476 5.33142C-0.457914 5.23101 -2.4125 5.36316 -2.63926 5.91075C-2.86603 6.45833 -0.549329 8.25501 0.414136 8.82057C0.885019 9.09698 17.1516 17.7724 16.6524 16.7832C16.0375 15.5645 13.1537 12.0545 12.1747 10.6263C10.5424 8.24509 8.34555 7.25755 5.78076 6.3782Z" fill="url(#paint4_linear_213_3114)"/>
</g>
<g filter="url(#filter8_di_213_3114)">
<path d="M-0.0409757 4.60136L10.918 0.458496C10.918 0.458496 10.6727 0.538039 9.34219 0.484666C8.87791 0.466042 -2.49688 4.80827 -2.58096 4.87849L-0.0409757 4.60136Z" fill="url(#paint5_linear_213_3114)"/>
</g>
<g filter="url(#filter9_f_213_3114)">
<path d="M24.2204 23.1735C20.1039 21.1312 17.8249 18.6409 15.3717 16.3552C22.7887 18.7609 38.3078 24.0072 38.0547 24.3166C37.7383 24.7033 36.603 25.1427 32.8636 25.2997C29.1821 25.4543 24.6917 23.4073 24.2204 23.1735Z" fill="url(#paint6_linear_213_3114)" fill-opacity="0.21"/>
</g>
<g filter="url(#filter10_f_213_3114)">
<path d="M40.5384 14.3387C40.3067 14.1381 37.4108 10.9802 35.2228 9.3891C36.9723 13.0281 40.9708 20.9427 41.3621 20.9135C41.8512 20.8771 44.094 20.5157 44.79 19.0135C45.4753 17.5346 40.8282 14.5896 40.5384 14.3387Z" fill="url(#paint7_linear_213_3114)" fill-opacity="0.13"/>
</g>
<g filter="url(#filter11_di_213_3114)">
<path d="M9.54404 16.9945C9.54549 16.9374 9.51423 16.8845 9.46355 16.8582L8.06043 16.1312C7.96296 16.0806 7.84648 16.1496 7.84369 16.2595L7.83787 16.489C7.83641 16.5462 7.86778 16.5992 7.91857 16.6254L9.32175 17.3497C9.41921 17.4 9.5355 17.331 9.53828 17.2213L9.54404 16.9945Z" fill="#323232"/>
</g>
<g filter="url(#filter12_di_213_3114)">
<path d="M1.66514 13.2743C1.66659 13.2172 1.63532 13.1642 1.58465 13.138L0.181528 12.4109C0.0840529 12.3604 -0.0324256 12.4294 -0.0352136 12.5392L-0.0410386 12.7688C-0.04249 12.826 -0.0111265 12.879 0.0396613 12.9052L1.44285 13.6295C1.54031 13.6798 1.65659 13.6108 1.65938 13.5011L1.66514 13.2743Z" fill="#323232"/>
</g>
<g filter="url(#filter13_f_213_3114)">
<path d="M14.1945 27.0921L0.862662 20.1403C0.789295 20.102 0.73522 20.0352 0.713472 19.9554C0.381346 18.7362 -0.221586 16.4051 -0.223008 15.9164C-0.224848 15.2839 15.6672 23.3453 15.0678 24.761C14.7582 25.492 14.6883 26.2099 14.7066 26.737C14.7156 26.9953 14.4237 27.2116 14.1945 27.0921Z" fill="url(#paint8_linear_213_3114)" fill-opacity="0.12"/>
</g>
<path d="M27.5471 15.4742L18.2282 8.31572C17.1333 8.58257 14.6307 9.6277 14.1547 9.79288C13.5379 10.0069 13.4331 10.1322 13.4331 10.1322C13.4285 10.3167 13.5206 10.3998 13.8098 10.6955C14.2245 11.1196 14.3997 11.3143 15.4188 12.686C16.8865 14.6614 17.995 16.4929 19.0907 16.9534C19.9624 17.3198 21.3279 17.6555 23.2983 17.0602C25.0597 16.5281 26.1514 15.904 27.5471 15.4742Z" fill="#C4C4C4" fill-opacity="0.2"/>
<g opacity="0.17" filter="url(#filter14_f_213_3114)">
<path d="M44.2422 21.3823C41.6033 23.3638 35.7742 26.1441 33.1933 26.5252" stroke="url(#paint9_linear_213_3114)" stroke-width="4.91107" stroke-linecap="round" stroke-linejoin="round"/>
</g>
<g filter="url(#filter15_ddii_213_3114)">
<path d="M46.1878 22.1784C46.7038 21.5172 46.5792 20.9746 46.5271 20.1264C46.5257 20.1033 46.5209 20.0786 46.5143 20.0565C46.3156 19.3829 47.224 20.7943 47.2983 21.757C47.3228 22.0757 47.2983 22.2362 47.2611 22.5288C47.244 22.6627 46.9471 23.4751 46.9836 23.653C47.0201 23.831 46.8992 25.048 46.9007 25.2324C46.9022 25.4168 46.0981 26.7685 44.0433 28.0396C42.3364 29.0955 39.9074 29.7554 39.6593 29.7847C39.4113 29.814 39.1901 28.9786 39.0119 28.9283C38.5454 28.7965 37.1456 29.2708 36.6245 29.3879C36.0165 29.5245 34.598 29.839 33.0624 29.602C31.163 29.3088 30.8769 29.0847 29.1493 28.0862C28.0545 27.4533 27.2813 26.2837 26.9654 25.5768C26.8799 25.3856 27.054 25.2218 27.2512 25.2926C28.4565 25.7259 30.9403 26.6875 33.7631 27.0495C37.9576 27.5874 41.3299 25.6729 41.8131 25.3976C43.8441 24.2405 44.9061 23.8206 46.1878 22.1784Z" fill="#272727"/>
</g>
<mask id="mask0_213_3114" style="mask-type:alpha" maskUnits="userSpaceOnUse" x="26" y="20" width="22" height="10">
<path d="M46.1641 22.1709C46.5728 21.6465 46.6112 21.025 46.5273 20.476C46.4816 20.1771 46.7771 20.0201 46.9248 20.2839C47.2908 20.9376 47.4395 21.489 47.4781 21.7921C47.5029 22.1108 47.49 22.3125 47.453 22.6051C47.436 22.739 46.9243 23.4672 46.9609 23.6451C46.9975 23.823 46.8773 25.0401 46.8789 25.2245C46.8806 25.4089 46.0773 26.7611 44.0234 28.0335C42.3171 29.0906 39.8885 29.752 39.6405 29.7814C39.3925 29.8109 39.1708 28.9757 38.9925 28.9254C38.526 28.7939 37.1264 29.2692 36.6054 29.3866C35.9975 29.5235 34.5792 29.839 33.0434 29.6029C31.1439 29.311 30.8576 29.0871 29.1294 28.0896C28.0342 27.4575 27.2602 26.2884 26.9439 25.5817C26.8583 25.3905 27.0323 25.2266 27.2295 25.2973C28.4351 25.7298 30.9195 26.6898 33.7425 27.05C37.9374 27.5853 41.3085 25.6685 41.7915 25.393C43.8218 24.2346 44.8835 23.8139 46.1641 22.1709Z" fill="#999999"/>
</mask>
<g mask="url(#mask0_213_3114)">
<g filter="url(#filter16_d_213_3114)">
<path d="M29.9593 25.9219L35.6159 26.1508C35.6162 26.1519 35.6166 26.1531 35.617 26.1542C35.6315 26.2 35.6498 26.2664 35.6642 26.3471C35.6932 26.5094 35.7056 26.7245 35.6448 26.9452C35.5846 27.1635 35.4516 27.3918 35.1812 27.5838C34.909 27.7771 34.4918 27.9375 33.858 28.0062C33.4815 28.047 32.9625 28.032 32.4318 27.9173C31.9008 27.8025 31.366 27.5896 30.9507 27.2408C30.7262 27.0523 30.454 26.6843 30.2332 26.3529C30.1241 26.1892 30.0297 26.0377 29.9625 25.9272C29.9614 25.9254 29.9603 25.9237 29.9593 25.9219Z" stroke="white" stroke-opacity="0.9" stroke-width="0.221435"/>
</g>
<g filter="url(#filter17_d_213_3114)">
<path d="M46.5439 20.4153C46.5444 20.4163 46.5449 20.4173 46.5455 20.4183C46.5953 20.5116 46.657 20.6459 46.7044 20.809C46.799 21.135 46.8349 21.5711 46.6083 22.0282C46.5438 22.1583 46.4547 22.2437 46.3652 22.2773C46.2821 22.3085 46.1833 22.3011 46.0734 22.2135C45.9977 22.1532 45.8917 22.1272 45.7947 22.115C45.6937 22.1023 45.583 22.1024 45.4825 22.1075C45.4395 22.1097 45.3977 22.1128 45.3587 22.1164L46.5439 20.4153Z" stroke="white" stroke-opacity="0.9" stroke-width="0.221435"/>
</g>
</g>
</g>
<defs>
<filter id="filter0_f_213_3114" x="-10.5484" y="11.0589" width="59.1814" height="27.7479" filterUnits="userSpaceOnUse" color-interpolation-filters="sRGB">
<feFlood flood-opacity="0" result="BackgroundImageFix"/>
<feBlend mode="normal" in="SourceGraphic" in2="BackgroundImageFix" result="shape"/>
<feGaussianBlur stdDeviation="0.324186" result="effect1_foregroundBlur_213_3114"/>
</filter>
<filter id="filter1_i_213_3114" x="16.5554" y="24.3615" width="5.75244" height="8.2312" filterUnits="userSpaceOnUse" color-interpolation-filters="sRGB">
<feFlood flood-opacity="0" result="BackgroundImageFix"/>
<feBlend mode="normal" in="SourceGraphic" in2="BackgroundImageFix" result="shape"/>
<feColorMatrix in="SourceAlpha" type="matrix" values="0 0 0 0 0 0 0 0 0 0 0 0 0 0 0 0 0 0 127 0" result="hardAlpha"/>
<feMorphology radius="0.0744101" operator="erode" in="SourceAlpha" result="effect1_innerShadow_213_3114"/>
<feOffset/>
<feGaussianBlur stdDeviation="0.0372051"/>
<feComposite in2="hardAlpha" operator="arithmetic" k2="-1" k3="1"/>
<feColorMatrix type="matrix" values="0 0 0 0 0 0 0 0 0 0 0 0 0 0 0 0 0 0 0.25 0"/>
<feBlend mode="normal" in2="shape" result="effect1_innerShadow_213_3114"/>
</filter>
<filter id="filter2_di_213_3114" x="16.7856" y="25.0441" width="5.04834" height="7.00416" filterUnits="userSpaceOnUse" color-interpolation-filters="sRGB">
<feFlood flood-opacity="0" result="BackgroundImageFix"/>
<feColorMatrix in="SourceAlpha" type="matrix" values="0 0 0 0 0 0 0 0 0 0 0 0 0 0 0 0 0 0 127 0" result="hardAlpha"/>
<feOffset dy="0.029764"/>
<feGaussianBlur stdDeviation="0.022323"/>
<feColorMatrix type="matrix" values="0 0 0 0 1 0 0 0 0 1 0 0 0 0 1 0 0 0 0.41 0"/>
<feBlend mode="normal" in2="BackgroundImageFix" result="effect1_dropShadow_213_3114"/>
<feBlend mode="normal" in="SourceGraphic" in2="effect1_dropShadow_213_3114" result="shape"/>
<feColorMatrix in="SourceAlpha" type="matrix" values="0 0 0 0 0 0 0 0 0 0 0 0 0 0 0 0 0 0 127 0" result="hardAlpha"/>
<feOffset dx="-0.22323" dy="0.14882"/>
<feGaussianBlur stdDeviation="0.111615"/>
<feComposite in2="hardAlpha" operator="arithmetic" k2="-1" k3="1"/>
<feColorMatrix type="matrix" values="0 0 0 0 0 0 0 0 0 0 0 0 0 0 0 0 0 0 0.25 0"/>
<feBlend mode="normal" in2="shape" result="effect2_innerShadow_213_3114"/>
</filter>
<filter id="filter3_i_213_3114" x="16.7522" y="24.4897" width="5.36502" height="7.97632" filterUnits="userSpaceOnUse" color-interpolation-filters="sRGB">
<feFlood flood-opacity="0" result="BackgroundImageFix"/>
<feBlend mode="normal" in="SourceGraphic" in2="BackgroundImageFix" result="shape"/>
<feColorMatrix in="SourceAlpha" type="matrix" values="0 0 0 0 0 0 0 0 0 0 0 0 0 0 0 0 0 0 127 0" result="hardAlpha"/>
<feMorphology radius="0.184529" operator="erode" in="SourceAlpha" result="effect1_innerShadow_213_3114"/>
<feOffset/>
<feGaussianBlur stdDeviation="0.0922644"/>
<feComposite in2="hardAlpha" operator="arithmetic" k2="-1" k3="1"/>
<feColorMatrix type="matrix" values="0 0 0 0 0 0 0 0 0 0 0 0 0 0 0 0 0 0 0.25 0"/>
<feBlend mode="normal" in2="shape" result="effect1_innerShadow_213_3114"/>
</filter>
<filter id="filter4_di_213_3114" x="17.2316" y="25.5058" width="4.28622" height="6.07785" filterUnits="userSpaceOnUse" color-interpolation-filters="sRGB">
<feFlood flood-opacity="0" result="BackgroundImageFix"/>
<feColorMatrix in="SourceAlpha" type="matrix" values="0 0 0 0 0 0 0 0 0 0 0 0 0 0 0 0 0 0 127 0" result="hardAlpha"/>
<feOffset dy="0.0629321"/>
<feGaussianBlur stdDeviation="0.0393325"/>
<feColorMatrix type="matrix" values="0 0 0 0 1 0 0 0 0 1 0 0 0 0 1 0 0 0 0.59 0"/>
<feBlend mode="normal" in2="BackgroundImageFix" result="effect1_dropShadow_213_3114"/>
<feBlend mode="normal" in="SourceGraphic" in2="effect1_dropShadow_213_3114" result="shape"/>
<feColorMatrix in="SourceAlpha" type="matrix" values="0 0 0 0 0 0 0 0 0 0 0 0 0 0 0 0 0 0 127 0" result="hardAlpha"/>
<feOffset dx="-0.235995" dy="0.15733"/>
<feGaussianBlur stdDeviation="0.117998"/>
<feComposite in2="hardAlpha" operator="arithmetic" k2="-1" k3="1"/>
<feColorMatrix type="matrix" values="0 0 0 0 0 0 0 0 0 0 0 0 0 0 0 0 0 0 0.25 0"/>
<feBlend mode="normal" in2="shape" result="effect2_innerShadow_213_3114"/>
</filter>
<filter id="filter5_ii_213_3114" x="-7.89525" y="-1.34659" width="56.4935" height="36.9319" filterUnits="userSpaceOnUse" color-interpolation-filters="sRGB">
<feFlood flood-opacity="0" result="BackgroundImageFix"/>
<feBlend mode="normal" in="SourceGraphic" in2="BackgroundImageFix" result="shape"/>
<feColorMatrix in="SourceAlpha" type="matrix" values="0 0 0 0 0 0 0 0 0 0 0 0 0 0 0 0 0 0 127 0" result="hardAlpha"/>
<feOffset dx="1.10717" dy="-1.47623"/>
<feGaussianBlur stdDeviation="4.42869"/>
<feComposite in2="hardAlpha" operator="arithmetic" k2="-1" k3="1"/>
<feColorMatrix type="matrix" values="0 0 0 0 0 0 0 0 0 0 0 0 0 0 0 0 0 0 0.07 0"/>
<feBlend mode="normal" in2="shape" result="effect1_innerShadow_213_3114"/>
<feColorMatrix in="SourceAlpha" type="matrix" values="0 0 0 0 0 0 0 0 0 0 0 0 0 0 0 0 0 0 127 0" result="hardAlpha"/>
<feOffset dy="-0.184529"/>
<feGaussianBlur stdDeviation="0.369058"/>
<feComposite in2="hardAlpha" operator="arithmetic" k2="-1" k3="1"/>
<feColorMatrix type="matrix" values="0 0 0 0 0 0 0 0 0 0 0 0 0 0 0 0 0 0 0.09 0"/>
<feBlend mode="normal" in2="effect1_innerShadow_213_3114" result="effect2_innerShadow_213_3114"/>
</filter>
<filter id="filter6_ddi_213_3114" x="13.1658" y="5.25834" width="20.8031" height="12.2784" filterUnits="userSpaceOnUse" color-interpolation-filters="sRGB">
<feFlood flood-opacity="0" result="BackgroundImageFix"/>
<feColorMatrix in="SourceAlpha" type="matrix" values="0 0 0 0 0 0 0 0 0 0 0 0 0 0 0 0 0 0 127 0" result="hardAlpha"/>
<feOffset dx="-0.14882" dy="0.0744101"/>
<feGaussianBlur stdDeviation="0.0744101"/>
<feColorMatrix type="matrix" values="0 0 0 0 1 0 0 0 0 1 0 0 0 0 1 0 0 0 0.28 0"/>
<feBlend mode="normal" in2="BackgroundImageFix" result="effect1_dropShadow_213_3114"/>
<feColorMatrix in="SourceAlpha" type="matrix" values="0 0 0 0 0 0 0 0 0 0 0 0 0 0 0 0 0 0 127 0" result="hardAlpha"/>
<feOffset dy="-0.0744101"/>
<feGaussianBlur stdDeviation="0.0744101"/>
<feColorMatrix type="matrix" values="0 0 0 0 1 0 0 0 0 1 0 0 0 0 1 0 0 0 0.56 0"/>
<feBlend mode="normal" in2="effect1_dropShadow_213_3114" result="effect2_dropShadow_213_3114"/>
<feBlend mode="normal" in="SourceGraphic" in2="effect2_dropShadow_213_3114" result="shape"/>
<feColorMatrix in="SourceAlpha" type="matrix" values="0 0 0 0 0 0 0 0 0 0 0 0 0 0 0 0 0 0 127 0" result="hardAlpha"/>
<feOffset dx="-0.0744101" dy="0.22323"/>
<feGaussianBlur stdDeviation="0.111615"/>
<feComposite in2="hardAlpha" operator="arithmetic" k2="-1" k3="1"/>
<feColorMatrix type="matrix" values="0 0 0 0 0 0 0 0 0 0 0 0 0 0 0 0 0 0 0.75 0"/>
<feBlend mode="normal" in2="shape" result="effect3_innerShadow_213_3114"/>
</filter>
<filter id="filter7_di_213_3114" x="-2.95243" y="5.30054" width="19.6931" height="11.8589" filterUnits="userSpaceOnUse" color-interpolation-filters="sRGB">
<feFlood flood-opacity="0" result="BackgroundImageFix"/>
<feColorMatrix in="SourceAlpha" type="matrix" values="0 0 0 0 0 0 0 0 0 0 0 0 0 0 0 0 0 0 127 0" result="hardAlpha"/>
<feOffset dy="0.0769497"/>
<feGaussianBlur stdDeviation="0.0384748"/>
<feColorMatrix type="matrix" values="0 0 0 0 0.925374 0 0 0 0 0.925374 0 0 0 0 0.925374 0 0 0 0.37 0"/>
<feBlend mode="normal" in2="BackgroundImageFix" result="effect1_dropShadow_213_3114"/>
<feBlend mode="normal" in="SourceGraphic" in2="effect1_dropShadow_213_3114" result="shape"/>
<feColorMatrix in="SourceAlpha" type="matrix" values="0 0 0 0 0 0 0 0 0 0 0 0 0 0 0 0 0 0 127 0" result="hardAlpha"/>
<feOffset dx="-0.29764" dy="0.37205"/>
<feGaussianBlur stdDeviation="0.14882"/>
<feComposite in2="hardAlpha" operator="arithmetic" k2="-1" k3="1"/>
<feColorMatrix type="matrix" values="0 0 0 0 0 0 0 0 0 0 0 0 0 0 0 0 0 0 0.8 0"/>
<feBlend mode="normal" in2="shape" result="effect2_innerShadow_213_3114"/>
</filter>
<filter id="filter8_di_213_3114" x="-2.8786" y="0.458496" width="13.8735" height="4.71768" filterUnits="userSpaceOnUse" color-interpolation-filters="sRGB">
<feFlood flood-opacity="0" result="BackgroundImageFix"/>
<feColorMatrix in="SourceAlpha" type="matrix" values="0 0 0 0 0 0 0 0 0 0 0 0 0 0 0 0 0 0 127 0" result="hardAlpha"/>
<feOffset dy="0.0769497"/>
<feGaussianBlur stdDeviation="0.0384748"/>
<feColorMatrix type="matrix" values="0 0 0 0 0.925374 0 0 0 0 0.925374 0 0 0 0 0.925374 0 0 0 0.37 0"/>
<feBlend mode="normal" in2="BackgroundImageFix" result="effect1_dropShadow_213_3114"/>
<feBlend mode="normal" in="SourceGraphic" in2="effect1_dropShadow_213_3114" result="shape"/>
<feColorMatrix in="SourceAlpha" type="matrix" values="0 0 0 0 0 0 0 0 0 0 0 0 0 0 0 0 0 0 127 0" result="hardAlpha"/>
<feOffset dx="-0.29764" dy="0.37205"/>
<feGaussianBlur stdDeviation="0.14882"/>
<feComposite in2="hardAlpha" operator="arithmetic" k2="-1" k3="1"/>
<feColorMatrix type="matrix" values="0 0 0 0 0 0 0 0 0 0 0 0 0 0 0 0 0 0 0.8 0"/>
<feBlend mode="normal" in2="shape" result="effect2_innerShadow_213_3114"/>
</filter>
<filter id="filter9_f_213_3114" x="13.2882" y="14.2717" width="26.853" height="13.1197" filterUnits="userSpaceOnUse" color-interpolation-filters="sRGB">
<feFlood flood-opacity="0" result="BackgroundImageFix"/>
<feBlend mode="normal" in="SourceGraphic" in2="BackgroundImageFix" result="shape"/>
<feGaussianBlur stdDeviation="1.04174" result="effect1_foregroundBlur_213_3114"/>
</filter>
<filter id="filter10_f_213_3114" x="33.8834" y="8.04966" width="12.3149" height="14.2033" filterUnits="userSpaceOnUse" color-interpolation-filters="sRGB">
<feFlood flood-opacity="0" result="BackgroundImageFix"/>
<feBlend mode="normal" in="SourceGraphic" in2="BackgroundImageFix" result="shape"/>
<feGaussianBlur stdDeviation="0.669691" result="effect1_foregroundBlur_213_3114"/>
</filter>
<filter id="filter11_di_213_3114" x="7.80091" y="16.0404" width="1.78009" height="1.51054" filterUnits="userSpaceOnUse" color-interpolation-filters="sRGB">
<feFlood flood-opacity="0" result="BackgroundImageFix"/>
<feColorMatrix in="SourceAlpha" type="matrix" values="0 0 0 0 0 0 0 0 0 0 0 0 0 0 0 0 0 0 127 0" result="hardAlpha"/>
<feOffset dy="-0.0369058"/>
<feGaussianBlur stdDeviation="0.0184529"/>
<feColorMatrix type="matrix" values="0 0 0 0 0.78755 0 0 0 0 0.78755 0 0 0 0 0.78755 0 0 0 0.19 0"/>
<feBlend mode="normal" in2="BackgroundImageFix" result="effect1_dropShadow_213_3114"/>
<feBlend mode="normal" in="SourceGraphic" in2="effect1_dropShadow_213_3114" result="shape"/>
<feColorMatrix in="SourceAlpha" type="matrix" values="0 0 0 0 0 0 0 0 0 0 0 0 0 0 0 0 0 0 127 0" result="hardAlpha"/>
<feOffset dy="0.184529"/>
<feGaussianBlur stdDeviation="0.0922644"/>
<feComposite in2="hardAlpha" operator="arithmetic" k2="-1" k3="1"/>
<feColorMatrix type="matrix" values="0 0 0 0 0 0 0 0 0 0 0 0 0 0 0 0 0 0 0.74 0"/>
<feBlend mode="normal" in2="shape" result="effect2_innerShadow_213_3114"/>
</filter>
<filter id="filter12_di_213_3114" x="-0.077992" y="12.3202" width="1.78009" height="1.51054" filterUnits="userSpaceOnUse" color-interpolation-filters="sRGB">
<feFlood flood-opacity="0" result="BackgroundImageFix"/>
<feColorMatrix in="SourceAlpha" type="matrix" values="0 0 0 0 0 0 0 0 0 0 0 0 0 0 0 0 0 0 127 0" result="hardAlpha"/>
<feOffset dy="-0.0369058"/>
<feGaussianBlur stdDeviation="0.0184529"/>
<feColorMatrix type="matrix" values="0 0 0 0 0.78755 0 0 0 0 0.78755 0 0 0 0 0.78755 0 0 0 0.19 0"/>
<feBlend mode="normal" in2="BackgroundImageFix" result="effect1_dropShadow_213_3114"/>
<feBlend mode="normal" in="SourceGraphic" in2="effect1_dropShadow_213_3114" result="shape"/>
<feColorMatrix in="SourceAlpha" type="matrix" values="0 0 0 0 0 0 0 0 0 0 0 0 0 0 0 0 0 0 127 0" result="hardAlpha"/>
<feOffset dy="0.184529"/>
<feGaussianBlur stdDeviation="0.0922644"/>
<feComposite in2="hardAlpha" operator="arithmetic" k2="-1" k3="1"/>
<feColorMatrix type="matrix" values="0 0 0 0 0 0 0 0 0 0 0 0 0 0 0 0 0 0 0.74 0"/>
<feBlend mode="normal" in2="shape" result="effect2_innerShadow_213_3114"/>
</filter>
<filter id="filter13_f_213_3114" x="-0.669468" y="15.4346" width="16.2002" height="12.1377" filterUnits="userSpaceOnUse" color-interpolation-filters="sRGB">
<feFlood flood-opacity="0" result="BackgroundImageFix"/>
<feBlend mode="normal" in="SourceGraphic" in2="BackgroundImageFix" result="shape"/>
<feGaussianBlur stdDeviation="0.22323" result="effect1_foregroundBlur_213_3114"/>
</filter>
<filter id="filter14_f_213_3114" x="29.9934" y="18.1825" width="17.4486" height="11.5426" filterUnits="userSpaceOnUse" color-interpolation-filters="sRGB">
<feFlood flood-opacity="0" result="BackgroundImageFix"/>
<feBlend mode="normal" in="SourceGraphic" in2="BackgroundImageFix" result="shape"/>
<feGaussianBlur stdDeviation="0.37205" result="effect1_foregroundBlur_213_3114"/>
</filter>
<filter id="filter15_ddii_213_3114" x="26.8505" y="19.7417" width="20.5503" height="10.6822" filterUnits="userSpaceOnUse" color-interpolation-filters="sRGB">
<feFlood flood-opacity="0" result="BackgroundImageFix"/>
<feColorMatrix in="SourceAlpha" type="matrix" values="0 0 0 0 0 0 0 0 0 0 0 0 0 0 0 0 0 0 127 0" result="hardAlpha"/>
<feOffset dy="0.0694604"/>
<feGaussianBlur stdDeviation="0.046307"/>
<feColorMatrix type="matrix" values="0 0 0 0 0 0 0 0 0 0 0 0 0 0 0 0 0 0 0.57 0"/>
<feBlend mode="normal" in2="BackgroundImageFix" result="effect1_dropShadow_213_3114"/>
<feColorMatrix in="SourceAlpha" type="matrix" values="0 0 0 0 0 0 0 0 0 0 0 0 0 0 0 0 0 0 127 0" result="hardAlpha"/>
<feOffset dy="-0.046307"/>
<feGaussianBlur stdDeviation="0.046307"/>
<feColorMatrix type="matrix" values="0 0 0 0 0 0 0 0 0 0 0 0 0 0 0 0 0 0 1 0"/>
<feBlend mode="normal" in2="effect1_dropShadow_213_3114" result="effect2_dropShadow_213_3114"/>
<feBlend mode="normal" in="SourceGraphic" in2="effect2_dropShadow_213_3114" result="shape"/>
<feColorMatrix in="SourceAlpha" type="matrix" values="0 0 0 0 0 0 0 0 0 0 0 0 0 0 0 0 0 0 127 0" result="hardAlpha"/>
<feOffset dy="0.638395"/>
<feGaussianBlur stdDeviation="0.650594"/>
<feComposite in2="hardAlpha" operator="arithmetic" k2="-1" k3="1"/>
<feColorMatrix type="matrix" values="0 0 0 0 0 0 0 0 0 0 0 0 0 0 0 0 0 0 1 0"/>
<feBlend mode="normal" in2="shape" result="effect3_innerShadow_213_3114"/>
<feColorMatrix in="SourceAlpha" type="matrix" values="0 0 0 0 0 0 0 0 0 0 0 0 0 0 0 0 0 0 127 0" result="hardAlpha"/>
<feOffset dy="-0.0695665"/>
<feGaussianBlur stdDeviation="0.0695665"/>
<feComposite in2="hardAlpha" operator="arithmetic" k2="-1" k3="1"/>
<feColorMatrix type="matrix" values="0 0 0 0 0 0 0 0 0 0 0 0 0 0 0 0 0 0 1 0"/>
<feBlend mode="normal" in2="effect3_innerShadow_213_3114" result="effect4_innerShadow_213_3114"/>
</filter>
<filter id="filter16_d_213_3114" x="29.742" y="25.803" width="6.22241" height="2.51797" filterUnits="userSpaceOnUse" color-interpolation-filters="sRGB">
<feFlood flood-opacity="0" result="BackgroundImageFix"/>
<feColorMatrix in="SourceAlpha" type="matrix" values="0 0 0 0 0 0 0 0 0 0 0 0 0 0 0 0 0 0 127 0" result="hardAlpha"/>
<feOffset dx="0.0738116" dy="0.0916878"/>
<feGaussianBlur stdDeviation="0.0458439"/>
<feColorMatrix type="matrix" values="0 0 0 0 1 0 0 0 0 1 0 0 0 0 1 0 0 0 0.24 0"/>
<feBlend mode="normal" in2="BackgroundImageFix" result="effect1_dropShadow_213_3114"/>
<feBlend mode="normal" in="SourceGraphic" in2="effect1_dropShadow_213_3114" result="shape"/>
</filter>
<filter id="filter17_d_213_3114" x="45.1071" y="20.2123" width="1.9469" height="2.376" filterUnits="userSpaceOnUse" color-interpolation-filters="sRGB">
<feFlood flood-opacity="0" result="BackgroundImageFix"/>
<feColorMatrix in="SourceAlpha" type="matrix" values="0 0 0 0 0 0 0 0 0 0 0 0 0 0 0 0 0 0 127 0" result="hardAlpha"/>
<feOffset dx="0.0738115" dy="0.0916878"/>
<feGaussianBlur stdDeviation="0.0458439"/>
<feColorMatrix type="matrix" values="0 0 0 0 1 0 0 0 0 1 0 0 0 0 1 0 0 0 0.24 0"/>
<feBlend mode="normal" in2="BackgroundImageFix" result="effect1_dropShadow_213_3114"/>
<feBlend mode="normal" in="SourceGraphic" in2="effect1_dropShadow_213_3114" result="shape"/>
</filter>
<linearGradient id="paint0_linear_213_3114" x1="6.0055" y1="6.59812" x2="6.30457" y2="2.14998" gradientUnits="userSpaceOnUse">
<stop stop-color="#3F3F3F"/>
<stop offset="1" stop-color="#5C5C5C"/>
</linearGradient>
<linearGradient id="paint1_linear_213_3114" x1="5.62837" y1="6.36312" x2="5.92507" y2="2.07455" gradientUnits="userSpaceOnUse">
<stop stop-color="#AAAAAA"/>
<stop offset="1" stop-color="#C2C2C2"/>
</linearGradient>
<linearGradient id="paint2_linear_213_3114" x1="22.9069" y1="33.701" x2="49.1916" y2="3.28294" gradientUnits="userSpaceOnUse">
<stop stop-color="#D8D8D8"/>
<stop offset="1" stop-color="white"/>
</linearGradient>
<linearGradient id="paint3_linear_213_3114" x1="26.2943" y1="-5.05549" x2="11.4195" y2="8.31829" gradientUnits="userSpaceOnUse">
<stop stop-color="#E8EAE9"/>
<stop offset="0.498386" stop-color="#707072"/>
<stop offset="1" stop-color="#2F3032"/>
</linearGradient>
<linearGradient id="paint4_linear_213_3114" x1="1.27667" y1="40.3787" x2="15.7984" y2="15.3697" gradientUnits="userSpaceOnUse">
<stop stop-color="#E8EAE9"/>
<stop offset="0.498386" stop-color="#707072"/>
<stop offset="1" stop-color="#2F3032"/>
</linearGradient>
<linearGradient id="paint5_linear_213_3114" x1="-3.98027" y1="14.0174" x2="4.04538" y2="2.89" gradientUnits="userSpaceOnUse">
<stop stop-color="#E8EAE9"/>
<stop offset="0.498386" stop-color="#707072"/>
<stop offset="1" stop-color="#2F3032"/>
</linearGradient>
<linearGradient id="paint6_linear_213_3114" x1="25.8237" y1="25.6368" x2="27.7605" y2="20.4127" gradientUnits="userSpaceOnUse">
<stop stop-color="#ECEAEA"/>
<stop offset="1" stop-color="white" stop-opacity="0"/>
</linearGradient>
<linearGradient id="paint7_linear_213_3114" x1="46.5445" y1="16.7682" x2="39.6822" y2="18.9692" gradientUnits="userSpaceOnUse">
<stop stop-color="#ECEAEA"/>
<stop offset="1" stop-color="white" stop-opacity="0"/>
</linearGradient>
<linearGradient id="paint8_linear_213_3114" x1="9.62611" y1="26.1299" x2="11.7833" y2="21.8281" gradientUnits="userSpaceOnUse">
<stop stop-color="#040404"/>
<stop offset="1" stop-color="#3C3C3C" stop-opacity="0"/>
</linearGradient>
<linearGradient id="paint9_linear_213_3114" x1="38.8179" y1="26.6103" x2="37.6623" y2="24.2158" gradientUnits="userSpaceOnUse">
<stop stop-color="#4B4B4B"/>
<stop offset="0.899322" stop-opacity="0"/>
</linearGradient>
<clipPath id="clip0_213_3114">
<rect width="58.7661" height="38.502" fill="white" transform="translate(-10)"/>
</clipPath>
</defs>
</svg>
