<svg width="136" height="124" viewBox="0 0 136 124" fill="none" xmlns="http://www.w3.org/2000/svg">
<path d="M135.572 65.0605L135.564 71.3534C135.564 76.3841 135.565 81.4149 135.567 86.4459C135.573 89.3219 135.58 92.198 135.586 95.0742C135.58 97.1679 135.575 99.2613 135.569 101.354V102.252C135.565 103.693 135.56 105.135 135.556 106.576C135.556 109.378 135.555 112.181 135.552 114.985C135.568 115.727 135.52 116.47 135.409 117.204C135.233 118.008 134.803 118.727 134.188 119.246C133.574 119.765 132.81 120.054 132.019 120.067C130.964 120.086 129.908 120.058 128.853 120.052C128.852 80.627 128.851 41.2031 128.848 1.78008C128.848 1.21346 128.84 0.64258 128.836 0.0740641C129.895 0.0636759 130.956 0.00181914 132.013 0.0532877C134.078 0.153392 135.52 1.79425 135.525 4.02345C135.536 8.83128 135.527 13.6386 135.53 18.4465C135.53 18.7737 135.555 19.1009 135.568 19.4286C135.568 20.6878 135.568 21.9455 135.568 23.2019C135.568 24.4582 135.565 25.7174 135.56 26.9794C135.569 30.7528 135.577 34.5262 135.585 38.2997L135.561 38.6571C135.562 42.9698 135.564 47.2815 135.566 51.5923C135.578 52.1982 135.59 52.8042 135.602 53.4102C135.461 57.2939 135.519 61.1782 135.572 65.0624" fill="#C9C9C9"/>
<path d="M128.842 0.0741337C128.847 0.640761 128.855 1.21164 128.855 1.78015C128.857 41.2035 128.859 80.6268 128.86 120.05C128.695 120.092 128.528 120.12 128.358 120.134C123.763 120.138 119.168 120.138 114.573 120.134C114.402 120.125 114.231 120.105 114.063 120.076C115.353 119.645 116.192 118.667 116.892 117.526C119.904 117.537 122.917 117.543 125.929 117.564C126.337 117.567 126.48 117.419 126.478 116.993C126.454 113.165 126.44 109.336 126.436 105.507C126.436 105.123 126.353 104.906 125.916 104.887C123.938 104.799 121.962 104.751 119.985 104.851C119.933 104.754 119.91 104.644 119.918 104.534C119.927 104.424 119.965 104.319 120.03 104.231C122.04 104.245 124.052 104.227 126.061 104.29C126.781 104.312 126.972 104.092 126.97 103.345C126.943 95.1409 126.951 86.9366 126.95 78.7323C126.943 78.4733 126.935 78.2142 126.928 77.9551C126.922 77.1877 126.917 76.42 126.912 75.6523C126.923 73.1484 126.935 70.6447 126.946 68.1411C126.942 67.8802 126.938 67.6192 126.933 67.3582C126.94 58.7524 126.946 50.1466 126.952 41.5408L126.949 40.6163C126.946 39.778 126.944 38.9397 126.942 38.1014C126.932 32.4427 126.922 26.784 126.912 21.1253C126.928 20.8026 126.944 20.4799 126.961 20.1573C126.954 15.9165 126.933 11.6758 126.957 7.43509C126.961 6.75844 126.781 6.58515 126.139 6.58515C122.098 6.61018 118.058 6.56957 114.018 6.59507C112.76 6.52977 111.5 6.56244 110.247 6.69281C110.026 6.40949 109.744 6.50393 109.469 6.55776C109.068 6.56626 108.666 6.58184 108.264 6.58184C97.9855 6.58184 87.7063 6.58184 77.427 6.58184C77.1688 6.58184 76.9088 6.60026 76.6519 6.58184C76.1953 6.54643 76.0576 6.76316 76.0725 7.21977C76.1038 8.17643 76.0929 9.1345 76.0993 10.0916C75.9817 10.3084 75.919 10.5528 75.9169 10.8019C75.9149 11.0509 75.9735 11.2964 76.0875 11.5153C76.0851 21.0705 76.0834 30.6257 76.0825 40.1809C76.0825 40.3887 76.111 40.5965 76.1278 40.8042C76.1067 42.2236 76.0857 43.643 76.0648 45.0624L74.1731 45.0974C74.1731 32.1997 74.1717 19.3021 74.169 6.40477C74.169 6.01805 74.1328 5.63133 74.1133 5.24413C74.1309 4.94712 74.1622 4.65012 74.164 4.35311C74.1817 1.49684 75.572 0.0387195 78.2927 0.0368307C81.4778 0.0368307 84.6629 0.0406083 87.848 0.0368307C92.0347 0.027387 96.2222 0.0151101 100.411 0C100.728 0.0127491 101.04 0.0363586 101.355 0.0363586C110.174 0.0382473 118.992 0.0393491 127.811 0.0396639C128.155 0.0396639 128.498 0.062329 128.842 0.0741337ZM95.9088 3.08245V3.0782C93.4399 3.0782 90.971 3.0749 88.503 3.08245C88.2184 3.07087 87.9339 3.10641 87.66 3.18775C87.5751 3.20916 87.4953 3.24826 87.4253 3.3027C87.3553 3.35715 87.2967 3.4258 87.2529 3.50452C87.2091 3.58325 87.181 3.6704 87.1704 3.76074C87.1598 3.85108 87.1668 3.94272 87.1911 4.03013C87.2043 4.12731 87.237 4.22048 87.2872 4.30353C87.3373 4.38658 87.4038 4.45762 87.4822 4.51198C87.5606 4.56635 87.6491 4.60281 87.742 4.61897C87.8348 4.63512 87.9299 4.63061 88.021 4.60573C88.3306 4.5503 88.6442 4.52359 88.9583 4.52593C93.4648 4.52278 97.9714 4.52389 102.478 4.52924C102.736 4.51462 102.995 4.53365 103.248 4.5859C103.843 4.74644 104.419 4.72756 104.53 3.99708C104.66 3.14242 104.032 3.07678 103.403 3.07914C100.906 3.08859 98.4084 3.08292 95.9115 3.08292M111.749 4.52027C112.836 4.52027 113.928 4.50468 115.017 4.52735C115.506 4.53727 115.837 4.31109 115.855 3.84031C115.874 3.32091 115.548 3.06545 115.015 3.06923C112.865 3.08465 110.715 3.08465 108.565 3.06923C108.075 3.06545 107.746 3.28502 107.727 3.75532C107.706 4.27992 108.037 4.53632 108.568 4.52735C109.628 4.50846 110.689 4.52168 111.749 4.52121" fill="#C9C9C9"/>
<path d="M73.8948 45.0835C73.5324 46.0529 72.8239 46.3863 71.8662 46.3839C66.4238 46.3707 60.9814 46.3839 55.539 46.3688C55.0281 46.3381 54.5194 46.2758 54.0155 46.1823C53.2549 45.2615 53.2522 44.285 53.6884 43.1905C54.117 42.1158 54.4055 40.9816 54.7788 39.8819C55.124 38.8657 55.6146 38.5031 56.6497 38.5012C61.0738 38.4946 65.4979 38.5012 69.9228 38.4941C70.2833 38.4676 70.643 38.5544 70.9556 38.7434C71.2682 38.9324 71.5191 39.2149 71.6759 39.5542C72.3627 40.9358 73.0481 42.3182 73.7321 43.7014C73.8476 43.9082 73.9216 44.1373 73.9496 44.3748C73.9776 44.6123 73.9591 44.8532 73.8952 45.083M64.4056 44.1859C64.0432 42.9431 63.7008 41.9 63.4435 40.8333C63.3053 40.2606 62.9628 40.2865 62.5465 40.2719C62.1198 40.2568 61.8575 40.3493 61.7424 40.8437C61.5327 41.7437 61.2441 42.6229 61.0149 43.5187C60.9592 43.7378 60.72 44.0896 61.1155 44.1868C61.4448 44.2676 61.9014 44.3951 61.9857 43.7926C62.0378 43.4233 62.2403 43.3138 62.5828 43.3095C62.6536 43.2992 62.7258 43.3041 62.7947 43.3241C62.8636 43.3441 62.9279 43.3787 62.9834 43.4257C63.039 43.4727 63.0846 43.5311 63.1176 43.5973C63.1505 43.6635 63.17 43.7361 63.1748 43.8105C63.1849 43.9139 63.2275 44.0109 63.2958 44.0866C63.3642 44.1622 63.4547 44.2122 63.5531 44.2289C64.0441 44.3912 64.5748 44.3631 65.0475 44.1498C65.5202 43.9364 65.903 43.5521 66.1253 43.0677C66.3894 43.8667 66.7142 44.5509 67.7896 44.0702C66.769 42.8897 66.5438 41.6337 67.7185 40.4565C66.7291 39.9022 66.4415 40.6421 66.084 41.2928C65.9817 41.1034 65.8889 40.9086 65.8059 40.7092C65.7709 40.6009 65.7122 40.5027 65.6345 40.4223C65.5567 40.3418 65.4621 40.2813 65.358 40.2457C65.2539 40.21 65.1433 40.2002 65.0349 40.2168C64.9265 40.2335 64.8234 40.2763 64.7336 40.3418C64.3481 40.5552 64.7617 40.9226 64.9089 41.1299C65.171 41.4263 65.3154 41.8153 65.3132 42.2184C65.3109 42.6215 65.1621 43.0087 64.8967 43.3019C64.7149 43.5851 64.5509 43.8802 64.4056 44.1854M59.6011 40.2832C59.2577 40.2832 58.9143 40.2884 58.5714 40.2832C58.2855 40.2771 58.0649 40.3201 58.0577 40.7025C58.0513 41.0387 58.1646 41.222 58.5016 41.178C58.994 41.1124 59.0679 41.3948 59.0529 41.8188C59.0312 42.4445 59.0602 43.0715 59.0439 43.6972C59.0339 44.0674 59.1458 44.2307 59.529 44.2374C59.9367 44.2444 60.0953 44.1028 60.0776 43.6707C60.0532 43.0753 60.0862 42.4775 60.0672 41.8821C60.0536 41.4486 60.0745 41.0968 60.6375 41.1738C60.9823 41.221 61.0756 41.0137 61.0693 40.6865C61.0616 40.2946 60.8233 40.2757 60.546 40.2799C60.2312 40.2847 59.9168 40.2799 59.602 40.2799M68.191 42.2348C68.191 42.6824 68.2059 43.132 68.1864 43.5768C68.1683 43.9923 68.2317 44.2492 68.7323 44.2378C69.1885 44.226 69.2347 43.9899 69.2306 43.616C69.2184 42.7212 69.2161 41.8264 69.2306 40.9316C69.2383 40.5151 69.1772 40.2582 68.6807 40.2705C68.2222 40.2795 68.1733 40.5226 68.1855 40.8961C68.2 41.3428 68.1892 41.7909 68.1901 42.2381" fill="#C9C9C9"/>
<path d="M4.04688 80.7142C4.39478 77.5808 5.56127 74.8954 7.97987 72.8915C8.29109 72.6341 8.58192 72.3499 8.88181 72.0784C9.40775 71.8833 9.81183 71.4225 10.3844 71.3328C10.9002 71.2727 11.4216 71.3722 11.8835 71.6189C12.3454 71.8656 12.7274 72.2486 12.982 72.7201C13.3638 73.3443 13.8259 73.9147 14.2504 74.5092C14.2549 74.5876 14.259 74.6655 14.2631 74.7453C14.2362 74.9785 14.2095 75.2118 14.1829 75.4451C13.6298 75.0319 13.387 74.3727 13.0101 73.8217C12.0442 72.4098 10.8773 71.8914 9.65781 72.4311C8.97884 72.7423 8.3451 73.1513 7.77511 73.646C7.31894 74.0318 7.28813 74.3364 7.74567 74.7793C9.28081 76.2434 10.9465 77.5515 12.7201 78.6857C13.1396 78.9586 13.6891 79.0819 13.907 79.6367C13.8883 80.7158 13.8694 81.7951 13.8504 82.8745C12.2794 82.9859 10.7088 83.18 9.13911 83.1876C7.36243 83.1965 5.46977 83.4194 4.21675 81.5977L4.22219 81.6029C4.19471 81.431 4.16737 81.2593 4.14019 81.0877L4.04959 80.7166" fill="#D3DFDB"/>
<path d="M19.5315 63.1123L16.4624 66.1069C15.9071 66.5104 15.4151 67.0012 15.0042 67.5618C14.6766 67.5896 14.5258 67.8611 14.3414 68.0859C13.9133 68.2139 13.5713 67.9192 13.1912 67.8238C12.9647 67.7676 12.9076 67.6189 12.9194 67.3568C13.0793 64.3443 16.4628 61.9484 19.421 62.7695C19.5972 62.8167 19.6194 62.9546 19.5297 63.1123" fill="black"/>
<path d="M14.3415 68.0863C14.5258 67.8615 14.6762 67.59 15.0042 67.5621C14.8179 69.302 14.6315 71.042 14.4452 72.7822C14.3129 73.3488 14.5064 73.9565 14.2531 74.5085C13.8273 73.9135 13.3652 73.3432 12.9847 72.7189C12.7301 72.2474 12.3479 71.8645 11.886 71.6178C11.424 71.3711 10.9026 71.2716 10.3867 71.3316C12.0724 70.7343 13.223 69.4315 14.3424 68.0858" fill="#CDCDCD"/>
<path d="M0.951663 111.596C0.801265 110.386 0.400355 109.212 0.463776 107.97C0.871481 108.854 1.27058 109.744 1.69776 110.619C1.93333 111.101 3.34263 111.584 3.8056 111.396C4.11229 111.271 4.03663 111.007 4.02486 110.79C4.03565 110.135 4.18036 109.489 4.44932 108.896C5.11615 107.045 6.20653 105.384 6.42669 103.325C6.61832 101.53 7.13655 99.7747 7.51074 98.0021C7.67155 97.5582 7.83464 97.1158 7.99274 96.671C9.16059 93.3902 10.7022 90.4116 13.8709 88.7429C14.4663 88.6684 15.0459 88.493 15.5869 88.2235C19.2191 86.7696 22.8631 85.3512 26.6199 84.2746C28.73 84.3851 30.7762 84.6523 32.1221 86.6719C32.1752 86.742 32.236 86.8054 32.3033 86.8608C35.1822 89.5012 38.4542 90.4022 42.163 89.2132C44.6595 88.4133 46.7537 86.8405 48.8557 85.294C49.9035 84.523 51.0251 84.0054 52.3547 84.2689C57.3206 85.2071 62.1306 86.6346 66.5116 89.3322C68.2045 90.3748 69.7732 91.6351 70.6951 93.496C72.6978 97.5398 74.4976 101.674 75.2632 106.206L76.0261 112.256L74.0664 112.316C68.9891 112.427 63.9118 112.552 58.8341 112.635C58.585 112.612 58.3354 112.673 58.1222 112.809C57.9089 112.945 57.7433 113.149 57.6499 113.391C57.07 114.565 56.2597 115.6 55.2716 116.427C52.5083 118.751 49.0568 118.67 46.3963 116.221C45.5275 115.433 44.8057 114.485 44.2672 113.424C44.1861 113.223 44.0443 113.055 43.8633 112.946C43.6823 112.836 43.4719 112.791 43.2642 112.818C36.8646 112.813 30.4636 112.916 24.0663 112.668C23.491 112.646 23.3496 112.938 23.1952 113.397C22.3811 115.932 20.9962 118.227 19.1566 120.089C15.1434 124.082 9.56149 124.065 5.55013 120.062C3.82071 118.298 2.4931 116.152 1.66515 113.782C1.40059 113.063 1.18587 112.324 0.948492 111.594M20.1274 112.658C19.2617 112.536 18.3869 112.498 17.5145 112.545C16.2837 112.476 15.0497 112.442 13.8225 112.328C12.988 112.25 12.9097 112.564 13.1738 113.286C13.4265 114.049 13.7484 114.785 14.135 115.484C15.4035 117.621 16.7172 117.848 18.5401 116.254C18.7515 116.767 18.9641 117.28 19.1779 117.793C19.2422 117.949 19.2327 118.171 19.4497 118.2C19.712 118.234 19.7532 117.98 19.8597 117.817C20.4872 116.788 20.9742 115.674 21.3066 114.506C21.8805 112.691 21.881 112.692 20.126 112.658M48.1803 109.255C52.3275 109.343 56.9636 109.071 61.6019 108.891C62.4589 108.876 63.3143 108.806 64.1632 108.683C67.2405 108.171 70.2281 107.24 73.2582 106.504C73.694 106.399 73.9237 106.232 73.7941 105.635C73.4678 104.155 73.0534 102.698 72.5533 101.271C71.7434 98.9438 70.7834 96.6764 69.6799 94.4842C68.5338 92.1984 66.5184 90.8224 64.382 89.6821C60.6583 87.6946 56.646 86.6223 52.5821 85.6982C51.1642 85.3757 49.9674 85.3677 48.7361 86.3801C47.0128 87.8691 45.0804 89.0735 43.0065 89.9512C41.1736 90.7448 39.1581 90.9628 37.208 90.5783C34.7871 90.0518 32.8718 88.647 31.2034 86.8088C30.9112 86.4868 30.6689 86.0453 30.2408 85.9357C28.9723 85.6118 27.7066 85.2416 26.3902 85.7629C25.616 86.0689 24.8006 86.2616 24.0187 86.5496C20.8894 87.7031 17.7672 88.8827 14.6379 90.0287C14.4447 90.0774 14.2764 90.2005 14.1667 90.3732C14.0569 90.5459 14.0139 90.7554 14.0463 90.9598C14.0725 93.3165 14.3688 95.6515 14.6075 97.986C14.9283 101.118 15.5851 104.2 16.1355 107.298C16.2936 108.186 16.7738 108.443 17.5176 108.537C19.6798 108.811 21.8579 108.703 24.0273 108.868C26.7694 109.074 29.5246 108.888 32.2797 109.031C35.8843 109.22 39.5038 109.04 43.1161 109.242C44.6341 109.327 46.1603 109.256 48.1803 109.256" fill="black"/>
<path d="M96.7772 120.028C96.5054 120.243 96.2205 120.443 95.9618 120.673C92.6843 123.571 88.5044 123.565 85.2414 120.654C85.024 120.46 84.807 120.266 84.5904 120.071C83.8774 119.272 83.2245 118.416 82.6375 117.512C81.674 115.846 80.9387 114.048 80.4531 112.171C83.0534 112.082 85.6536 111.982 88.2548 111.914C88.5378 111.944 88.8232 111.893 89.0807 111.767C89.3382 111.641 89.5583 111.445 89.7176 111.2C89.9065 111.385 90.0279 111.633 90.0609 111.901C90.3286 113.188 90.8224 114.412 91.5173 115.512C92.7332 117.318 93.8186 118.342 96.1063 117.344C96.4647 118.048 96.7605 118.784 96.9901 119.544L96.779 120.028" fill="black"/>
<path d="M116.89 117.525C116.188 118.666 115.349 119.643 114.061 120.075C113.647 120.185 113.213 120.185 112.799 120.075C111.49 119.661 110.679 118.639 109.943 117.525C109.08 115.877 108.416 114.124 107.966 112.306L107.761 111.546L107.484 110.035C108.254 109.95 109.025 109.886 109.79 109.777C111.209 109.574 112.777 109.824 113.731 108.313C114.051 108.641 113.985 108.959 114.031 109.247C114.205 110.7 114.571 112.122 115.118 113.47C115.337 113.955 115.584 114.493 116.202 114.484C116.819 114.475 117.072 113.933 117.266 113.445C117.565 112.734 117.802 111.997 117.974 111.241C119.017 105.933 119.118 100.471 118.275 95.124C118.061 93.6668 117.859 92.1615 116.946 90.9243C117.104 90.12 117.449 89.3682 117.95 88.7343C117.963 88.8828 117.99 89.0298 118.029 89.1735C119.231 92.552 119.86 96.1227 119.889 99.7259C119.892 99.9866 119.828 100.273 120.074 100.471C120.064 101.604 120.054 102.736 120.044 103.867L120.029 104.226C119.964 104.313 119.926 104.419 119.917 104.529C119.909 104.639 119.932 104.749 119.984 104.846C119.946 105.262 119.908 105.679 119.87 106.095C119.504 110.082 118.799 113.972 116.891 117.522" fill="black"/>
<path d="M109.941 117.528C110.677 118.641 111.488 119.662 112.797 120.078C111.912 120.099 111.028 120.136 110.143 120.137C105.994 120.144 101.845 120.144 97.6953 120.137C97.3848 120.198 97.0641 120.161 96.7734 120.032L96.9845 119.548C97.664 119.002 98.0614 118.21 98.5868 117.53H109.941" fill="#C9C9C9"/>
<path d="M82.6379 117.513C83.2251 118.417 83.878 119.272 84.5908 120.072C82.222 120.209 79.8479 120.214 77.4786 120.087C75.5244 119.979 74.2442 118.379 74.1717 116.319C74.1264 114.985 74.3076 113.644 74.0625 112.317L76.0227 112.258C76.0547 112.266 76.0846 112.281 76.1101 112.303C76.0951 113.846 76.0752 115.389 76.0698 116.933C76.0698 117.173 75.9642 117.504 76.3669 117.547C76.7837 117.592 76.7978 117.301 76.8295 116.983C76.9867 115.419 77.1588 113.858 77.3278 112.295L77.8234 112.292C77.6875 113.869 77.5656 115.448 77.4007 117.021C77.359 117.417 77.4252 117.569 77.8184 117.563C79.4247 117.538 81.0316 117.528 82.6379 117.513" fill="#C9C9C9"/>
<path d="M126.95 41.5377C126.944 50.1435 126.938 58.7493 126.932 67.3551L114.222 67.3811C114.213 62.3216 114.19 57.2616 114.205 52.2021C114.224 51.394 114.078 50.5908 113.779 49.8452C113.479 49.0995 113.032 48.4282 112.467 47.875C108.067 43.3585 103.71 38.7976 99.3129 34.2788C99.0998 34.1145 98.9541 33.8725 98.9049 33.601C98.8558 33.3296 98.9069 33.0488 99.0479 32.815C101.119 28.0783 103.168 23.3309 105.194 18.5728C105.42 18.0383 105.614 18.0312 106.072 18.2668C109.291 19.9195 112.52 21.5506 115.759 23.1601C116.312 23.4345 116.366 23.6937 116.133 24.2547C115.278 26.3139 114.473 28.3953 113.66 30.4734C113.564 30.7203 113.276 31.0547 113.674 31.2445C114.14 31.4673 114.167 30.9664 114.273 30.7038C115.098 28.6635 115.904 26.6156 116.717 24.5691C117.268 23.1804 117.246 23.1469 115.95 22.4943C112.77 20.8936 109.601 19.2712 106.414 17.6851C105.882 17.4202 105.772 17.1718 106.04 16.6024C106.67 15.259 107.254 13.8906 107.811 12.5123C108.024 11.9853 108.249 11.9546 108.715 12.186C114.209 14.9124 119.71 17.6224 125.22 20.3161C125.77 20.5839 125.76 20.8421 125.57 21.3304C124.923 22.9939 124.307 24.6711 123.681 26.3432C123.043 28.043 122.408 29.7429 121.774 31.4428C121.69 31.669 121.45 31.9443 121.827 32.1265C122.257 32.3343 122.28 31.9301 122.398 31.6812C122.449 31.5745 122.48 31.4574 122.522 31.346C123.734 28.1137 124.947 24.8816 126.159 21.6496C126.293 21.2936 126.367 20.8469 126.91 21.1203C126.92 26.779 126.93 32.4377 126.94 38.0964C126.941 38.9347 126.944 39.773 126.947 40.6113C126.664 40.6453 126.383 40.7029 126.1 40.709C123.835 40.7563 121.57 40.7903 119.305 40.8384C119.047 40.8441 118.657 40.7123 118.66 41.1897C118.664 41.6671 119.057 41.5264 119.311 41.5245C120.774 41.5155 122.237 41.4641 123.7 41.4749C124.784 41.483 125.874 41.2988 126.952 41.5358" fill="#FEFEFE"/>
<path d="M76.1025 10.0898C76.0961 9.13216 76.1066 8.17408 76.0753 7.21743C76.0603 6.76082 76.1981 6.54456 76.6547 6.5795C76.9116 6.59933 77.1716 6.5795 77.4298 6.5795C87.7091 6.5795 97.9883 6.5795 108.267 6.5795C108.669 6.5795 109.07 6.56392 109.472 6.55542C109.639 6.95631 109.345 7.24434 109.214 7.5508C105.592 15.9872 101.964 24.4202 98.3292 32.8497C98.1409 33.2861 97.8111 33.6393 97.3978 33.8475C95.6275 34.8391 93.8581 35.8307 92.1212 36.8818C91.5581 37.2227 91.2954 37.2184 90.9434 36.5838C87.5764 30.4935 84.1892 24.415 80.782 18.3483C79.2359 15.587 77.6626 12.8421 76.1016 10.0898" fill="#FEFEFE"/>
<path d="M76.1234 40.8031C76.1085 40.5953 76.0781 40.3876 76.0781 40.1798C76.0781 30.6246 76.0798 21.0694 76.0831 11.5142C76.1474 11.5689 76.234 11.6086 76.2729 11.6799C81.0071 20.1507 85.742 28.6209 90.4774 37.0908C90.7456 37.5691 90.5979 37.7542 90.1952 37.9761C89.0291 38.6178 87.8826 39.2982 86.7233 39.9555C84.1064 41.4379 81.4879 42.9174 78.8677 44.3941C78.0704 43.0998 77.2944 41.7867 76.1221 40.8055" fill="#FEFEFE"/>
<path d="M120.026 104.231C120.031 104.111 120.037 103.991 120.042 103.872C121.274 102.158 121.521 100.134 121.573 98.1037C121.691 93.4885 120.753 89.0377 119.46 84.652C118.897 82.7439 118.368 80.8249 117.824 78.9107C120.866 78.9314 123.902 78.5801 126.946 78.7298C126.946 86.9341 126.939 95.1384 126.966 103.343C126.968 104.091 126.777 104.312 126.057 104.287C124.048 104.225 122.037 104.243 120.026 104.228" fill="#F1F1F1"/>
<path d="M110.244 6.69143C111.497 6.56106 112.757 6.52839 114.015 6.59369C118.054 6.56819 122.095 6.6088 126.136 6.58377C126.778 6.57999 126.957 6.7547 126.954 7.43135C126.93 11.6721 126.951 15.9128 126.957 20.154C126.654 20.3736 126.408 20.1441 126.164 20.0246C120.464 17.2194 114.772 14.3976 109.064 11.6135C108.454 11.3165 108.429 11.0469 108.683 10.4647C109.279 9.24291 109.8 7.98295 110.244 6.69237" fill="#FEFEFE"/>
<path d="M116.887 117.525C118.794 113.975 119.5 110.086 119.866 106.098C119.904 105.682 119.942 105.265 119.98 104.849C121.958 104.75 123.934 104.797 125.911 104.885C126.349 104.905 126.43 105.121 126.431 105.506C126.439 109.334 126.453 113.163 126.473 116.991C126.476 117.416 126.33 117.565 125.924 117.563C122.912 117.541 119.899 117.536 116.887 117.525" fill="#F1F1F1"/>
<path d="M126.945 68.1371C126.933 70.6409 126.922 73.1446 126.91 75.6482C124.986 75.4433 123.075 75.1092 121.192 74.6481C119.439 74.2184 117.769 73.521 116.047 72.9926L114.371 68.0672C118.052 68.0634 121.733 68.0609 125.414 68.0596C125.926 68.0066 126.442 68.0327 126.946 68.1371" fill="#FEFEFE"/>
<path d="M116.047 72.9916C117.768 73.52 119.439 74.2193 121.192 74.6466C123.075 75.1077 124.985 75.4418 126.91 75.6467C126.915 76.4145 126.921 77.1821 126.926 77.9496L117.642 78.2447C117.142 76.7182 116.641 75.1915 116.14 73.6644C116.11 73.4394 116.079 73.2144 116.047 72.9897" fill="#FEFEFE"/>
<path d="M110.252 6.69153C109.809 7.98206 109.288 9.24203 108.693 10.4639C108.44 11.0442 108.466 11.3138 109.074 11.6127C114.781 14.3986 120.474 17.219 126.174 20.0238C126.418 20.1437 126.664 20.3727 126.967 20.1532C126.951 20.4758 126.935 20.7985 126.919 21.1212C126.375 20.8463 126.301 21.2949 126.168 21.6505L122.53 31.3469C122.488 31.4583 122.457 31.575 122.407 31.6821C122.29 31.931 122.266 32.3356 121.835 32.1274C121.459 31.9451 121.699 31.6699 121.782 31.4437C122.412 29.7413 123.048 28.0414 123.689 26.344C124.316 24.672 124.931 22.9948 125.578 21.3313C125.768 20.843 125.778 20.5852 125.229 20.3175C119.714 17.6314 114.211 14.9213 108.721 12.1873C108.255 11.9564 108.03 11.9871 107.817 12.5136C107.259 13.8919 106.676 15.2603 106.045 16.6037C105.778 17.1737 105.888 17.422 106.42 17.6869C109.606 19.2725 112.776 20.8955 115.955 22.4962C117.251 23.1487 117.273 23.1823 116.723 24.571C115.911 26.617 115.104 28.6653 114.279 30.7057C114.173 30.9682 114.145 31.4687 113.679 31.2463C113.282 31.0574 113.57 30.7227 113.666 30.4752C114.478 28.3976 115.284 26.3157 116.139 24.2565C116.372 23.6955 116.32 23.4363 115.764 23.162C112.524 21.5565 109.295 19.9256 106.078 18.2691C105.62 18.033 105.427 18.0406 105.2 18.5751C103.173 23.3329 101.125 28.0803 99.054 32.8173C98.9131 33.0512 98.8621 33.3319 98.9113 33.6033C98.9604 33.8747 99.106 34.1168 99.319 34.2811C103.716 38.7999 108.073 43.3608 112.473 47.8773C113.038 48.4305 113.485 49.1018 113.785 49.8473C114.084 50.5929 114.229 51.3959 114.211 52.204C114.196 57.2635 114.219 62.3234 114.227 67.3834L114.182 67.4198L113.682 66.5018L113.514 65.8082C113.52 61.0863 113.535 56.3644 113.528 51.6425C113.522 51.0871 113.408 50.5387 113.194 50.0302C112.979 49.5217 112.668 49.0635 112.28 48.6833C110.986 47.3272 109.667 45.997 108.391 44.6225C107.929 44.1248 107.742 44.1725 107.472 44.8033C106.573 46.9032 105.621 48.978 104.689 51.0622L104.191 50.5485C105.1 48.5157 105.985 46.4711 106.93 44.4572C107.098 44.206 107.164 43.897 107.117 43.5954C107.069 43.2938 106.911 43.0232 106.676 42.8409C104.06 40.191 101.474 37.5124 98.9186 34.8052C98.84 34.6865 98.7389 34.586 98.6214 34.5097C98.504 34.4335 98.3728 34.3832 98.236 34.3621C98.0992 34.3409 97.9596 34.3493 97.826 34.3867C97.6925 34.4241 97.5677 34.4897 97.4594 34.5795C93.0512 37.1458 88.6231 39.6744 84.1968 42.2068C82.6162 43.111 82.6112 43.1011 82.8989 44.9303L82.2425 44.9459C82.192 44.451 82.0615 43.9685 81.8565 43.519L79.4778 44.9483C78.9845 44.9483 78.5061 45.2155 78.0028 45.0375L78.8767 44.3954C81.4953 42.9158 84.1139 41.4363 86.7322 39.9568C87.8915 39.3004 89.0376 38.6191 90.2041 37.9774C90.6068 37.7554 90.7545 37.5703 90.4863 37.092C85.7448 28.6266 81.0102 20.1563 76.2823 11.6812C76.2433 11.6113 76.1568 11.5697 76.0925 11.5149C75.9786 11.296 75.9199 11.0505 75.9221 10.8015C75.9242 10.5524 75.9871 10.3081 76.1047 10.0913C77.6658 12.8437 79.2391 15.5885 80.7856 18.3499C84.1847 24.421 87.5717 30.4995 90.9466 36.5854C91.2976 37.2204 91.5604 37.2242 92.1244 36.8833C93.8617 35.8327 95.6311 34.8387 97.401 33.849C97.8142 33.6408 98.1439 33.2875 98.3324 32.8513C101.959 24.4174 105.587 15.9844 109.217 7.55233C109.349 7.24635 109.643 6.95785 109.475 6.55696C109.75 6.50266 110.032 6.40728 110.253 6.69248" fill="#CBCBCB"/>
<path d="M95.917 3.0848C98.4145 3.0848 100.912 3.09047 103.409 3.08103C104.038 3.08103 104.666 3.1443 104.536 3.99896C104.425 4.72897 103.849 4.74833 103.254 4.58778C103 4.5357 102.742 4.51667 102.484 4.53112C97.9773 4.52671 93.4707 4.52561 88.9639 4.52781C88.6498 4.52539 88.3361 4.5521 88.0266 4.60761C87.9355 4.6325 87.8405 4.63701 87.7476 4.62084C87.6548 4.60468 87.5663 4.56822 87.4879 4.51385C87.4096 4.45947 87.3432 4.38843 87.293 4.30538C87.2429 4.22234 87.2102 4.12917 87.1971 4.03201C87.1729 3.94447 87.166 3.85272 87.1768 3.76231C87.1876 3.6719 87.2159 3.58471 87.2599 3.50602C87.304 3.42732 87.3628 3.35875 87.433 3.30445C87.5032 3.25015 87.5832 3.21125 87.6683 3.1901C87.9422 3.10876 88.2267 3.07322 88.5113 3.0848C90.9797 3.07725 93.4491 3.08055 95.917 3.08055V3.0848Z" fill="#CBCBCB"/>
<path d="M111.75 4.52111C110.689 4.52111 109.628 4.50836 108.568 4.52677C108.037 4.53622 107.707 4.27934 107.727 3.75474C107.747 3.28255 108.075 3.06487 108.565 3.06865C110.715 3.08597 112.865 3.08597 115.015 3.06865C115.549 3.06487 115.876 3.31891 115.855 3.83974C115.837 4.31193 115.506 4.53716 115.017 4.52677C113.93 4.50411 112.839 4.51969 111.749 4.52016" fill="#CBCBCB"/>
<path d="M126.944 68.1369C126.44 68.0325 125.924 68.0064 125.412 68.0594C121.731 68.0553 118.05 68.0579 114.369 68.067C114.229 67.8825 114.16 67.6509 114.174 67.4163L114.221 67.3795L126.931 67.3535C126.935 67.6145 126.939 67.8754 126.943 68.1364" fill="#CBCBCB"/>
<path d="M78.8672 44.3926L77.9934 45.0348L76.0586 45.0608C76.0791 43.6411 76.1001 42.2215 76.1216 40.8021C77.2944 41.7852 78.0695 43.0979 78.8672 44.3908" fill="#D3DFDB"/>
<path d="M117.641 78.2471L126.925 77.9515C126.933 78.2106 126.94 78.4697 126.947 78.7288C123.903 78.5786 120.867 78.9304 117.825 78.9096C117.699 78.7149 117.634 78.4836 117.641 78.2485" fill="#C9C9C9"/>
<path d="M126.948 41.5368C125.868 41.3008 124.78 41.484 123.696 41.4759C122.233 41.4651 120.77 41.5165 119.307 41.5255C119.053 41.5255 118.66 41.6714 118.656 41.1907C118.653 40.71 119.043 40.8451 119.301 40.8394C121.566 40.7922 123.831 40.7573 126.096 40.71C126.379 40.7039 126.66 40.6463 126.943 40.6123C126.943 40.9205 126.944 41.2287 126.946 41.5368" fill="#CBCBCB"/>
<path d="M52.352 84.2687C51.0224 84.0057 49.9003 84.5232 48.853 85.2943C46.751 86.8416 44.6568 88.414 42.1598 89.2134C38.451 90.4019 35.179 89.5019 32.3001 86.861C32.2328 86.8057 32.172 86.7423 32.1189 86.6721C30.773 84.654 28.7268 84.3853 26.6167 84.2748C24.947 83.7152 23.2062 83.4195 21.4524 83.3975C21.1462 83.0816 20.5917 83.3503 20.3476 82.8889L17.1484 77.6372C18.6664 77.5796 20.1862 77.6017 21.7021 77.7034C25.2867 77.8285 28.87 77.9985 32.4582 77.9531C33.2269 77.9403 33.9737 77.6842 34.5996 77.2189C38.3777 74.6058 42.2246 74.8551 46.0344 77.1608C46.6461 77.5376 47.3493 77.722 48.0593 77.692C54.1429 77.5844 60.2267 77.4968 66.3109 77.4295C67.192 77.42 68.0713 77.1278 68.9533 77.3979C66.8483 79.0812 65.1729 81.2785 64.0749 83.796C63.5419 83.7211 63.001 83.7306 62.4708 83.8243C62.3382 83.77 62.1995 83.7336 62.0581 83.7162C59.7654 83.7426 57.4687 83.7115 55.1815 83.8437C54.2433 83.898 53.2267 83.6548 52.3529 84.2687" fill="white"/>
<path d="M89.1387 65.5523C76.8644 65.5538 64.5902 65.5559 52.3161 65.5584C52.202 65.5584 52.0896 65.5782 51.9741 65.5891L51.1134 65.6042H50.2527C47.7924 65.5938 45.3321 65.565 42.8723 65.5773C39.3538 65.5952 35.8353 65.6434 32.3173 65.6783L30.7666 65.7255L25.0828 65.8228L22.6764 65.8573C21.4016 65.2491 21.0873 64.2174 21.9847 63.2635C26.2121 58.7726 30.5786 54.4459 35.5871 50.8813C37.6461 49.34 40.0965 48.4681 42.6299 48.3754C47.4771 48.2262 52.3202 47.856 57.1678 47.6539C66.006 47.2809 74.8468 47.0037 83.694 47.1704C85.7602 47.2096 87.8236 47.3697 89.8894 47.4386C90.055 47.421 90.2224 47.4418 90.3795 47.4993C90.5366 47.5569 90.6796 47.6498 90.7983 47.7716C90.917 47.8933 91.0085 48.0409 91.0662 48.2037C91.124 48.3665 91.1466 48.5406 91.1324 48.7135C91.1777 50.0885 91.223 51.4669 91.1868 52.8414C91.1043 56.1302 91.0576 59.427 90.3963 62.6629C90.182 63.7112 89.9695 64.784 89.1405 65.5532M69.0379 63.9511C69.2667 63.9581 69.4959 63.9714 69.7247 63.9714C75.1695 63.9808 80.6145 63.9896 86.0596 63.9978C87.637 64.0006 87.8766 63.8245 88.3537 62.2568C88.423 62.0297 88.4859 61.7993 88.5349 61.5665C89.085 58.6955 89.3173 55.7681 89.2271 52.8419C89.2325 51.9197 89.2443 50.9975 89.2411 50.0753C89.2635 49.9117 89.2503 49.7449 89.2023 49.5874C89.1543 49.4299 89.0729 49.2857 88.9641 49.1655C88.8552 49.0453 88.7218 48.9523 88.5736 48.8933C88.4255 48.8344 88.2666 48.811 88.1086 48.8249C84.9117 48.6602 81.7153 48.5194 78.5135 48.595C73.2133 48.5006 67.9172 48.6734 62.6211 48.8311C59.5307 48.9255 56.4371 48.9392 53.3544 49.2273C50.0502 49.2145 46.7605 49.5795 43.4621 49.6522C41.27 49.7018 39.3928 50.5329 37.5794 51.6741C33.0321 54.5365 29.0316 58.1275 25.1059 61.8201C24.642 62.2564 24.2057 62.7092 24.5351 63.4368C24.8581 64.1508 25.4384 64.292 26.1256 64.1532C26.3254 64.1631 26.526 64.1834 26.7258 64.181C31.9807 64.1203 37.2356 64.0586 42.4904 63.9959C46.0506 63.9586 49.6112 63.9411 53.1719 63.9142C53.3712 63.9284 53.57 63.9563 53.7689 63.9558C58.6333 63.9438 63.4977 63.9301 68.362 63.9147L68.8699 63.9383L69.0375 63.9482" fill="#A4A4A4"/>
<path d="M82.8913 44.927C82.6037 43.0977 82.6087 43.1076 84.1892 42.2034C88.6155 39.6706 93.0437 37.142 97.4519 34.5756C97.5601 34.4859 97.6849 34.4204 97.8185 34.383C97.9521 34.3456 98.0916 34.3373 98.2284 34.3584C98.3652 34.3796 98.4964 34.4298 98.6138 34.506C98.7312 34.5822 98.8324 34.6827 98.911 34.8013C101.467 37.5086 104.053 40.187 106.666 42.8366C106.901 43.0193 107.059 43.2897 107.107 43.5911C107.154 43.8925 107.088 44.2014 106.921 44.4529C105.976 46.4668 105.091 48.5137 104.182 50.5441C102.679 49.2137 101.046 48.0527 99.3083 47.0806C97.1852 45.9671 94.8801 45.2801 92.5132 45.0554C92.4344 44.9747 92.3551 44.8222 92.2776 44.8236C91.4699 44.8373 90.7311 44.7867 90.684 43.6582C90.6781 43.5095 90.481 43.4726 90.3288 43.5029C90.2856 43.5047 90.2434 43.5162 90.2048 43.5365C90.1663 43.5568 90.1323 43.5855 90.1053 43.6206C90.0782 43.6557 90.0587 43.6964 90.0481 43.7401C90.0374 43.7837 90.0358 43.8292 90.0434 43.8735C90.0919 44.2555 90.158 44.6352 90.2174 45.0157L82.8923 44.926" fill="#FEFEFE"/>
<path d="M64.0783 83.7977C65.1763 81.28 66.8517 79.0825 68.9567 77.3991C70.8619 75.9063 73.0319 74.8217 75.3414 74.208C78.1426 73.4661 80.8963 72.5413 83.5861 71.4391C85.9499 70.4612 87.2124 70.7346 88.9855 72.6276C89.2972 73.2896 89.4355 74.0257 89.3864 74.7614C89.1164 75.6441 88.9491 76.5574 88.8881 77.4817C88.716 78.0171 88.5497 78.555 88.3708 79.0871C87.8322 80.6926 86.8564 81.7786 85.1997 82.1653C84.0813 82.425 82.9719 82.7164 81.8371 82.8968C76.097 83.809 70.2714 83.4162 64.5196 84.14C64.2654 84.1717 64.0521 84.1532 64.0761 83.7972M69.2621 78.6867C69.4908 78.9828 69.7418 78.8978 69.9502 78.8827C71.5452 78.767 73.1539 78.7316 74.7312 78.4841C79.189 77.7043 83.5599 76.4581 87.7778 74.7642C88.3037 74.564 88.4573 74.353 87.9712 73.9322C86.7676 72.8863 85.424 72.4548 83.8942 72.9879C82.9718 73.3099 82.0704 73.6961 81.1598 74.055C78.6121 75.0575 75.9503 75.6685 73.3654 76.5439C71.9012 77.0376 70.5171 77.7596 69.2603 78.6853" fill="#D3DFDB"/>
<path d="M107.66 70.0186C106.283 70.4214 104.841 70.3723 103.45 70.6825C101.212 70.5749 98.9654 70.7118 96.7326 70.4842C96.417 69.7846 96.1779 69.0503 96.0195 68.2951C97.1425 68.7324 98.222 68.3424 99.3016 68.086C99.6318 68.0076 99.5842 67.7682 99.3559 67.5666C99.3892 67.2708 99.3607 66.9711 99.2726 66.6878C99.0716 65.6352 98.9871 64.5619 99.0207 63.4892C99.0091 63.3268 99.0285 63.1636 99.0777 63.0091C99.1269 62.8546 99.205 62.7117 99.3075 62.5888C99.41 62.4659 99.5348 62.3653 99.6747 62.293C99.8147 62.2206 99.967 62.1778 100.123 62.1671C101.475 61.9088 102.837 61.7789 104.2 61.6477L104.653 61.6038C106.577 61.9069 108.442 62.3593 109.901 63.8457C110.493 65.0352 111.154 66.2005 111.119 67.6109C111.106 68.2541 110.611 68.5133 110.201 68.8164C109.463 69.3338 108.64 69.7051 107.774 69.9119C107.745 69.9116 107.717 69.9225 107.696 69.9426C107.675 69.9626 107.662 69.9903 107.659 70.0201" fill="black"/>
<path d="M104.684 51.0597C105.616 48.9755 106.568 46.9007 107.466 44.8009C107.738 44.17 107.924 44.1223 108.386 44.62C109.661 45.9941 110.98 47.3242 112.274 48.6808C112.663 49.0611 112.973 49.5192 113.188 50.0277C113.402 50.5363 113.516 51.0846 113.522 51.64C113.529 56.3619 113.515 61.0838 113.508 65.8057C112.238 62.8042 110.796 59.8845 109.192 57.0622C108.953 56.6258 108.673 56.2147 108.358 55.8345C108.363 55.654 108.316 55.4761 108.222 55.3243C108.129 55.1725 107.993 55.054 107.833 54.9846L107.841 54.9959C107.794 54.7351 107.692 54.4886 107.541 54.2751C107.39 54.0615 107.195 53.8864 106.969 53.763L104.684 51.0569" fill="#FEFEFE"/>
<path d="M99.3543 67.5648C99.5831 67.7678 99.6307 68.0072 99.3004 68.0842C98.2209 68.3411 97.1409 68.7301 96.0179 68.2934C95.1858 65.702 94.8084 63.0086 94.3871 60.3266C93.8761 57.0794 93.5382 53.8104 93.2229 50.5353C93.1421 49.881 93.1573 49.2177 93.2682 48.5681C93.602 46.8683 94.6195 46.1316 96.2639 46.4362C97.1082 46.612 97.9276 46.8989 98.7025 47.2899C102.751 49.2212 105.608 52.4467 107.856 56.356C109.403 58.982 110.737 61.7385 111.842 64.5966C111.927 64.7828 112.024 64.9624 112.133 65.134C112.116 65.7634 112.393 66.3291 112.492 66.933L111.116 67.6068C111.152 66.1964 110.491 65.031 109.899 63.8411C108.694 58.062 105.634 53.6059 100.989 50.2846C100.742 50.108 100.458 49.7906 100.156 50.0957C99.897 50.3568 100.138 50.6524 100.286 50.8984C102.274 54.2283 103.457 57.9147 104.65 61.5963L104.197 61.6402C102.84 57.2277 100.899 53.0339 98.4311 49.1796C98.2973 48.9364 98.0984 48.7389 97.8588 48.6114C97.6192 48.4839 97.3491 48.4318 97.0816 48.4614C95.5337 48.5247 94.9805 48.9709 94.7001 50.5693C94.3214 52.7272 94.6317 54.852 95.0517 56.967C95.6406 59.921 96.2327 62.8726 97.4571 65.6335C97.8512 66.5227 98.3518 67.3117 99.352 67.5591" fill="#A4A4A4"/>
<path d="M17.1458 77.6389C18.2119 79.3894 19.2784 81.1397 20.3454 82.8896C18.1982 82.9066 16.0505 82.9241 13.9023 82.942L13.8516 82.8726C13.8703 81.7935 13.889 80.7141 13.9077 79.6343L14.0835 79.6136C15.7773 80.2992 17.3044 81.3862 19.2025 81.9896L18.1991 80.1793C17.2183 78.4109 15.7497 77.1487 14.1913 75.9768C14.1889 75.7983 14.1865 75.6198 14.1841 75.4413C14.2106 75.208 14.2374 74.9748 14.2643 74.7415C15.0788 75.766 15.9962 76.6966 17.0009 77.5175L17.1585 77.6497L17.1458 77.6389Z" fill="#D3DFDB"/>
<path d="M96.7305 70.4841C98.9651 70.7121 101.21 70.5747 103.448 70.6824C102.905 71.2604 102.076 71.2986 101.455 71.4157C100.15 71.6608 98.8623 72.1816 97.4988 72.0617C97.1885 71.5668 96.9316 71.0377 96.7327 70.4841" fill="#74140D"/>
<path d="M79.4648 44.9457L81.8436 43.5164C82.0485 43.966 82.1788 44.4484 82.2291 44.9434C81.3096 45.0228 80.3853 45.0228 79.4658 44.9434" fill="#F2F4F3"/>
<path d="M90.2137 45.0177C90.1549 44.6371 90.0883 44.2575 90.0398 43.8755C90.0323 43.8312 90.0339 43.7857 90.0446 43.7421C90.0553 43.6985 90.0749 43.6578 90.1019 43.6227C90.1289 43.5876 90.1628 43.5589 90.2013 43.5386C90.2398 43.5183 90.2821 43.5067 90.3252 43.5048C90.4774 43.4746 90.674 43.5114 90.6804 43.6602C90.7257 44.7892 91.4663 44.8406 92.274 44.8255C92.3515 44.8255 92.4312 44.9766 92.5096 45.0574C91.7479 45.1836 90.971 45.1702 90.2137 45.0177Z" fill="#C9C9C9"/>
<path d="M112.493 66.9358C112.393 66.3321 112.117 65.7667 112.134 65.1375C112.768 65.4679 112.475 66.1853 112.722 66.6767L112.491 66.9363" fill="#540B07"/>
<path d="M106.973 53.7643C107.198 53.8877 107.393 54.0627 107.544 54.2762C107.695 54.4897 107.797 54.736 107.843 54.9967C107.436 54.6917 107.131 54.2604 106.973 53.7643Z" fill="#60723E"/>
<path d="M107.828 54.9879C107.988 55.0574 108.124 55.1759 108.217 55.3276C108.311 55.4794 108.358 55.6572 108.353 55.8375C108.087 55.6279 107.901 55.3268 107.828 54.9879Z" fill="#60723E"/>
<path d="M17.1533 77.6507L16.9961 77.5189L17.1533 77.6507Z" fill="#74140D"/>
<path d="M13.8656 88.7413C10.6946 90.41 9.15435 93.3886 7.9874 96.6694C7.8293 97.1142 7.66622 97.5566 7.5054 98C7.01299 97.9745 7.10268 98.441 7.01752 98.696C6.39488 100.785 5.13918 102.608 3.43877 103.89C2.40093 104.646 1.18144 104.812 0 105.111C0.0366833 100.723 0.386158 96.3442 1.04554 92.0103C1.5742 88.8235 2.23151 85.6782 3.75361 82.8073C4.0988 82.1552 3.70831 81.3752 4.04942 80.7136C4.07962 80.8377 4.10982 80.9614 4.14002 81.0848C4.05531 81.2736 4.0168 81.4587 4.22156 81.6004L4.21613 81.5952C4.13006 82.6114 4.64875 83.2148 5.48183 83.5978C6.35756 83.9688 7.30129 84.133 8.24516 84.0784C10.1242 84.0312 12.001 83.8896 13.8787 83.7862C13.8748 85.4379 13.8709 87.0905 13.867 88.7442" fill="#CDCDCD"/>
<path d="M0.00142196 105.112C1.18286 104.813 2.40235 104.648 3.44019 103.891C5.14056 102.609 6.39624 100.786 7.01894 98.6969C7.1041 98.4419 7.01441 97.9754 7.50637 98.0009C7.13264 99.774 6.61395 101.53 6.42233 103.324C6.20217 105.385 5.11178 107.046 4.44496 108.896C4.17591 109.488 4.03121 110.134 4.02049 110.79C4.03182 111.006 4.10792 111.271 3.80124 111.395C3.33826 111.584 1.92896 111.1 1.6934 110.618C1.26576 109.744 0.868928 108.854 0.459411 107.97C0.298141 107.018 -0.0388956 106.098 0.00368699 105.112" fill="#CDCDCD"/>
<path d="M14.1883 75.442C14.1907 75.6205 14.1931 75.7991 14.1955 75.9779C13.9237 77.1815 14.0809 78.3993 14.0868 79.6138L13.9115 79.635C13.6936 79.0797 13.1446 78.957 12.7246 78.684C10.9509 77.55 9.2852 76.2419 7.75017 74.7776C7.29263 74.3352 7.32343 74.0301 7.77961 73.6444C8.34976 73.1496 8.98365 72.7407 9.66276 72.4294C10.8823 71.8897 12.0496 72.4082 13.015 73.82C13.3919 74.3715 13.6347 75.0302 14.1878 75.4439" fill="#FEFEFE"/>
<path d="M4.22019 81.5991C4.01551 81.4575 4.054 81.2749 4.13868 81.0842C4.16585 81.256 4.19302 81.4276 4.22019 81.5991Z" fill="#74140D"/>
<path d="M48.1753 109.257C46.1553 109.257 44.6296 109.328 43.1111 109.243C39.4993 109.041 35.8798 109.22 32.2748 109.032C29.5196 108.89 26.7644 109.075 24.0224 108.868C21.8529 108.704 19.6735 108.813 17.5127 108.538C16.7693 108.443 16.2896 108.186 16.131 107.298C15.5801 104.201 14.9237 101.119 14.603 97.9867C14.3643 95.6527 14.068 93.3172 14.0417 90.9605C14.0094 90.7562 14.0524 90.5467 14.1622 90.3741C14.2719 90.2015 14.4402 90.0785 14.6334 90.0299C17.765 88.8834 20.8848 87.7039 24.0142 86.5503C24.7961 86.2623 25.6115 86.0696 26.3857 85.7636C27.703 85.2442 28.9705 85.613 30.2362 85.9369C30.6643 86.0465 30.9067 86.488 31.1989 86.81C32.8668 88.6478 34.7822 90.0525 37.2035 90.5795C39.1536 90.9641 41.169 90.7463 43.002 89.9529C45.0759 89.075 47.0083 87.8704 48.7316 86.3813C49.9628 85.3694 51.1597 85.3774 52.5776 85.6999C56.6415 86.6239 60.6538 87.6963 64.3775 89.6837C66.5139 90.8241 68.5293 92.1996 69.6777 94.4854C70.7811 96.6778 71.7411 98.9454 72.5511 101.273C73.0512 102.699 73.4658 104.157 73.7923 105.637C73.9214 106.233 73.6922 106.4 73.256 106.505C70.2262 107.242 67.2387 108.172 64.161 108.684C63.312 108.807 62.4567 108.877 61.5997 108.892C56.9613 109.072 52.3253 109.344 48.178 109.256M24.0527 92.5631L24.0677 92.5584C23.804 92.5428 23.664 92.7043 23.5241 92.9163C22.6271 94.2607 22.3462 95.6848 23.019 97.218C23.3153 97.9717 23.8243 98.6139 24.4786 99.0593C25.1329 99.5047 25.9016 99.7323 26.6829 99.7121C34.8566 99.7577 43.0305 99.7577 51.2045 99.7121C52.3112 99.7064 53.4057 99.3792 54.0635 98.2648C54.5095 97.9308 54.8321 97.4475 54.9776 96.8955C55.1911 96.2649 55.2561 95.59 55.1671 94.9278C55.0781 94.2655 54.8377 93.6353 54.4663 93.0901C54.0948 92.5449 53.6031 92.1007 53.0325 91.7949C52.462 91.4892 51.8293 91.3308 51.1878 91.3331C43.0337 91.295 34.8796 91.2964 26.7254 91.3373C25.8194 91.3407 24.8853 91.5088 24.2475 92.3445L24.0541 92.5636" fill="white"/>
<path d="M75.2617 106.207C82.0541 106.36 87.4965 103.51 91.8019 98.1302C91.794 98.3801 91.7863 98.6301 91.7788 98.88C91.3975 100.954 91.2267 103.064 91.2691 105.175C91.2777 106.365 91.3394 107.557 90.9258 108.702L89.7185 111.2C89.5593 111.446 89.3392 111.642 89.0817 111.768C88.8242 111.893 88.5388 111.944 88.2557 111.915C85.6546 111.982 83.0548 112.083 80.4545 112.171C79.5764 112.091 78.6919 112.131 77.8239 112.292L77.3283 112.295C76.9206 112.092 76.5179 112.305 76.1125 112.302C76.0871 112.28 76.0571 112.265 76.025 112.258C75.7704 110.241 75.5161 108.224 75.2622 106.207" fill="#CDCDCD"/>
<path d="M13.8672 88.742C13.8711 87.09 13.875 85.4373 13.879 83.784L13.9193 83.7491C15.7118 83.7491 17.5053 83.7774 19.2974 83.734C20.0285 83.7463 20.7565 83.6322 21.4519 83.3964C23.2057 83.4184 24.9464 83.7141 26.6161 84.2737C22.8598 85.3508 19.2158 86.7687 15.5832 88.2226C15.0422 88.4921 14.4625 88.6676 13.8672 88.742Z" fill="#CDCDCD"/>
<path d="M18.5374 116.257C18.5374 116.197 18.5367 116.137 18.5352 116.077C19.4412 115.128 19.7968 113.902 20.1248 112.661C21.8797 112.694 21.8792 112.694 21.3053 114.509C20.973 115.677 20.486 116.791 19.8584 117.819C19.7519 117.983 19.7112 118.237 19.4507 118.203C19.2332 118.175 19.2428 117.952 19.1789 117.796C18.9675 117.283 18.7549 116.77 18.541 116.257" fill="black"/>
<path d="M98.5853 117.526C98.0599 118.206 97.6635 118.998 96.983 119.544C96.7536 118.784 96.4579 118.048 96.0997 117.344C96.1004 117.289 96.0984 117.234 96.0938 117.18C97.2381 116.562 97.8007 115.433 98.2913 114.3C99.8134 110.774 100.108 107.033 99.8247 103.24C99.6304 100.638 99.1095 98.0931 97.8238 95.794C97.3908 95.0196 96.9301 94.2566 96.1024 93.8581C96.0956 93.7872 96.0884 93.7164 96.082 93.6456C96.3756 93.3245 96.3575 92.8849 96.4938 92.5048C96.5939 92.2257 96.5341 91.7653 96.9468 91.7332C97.2531 91.7096 97.3962 92.0538 97.581 92.272C98.2605 93.0719 98.6139 94.1097 99.3346 94.8789C99.4279 95.1892 99.4981 95.5093 99.6177 95.8082C100.922 99.0622 101.584 102.557 101.566 106.083C101.52 107.629 101.37 109.17 101.117 110.693C101.091 110.876 101.066 111.059 101.04 111.242C100.987 111.459 100.935 111.675 100.882 111.892C100.333 113.859 99.562 115.751 98.5844 117.528" fill="black"/>
<path d="M77.82 112.292C78.688 112.131 79.5725 112.091 80.4506 112.171C80.9359 114.049 81.671 115.848 82.6346 117.513C81.0282 117.528 79.4214 117.538 77.815 117.563C77.4223 117.569 77.3561 117.417 77.3974 117.022C77.5623 115.448 77.6832 113.869 77.82 112.293" fill="#F1F1F1"/>
<path d="M74.168 45.0956L76.0598 45.0611L77.9946 45.0347C78.4978 45.2131 78.9762 44.9459 79.4696 44.9459C80.3891 45.0254 81.3134 45.0254 82.2329 44.9459L82.8893 44.9303L90.2144 45.02C90.9716 45.1724 91.7486 45.1857 92.5102 45.0592C94.8771 45.2842 97.1822 45.9714 99.3053 47.0849C101.043 48.0569 102.676 49.2179 104.179 50.5484L104.677 51.0621L106.963 53.7683C107.122 54.2645 107.426 54.696 107.834 55.0011L107.826 54.9898C107.899 55.3289 108.085 55.6301 108.351 55.8398C108.667 56.2199 108.946 56.6311 109.185 57.0675C110.79 59.8899 112.231 62.8098 113.502 65.8115C113.557 66.0425 113.613 66.2737 113.669 66.5051C113.352 66.5485 113.059 66.7539 112.721 66.6831C112.471 66.1916 112.766 65.4743 112.132 65.1433C112.023 64.9719 111.926 64.7925 111.841 64.6064C110.736 61.7484 109.402 58.9919 107.855 56.3658C105.607 52.4546 102.75 49.2291 98.7015 47.2997C97.9257 46.9087 97.1054 46.6219 96.2602 46.4465C94.6158 46.1419 93.5984 46.8804 93.2645 48.5784C93.1535 49.2278 93.1382 49.891 93.2192 50.5451C93.5363 53.8183 93.872 57.0887 94.3834 60.3364C94.8056 63.018 95.183 65.7118 96.0142 68.3027C96.173 69.0579 96.4123 69.7921 96.7277 70.4918C96.9265 71.0455 97.1834 71.5745 97.4938 72.0694C96.185 72.5175 94.8129 72.4986 93.4665 72.593C91.9766 72.6974 90.4767 72.628 88.9818 72.6346C87.2092 70.742 85.9466 70.4686 83.5824 71.4461C80.8926 72.5484 78.1389 73.4732 75.3377 74.215C73.0286 74.8285 70.859 75.913 68.9544 77.4056C68.071 77.136 67.1917 77.4282 66.3106 77.4377C60.2265 77.5032 54.1426 77.5907 48.059 77.7002C47.349 77.7302 46.6459 77.5457 46.0341 77.169C42.2243 74.8628 38.3783 74.6135 34.5993 77.2266C33.9735 77.692 33.2267 77.9481 32.458 77.9609C28.8697 78.0081 25.2864 77.8362 21.7018 77.7111C20.1858 77.6094 18.6658 77.5873 17.1477 77.645L17.1608 77.6582L17.0032 77.5265C15.9989 76.7053 15.0818 75.7745 14.2675 74.75C14.2633 74.6716 14.2587 74.5929 14.2539 74.5139C14.5071 73.9614 14.3137 73.3547 14.446 72.7871C15.5332 72.823 16.6168 72.6714 17.6981 72.6412C20.3283 72.5671 22.953 72.4207 25.5804 72.2762C28.2917 72.127 31.007 72.0453 33.72 71.922C36.2327 71.8078 38.7449 71.6877 41.2567 71.5618C44.0259 71.4258 46.7979 71.3257 49.5684 71.2024C52.0237 71.0919 54.4781 70.9484 56.9325 70.8488C59.7321 70.7345 62.5308 70.607 65.3303 70.4833C67.8717 70.3714 70.4126 70.2189 72.9531 70.132C76.0403 70.0262 79.1239 69.7948 82.2116 69.7632C83.6458 69.7486 85.0624 69.4799 86.4966 69.554C86.6391 69.5716 86.7833 69.542 86.9088 69.4695C87.9161 68.7797 88.7316 67.8259 89.2735 66.7039C89.3874 66.5285 89.4369 66.3163 89.4129 66.106C89.389 65.8957 89.2932 65.7015 89.143 65.5588C89.972 64.7896 90.185 63.7173 90.3988 62.6686C91.0602 59.4317 91.1068 56.1349 91.1893 52.847C91.2237 51.4725 91.1789 50.0946 91.1349 48.7192C91.1491 48.5462 91.1265 48.3721 91.0687 48.2093C91.011 48.0465 90.9195 47.899 90.8008 47.7772C90.6821 47.6555 90.5391 47.5625 90.382 47.5049C90.2249 47.4474 90.0575 47.4267 89.8919 47.4442C87.8261 47.3753 85.7627 47.2148 83.6965 47.176C74.8493 47.0094 66.008 47.2865 57.1703 47.6596C52.3232 47.864 47.481 48.2319 42.6325 48.3811C40.0991 48.4738 37.6486 49.3457 35.5896 50.887C30.5811 54.4515 26.2124 58.7782 21.9872 63.2692C21.0893 64.223 21.4042 65.2524 22.6789 65.8629C22.5969 66.176 22.3518 66.1462 22.1244 66.1462C20.2381 66.1365 18.3516 66.1258 16.465 66.1141L19.5341 63.1195C20.9167 62.1388 22.0483 60.853 23.3072 59.7226C25.4151 57.8291 27.4237 55.8062 29.609 54.0171C32.0217 52.0415 34.275 49.8354 36.993 48.2734C38.1853 47.5892 39.451 47.525 40.7271 47.3819C45.1467 46.8866 49.5684 46.4177 54.0106 46.1892C54.5144 46.2827 55.0232 46.345 55.5341 46.3757C60.9765 46.3894 66.4189 46.3757 71.8613 46.3908C72.8185 46.3908 73.5297 46.0602 73.8899 45.0904L74.1712 45.1022" fill="#CDCDCD"/>
<path d="M14.442 72.7825C14.6284 71.0426 14.8147 69.3026 15.001 67.5624C15.4121 67.0019 15.904 66.5111 16.4593 66.1076C18.3459 66.1183 20.2324 66.129 22.1187 66.1397C22.3452 66.1397 22.5912 66.1704 22.6731 65.8564L25.0795 65.8219C25.0887 65.9118 25.131 65.9944 25.1975 66.0524C25.264 66.1104 25.3496 66.1391 25.436 66.1326C27.0669 66.1345 28.6962 66.1359 30.324 66.1369C30.5958 66.1369 30.7584 66.0255 30.7634 65.7242L32.314 65.677C32.3181 66.0868 32.5519 66.262 32.8631 66.0628C33.0877 65.9479 33.3414 65.9102 33.5879 65.9551C38.9182 65.9582 44.2486 65.9582 49.579 65.9551C49.8508 65.9551 50.1838 66.0458 50.2481 65.6024H51.1088C51.4051 66.1605 51.6927 66.169 51.9695 65.5873C52.0837 65.5769 52.196 65.557 52.3115 65.557C64.5856 65.5539 76.8598 65.5518 89.1341 65.5509C89.2842 65.6936 89.38 65.8878 89.404 66.0981C89.428 66.3084 89.3785 66.5206 89.2646 66.696C88.7226 67.818 87.9072 68.7718 86.8999 69.4616C86.7746 69.5342 86.6305 69.5637 86.4881 69.5461C85.0539 69.4696 83.6373 69.7406 82.2031 69.7553C79.1154 69.7869 76.0323 70.0183 72.9446 70.1241C70.4041 70.2109 67.8632 70.3634 65.3218 70.4754C62.5227 70.5986 59.7241 70.7266 56.924 70.8408C54.4696 70.9409 52.0153 71.084 49.56 71.1945C46.7894 71.3192 44.0179 71.4178 41.2482 71.5543C38.7361 71.678 36.2239 71.7981 33.7115 71.9146C30.9985 72.0378 28.2832 72.12 25.5719 72.2687C22.9445 72.4132 20.3207 72.5596 17.6896 72.6337C16.6083 72.664 15.5261 72.8155 14.4375 72.7796" fill="#CDCDCD"/>
<path d="M89.3775 74.7615C89.4265 74.026 89.2882 73.29 88.9766 72.6281C90.4715 72.6215 91.9737 72.6914 93.4613 72.5866C94.8081 72.4921 96.1794 72.511 97.489 72.0629C98.853 72.1828 100.14 71.662 101.445 71.417C102.068 71.3003 102.895 71.2616 103.441 70.6836C104.831 70.3734 106.274 70.4225 107.651 70.0197C107.679 70.0185 107.706 70.007 107.727 69.9872C107.748 69.9675 107.761 69.9407 107.765 69.9116C108.632 69.7049 109.455 69.3335 110.193 68.8161C110.603 68.513 111.099 68.2542 111.111 67.6106L112.487 66.9368L112.719 66.6776C113.057 66.7484 113.348 66.5435 113.667 66.4996C113.834 66.8056 114 67.1115 114.166 67.4175C114.151 67.6521 114.221 67.884 114.36 68.0687C114.92 69.7103 115.478 71.3521 116.036 72.9941C116.067 73.2191 116.098 73.4441 116.13 73.6688C115.608 73.6853 115.384 74.1821 115.018 74.4427C113.477 75.542 111.689 75.932 109.94 76.4363L108.835 72.7721C108.68 72.0122 108.391 71.2888 107.983 70.6388L107.941 70.4707L107.876 70.5217L107.993 70.6293C108.081 71.3731 108.275 72.099 108.569 72.783L109.333 76.3816C107.323 77.0823 105.211 77.078 103.157 77.0426C100.194 76.9951 97.2422 76.6507 94.3424 76.0142C92.6763 75.644 90.958 75.4853 89.3729 74.7634" fill="#CDCDCD"/>
<path d="M89.3782 74.7599C90.9637 75.4824 92.6815 75.641 94.3476 76.0107C97.2474 76.6472 100.199 76.9916 103.162 77.0392C105.218 77.077 107.33 77.0812 109.338 76.3781C110.392 82.104 110.67 87.9558 110.163 93.7622C110.004 96.262 109.702 98.7498 109.26 101.212C106.941 100.583 104.755 99.5091 102.813 98.045C101.556 97.0744 100.41 95.9577 99.395 94.7165C99.2541 92.9637 99.1799 91.2034 98.8741 89.4681C98.7388 88.5541 98.5129 87.6572 98.2 86.7918C97.487 84.9729 96.5171 84.8312 95.3483 86.3918C95.1355 86.6717 94.9593 86.9797 94.8242 87.3079C93.9698 89.424 93.2681 91.6037 92.725 93.8288C92.4154 95.2624 92.1059 96.6958 91.7963 98.129C87.4928 103.509 82.0485 106.359 75.2562 106.206C74.4906 101.673 72.6908 97.5393 70.688 93.4954C69.7666 91.6345 68.1965 90.3743 66.5045 89.3317C62.1235 86.6341 57.3135 85.2066 52.3477 84.2684C53.2215 83.6545 54.238 83.8977 55.1762 83.8434C57.4639 83.7112 59.7602 83.7424 62.0528 83.7159C62.1943 83.7333 62.333 83.7695 62.4655 83.8236C62.6871 84.4757 63.252 84.5319 63.7829 84.6428C65.753 85.0555 67.724 84.666 69.6842 84.5777C72.1621 84.4662 74.6301 84.1267 77.1058 83.9346C79.7254 83.7557 82.3312 83.4012 84.907 82.8731C87.5254 82.3121 88.6751 80.047 88.883 77.4792C88.944 76.555 89.1113 75.6417 89.3813 74.759" fill="#CDCDCD"/>
<path d="M109.944 76.4358C111.694 75.9319 113.477 75.5414 115.022 74.4422C115.388 74.1811 115.611 73.6867 116.134 73.6683L117.636 78.2485C117.629 78.4835 117.693 78.7148 117.82 78.9096C118.363 80.8233 118.893 82.7423 119.456 84.6509C120.748 89.0357 121.686 93.4875 121.568 98.1026C121.517 100.133 121.27 102.157 120.037 103.87C120.048 102.737 120.058 101.605 120.068 100.474C120.188 99.0792 120.216 97.6769 120.151 96.2776C120.074 93.8411 120.162 91.3853 119.563 88.9946C119.449 88.5422 119.363 87.9624 118.831 87.8982C118.347 87.8396 118.151 88.3515 117.944 88.7382C117.443 89.3721 117.098 90.1241 116.94 90.9287C116.37 92.0128 116.032 93.2124 115.948 94.4455C115.892 94.9352 115.495 95.4522 115.91 95.9631C115.703 96.9787 115.611 98.0162 115.638 99.0541C115.693 100.181 115.625 101.311 115.437 102.422C115.124 102.422 114.815 102.375 114.505 102.346C112.887 102.205 111.328 101.703 109.719 101.52C109.743 101.314 109.751 101.104 109.794 100.901C110.657 96.8408 111.118 92.6988 111.172 88.5403C111.215 84.47 110.804 80.4083 109.948 76.4367" fill="#3070EE"/>
<path d="M115.917 95.9624C115.499 95.4515 115.899 94.9344 115.954 94.4448C116.038 93.2117 116.377 92.012 116.947 90.9279C117.86 92.1646 118.062 93.6704 118.275 95.1276C119.119 100.474 119.018 105.936 117.975 111.245C117.802 112 117.565 112.737 117.265 113.448C117.071 113.936 116.816 114.479 116.201 114.486C115.585 114.494 115.336 113.958 115.118 113.473C114.57 112.124 114.204 110.703 114.03 109.249C113.985 108.961 114.051 108.643 113.73 108.316C112.775 109.827 111.208 109.575 109.789 109.78C109.024 109.889 108.252 109.953 107.484 110.037L101.122 110.691C101.375 109.167 101.525 107.627 101.57 106.081C101.589 102.554 100.927 99.0598 99.6225 95.8056C99.5029 95.5072 99.4327 95.1866 99.3398 94.8764C99.3589 94.8232 99.3785 94.7701 99.3987 94.7172C100.413 95.9584 101.56 97.075 102.817 98.0457C104.758 99.5098 106.944 100.584 109.263 101.213C109.077 102.445 108.892 103.678 108.707 104.91L108.81 104.93L109.722 101.52C111.332 101.702 112.891 102.203 114.509 102.346C114.818 102.373 115.128 102.424 115.441 102.422C115.439 102.779 115.416 103.135 115.371 103.489C114.975 105.607 115.393 107.644 115.943 109.659C116.086 110.179 116.228 110.899 116.889 110.89C117.541 110.881 117.652 110.163 117.826 109.645C118.347 107.872 118.608 106.029 118.602 104.175C118.702 101.454 118.617 98.7417 117.85 96.1083C117.688 95.553 117.561 94.8018 116.898 94.7555C116.236 94.7092 116.197 95.511 115.914 95.9633" fill="#CDCDCD"/>
<path d="M98.5977 117.526C99.5752 115.749 100.346 113.857 100.895 111.89C103.254 112.053 105.622 112.029 107.974 112.308C108.425 114.126 109.089 115.88 109.952 117.528H98.5977" fill="#F1F1F1"/>
<path d="M117.95 88.7369C118.158 88.3502 118.352 87.8397 118.837 87.8969C119.369 87.9616 119.455 88.5409 119.568 88.9933C120.168 91.384 120.08 93.8398 120.157 96.2763C120.222 97.6756 120.194 99.0779 120.073 100.473C119.827 100.275 119.892 99.9892 119.888 99.7285C119.859 96.1252 119.23 92.5546 118.028 89.176C117.989 89.0324 117.963 88.8854 117.949 88.7369" fill="black"/>
<path d="M101.12 110.691L107.482 110.037C107.574 110.541 107.666 111.045 107.758 111.548L101.043 111.239C101.069 111.056 101.094 110.873 101.12 110.691" fill="#F1F1F1"/>
<path d="M101.041 111.238L107.757 111.548L107.962 112.308C105.61 112.028 103.242 112.052 100.883 111.889C100.936 111.672 100.988 111.455 101.041 111.238" fill="#C9C9C9"/>
<path d="M76.1097 112.301C76.5151 112.305 76.9197 112.092 77.3256 112.295C77.1589 113.857 76.9867 115.418 76.8273 116.982C76.7956 117.3 76.782 117.591 76.3647 117.546C75.962 117.502 76.0667 117.172 76.0676 116.932C76.073 115.388 76.0925 113.845 76.1074 112.302" fill="#F1F1F1"/>
<path d="M88.8823 77.4805C88.6744 80.0482 87.5233 82.3129 84.9063 82.8743C82.3305 83.4025 79.7247 83.7571 77.1051 83.9358C74.6294 84.1275 72.1614 84.4675 69.6835 84.5789C67.7215 84.6672 65.7523 85.0572 63.7822 84.6445C63.2508 84.5331 62.6868 84.4774 62.4648 83.8253C62.9953 83.7317 63.5363 83.7223 64.0694 83.7974C64.0449 84.1534 64.2588 84.1719 64.5124 84.1402C70.2656 83.4159 76.0904 83.8097 81.8304 82.897C82.9629 82.7166 84.0746 82.4248 85.1926 82.1655C86.8506 81.7802 87.8264 80.6928 88.3637 79.0873C88.5449 78.5542 88.7088 78.0164 88.881 77.4819" fill="white"/>
<path d="M13.875 83.7855C11.9973 83.8885 10.1205 84.0311 8.24146 84.0774C7.29759 84.1319 6.35385 83.9677 5.47812 83.5967C4.64459 83.2137 4.12636 82.6103 4.21243 81.5941C5.46589 83.4158 7.3581 83.193 9.13479 83.1845C10.7063 83.1769 12.2768 82.9828 13.8461 82.8709L13.8968 82.9399C13.9019 83.2096 13.9072 83.4796 13.9126 83.7497L13.875 83.7855Z" fill="white"/>
<path d="M21.4503 83.3978C20.755 83.6335 20.027 83.7476 19.2958 83.7354C17.5037 83.7789 15.7103 83.7501 13.9177 83.7505C13.9126 83.4801 13.9075 83.21 13.9023 82.9403L20.3464 82.8883C20.5905 83.3496 21.1446 83.0819 21.4508 83.3978" fill="#F6F6F6"/>
<path d="M53.3621 49.2277C56.4448 48.9397 59.5388 48.925 62.6288 48.832C67.9249 48.6724 73.2214 48.4987 78.5211 48.5959C78.46 48.6904 78.4188 48.8207 78.334 48.8698C76.1419 50.148 73.9431 51.414 71.7501 52.6898C65.8124 56.1444 59.8771 59.6031 53.9442 63.0662C53.6171 63.255 53.1682 63.3778 53.1791 63.9189C49.6185 63.9454 46.0583 63.9633 42.4977 64.0006C37.2428 64.0557 31.9879 64.1174 26.733 64.1857C26.5333 64.1857 26.333 64.1678 26.1328 64.1579C26.217 64.0789 26.308 64.008 26.4046 63.9463C29.0321 62.5647 31.6717 61.2076 34.2869 59.8029C37.5386 58.0558 40.7649 56.2525 44.0116 54.4978C46.8805 52.9481 49.7675 51.4352 52.6405 49.8949C52.9254 49.7419 53.3381 49.7061 53.3653 49.2301" fill="#F6F6F6"/>
<path d="M53.1723 63.9146C53.1615 63.3735 53.6099 63.2536 53.9375 63.0614C59.8688 59.5955 65.8041 56.1367 71.7433 52.685C73.9368 51.4101 76.1375 50.1433 78.3273 48.865C78.412 48.8178 78.4528 48.6842 78.5144 48.5912C81.7162 48.5161 84.9131 48.6563 88.1095 48.8211C88.2675 48.8072 88.4265 48.8305 88.5746 48.8895C88.7227 48.9485 88.8562 49.0415 88.965 49.1617C89.0738 49.2818 89.1553 49.4261 89.2032 49.5836C89.2512 49.7411 89.2645 49.9079 89.242 50.0715C89.2456 50.9937 89.2334 51.9158 89.228 52.838C88.8073 52.9354 88.4078 53.1139 88.0502 53.3645C82.1316 56.5674 76.2054 59.7556 70.3172 63.018C69.6753 63.374 68.9365 63.4429 68.3621 63.9151C63.4977 63.9296 58.6333 63.9433 53.7689 63.9562C53.5696 63.9562 53.3707 63.9293 53.1719 63.9151" fill="#F6F6F6"/>
<path d="M53.356 49.2285C53.3302 49.7007 52.9175 49.7404 52.6312 49.8934C49.7582 51.4341 46.8712 52.9465 44.0023 54.4963C40.7538 56.2509 37.5289 58.0528 34.2776 59.8013C31.6624 61.2075 29.0228 62.5631 26.3953 63.9448C26.2987 64.0065 26.2077 64.0773 26.1235 64.1563C25.4363 64.2951 24.8551 64.1535 24.533 63.44C24.2037 62.7128 24.6399 62.2595 25.1043 61.8232C29.0296 58.1307 33.0319 54.5397 37.5773 51.6773C39.3893 50.536 41.268 49.705 43.4601 49.6554C46.7584 49.5808 50.0481 49.2158 53.3524 49.2304" fill="#F6F6F6"/>
<path d="M68.3672 63.9166C68.9411 63.4444 69.6809 63.3755 70.3224 63.0195C76.2114 59.7576 82.1368 56.5694 88.0553 53.366C88.4129 53.1155 88.8124 52.9369 89.2331 52.8395C89.3233 55.7658 89.0911 58.6931 88.5409 61.5642C88.492 61.797 88.429 62.0274 88.3597 62.255C87.8827 63.8227 87.6426 63.9993 86.0652 63.996C80.6204 63.9856 75.1754 63.9768 69.7303 63.9695C69.5015 63.9695 69.2723 63.9563 69.0435 63.9492C68.9919 63.8656 68.9366 63.8519 68.8759 63.9393L68.3681 63.9157" fill="#F6F6F6"/>
<path d="M68.8711 63.9406C68.9316 63.8535 68.9872 63.8672 69.0382 63.9505L68.8711 63.9406Z" fill="#B6CDC3"/>
<path d="M69.2578 78.6861C70.5146 77.7602 71.8987 77.0381 73.3629 76.5442C75.9451 75.6692 78.6097 75.0578 81.1574 74.0553C82.0679 73.6969 82.9694 73.3102 83.8917 72.9882C85.4202 72.4541 86.7638 72.8857 87.9688 73.9325C88.4526 74.3533 88.3013 74.5638 87.7753 74.7645C83.5575 76.4583 79.1865 77.7046 74.7288 78.4844C73.1514 78.7319 71.5432 78.7678 69.9477 78.883C69.7393 78.8981 69.4884 78.9831 69.2596 78.687" fill="#FEFEFE"/>
<path d="M109.716 101.52L108.803 104.93L108.7 104.91C108.885 103.678 109.071 102.446 109.256 101.213C109.699 98.7507 110.001 96.2629 110.162 93.763C110.668 87.9574 110.391 82.1065 109.338 76.3813C109.083 75.1819 108.829 73.9824 108.574 72.7827L108.84 72.7719L109.945 76.436C110.801 80.4076 111.212 84.4694 111.169 88.5397C111.115 92.6982 110.654 96.8401 109.791 100.901C109.749 101.103 109.74 101.313 109.716 101.52" fill="#74140D"/>
<path d="M108.848 72.7712L108.582 72.782C108.288 72.0984 108.094 71.3727 108.006 70.6292L107.996 70.6386C108.404 71.2884 108.693 72.0115 108.847 72.7712" fill="#3070EE"/>
<path d="M108 70.6296L107.883 70.5222L107.948 70.4714L107.99 70.639L108 70.6296Z" fill="#3070EE"/>
<path d="M107.66 70.0194C107.663 69.9895 107.676 69.9616 107.697 69.9414C107.719 69.9212 107.747 69.9102 107.776 69.9105C107.771 69.9398 107.758 69.9667 107.737 69.9866C107.716 70.0065 107.689 70.0181 107.66 70.0194Z" fill="#3070EE"/>
<path d="M99.3542 67.5658C98.3539 67.3183 97.8533 66.5269 97.4592 65.6402C96.2361 62.8793 95.6409 59.9267 95.0538 56.9736C94.6334 54.8582 94.3235 52.7338 94.7022 50.5759C94.9826 48.978 95.5362 48.5313 97.0837 48.4681C97.3512 48.4384 97.6213 48.4905 97.8609 48.618C98.1005 48.7456 98.2994 48.943 98.4332 49.1863C100.901 53.0405 102.842 57.2344 104.2 61.6469C102.835 61.7762 101.473 61.9056 100.122 62.1663C99.9666 62.1769 99.8142 62.2197 99.6742 62.292C99.5343 62.3644 99.4095 62.4649 99.307 62.5879C99.2045 62.7108 99.1264 62.8537 99.0772 63.0082C99.028 63.1628 99.0087 63.326 99.0203 63.4884C98.9866 64.5611 99.0711 65.6344 99.2722 66.687C99.3604 66.9702 99.3889 67.27 99.3555 67.5658" fill="#F6F6F6"/>
<path d="M104.652 61.6014C103.459 57.9183 102.276 54.2353 100.288 50.9035C100.14 50.6556 99.8986 50.3605 100.157 50.1008C100.46 49.7948 100.743 50.1121 100.99 50.2897C105.635 53.611 108.696 58.0671 109.9 63.8462C108.441 62.3602 106.576 61.9074 104.652 61.6043" fill="#F6F6F6"/>
<path d="M14.0782 79.6126C14.0723 78.4 13.9142 77.1822 14.187 75.9767C15.7448 77.1464 17.2135 78.408 18.1947 80.1764C18.5036 80.734 18.8135 81.2912 19.1999 81.9868C17.2973 81.3833 15.7729 80.2963 14.0787 79.6107" fill="#FEFEFE"/>
<path d="M64.4041 44.1864C64.5493 43.881 64.7134 43.5858 64.8952 43.3025C65.1605 43.0092 65.3094 42.622 65.3116 42.2189C65.3139 41.8158 65.1694 41.4269 64.9074 41.1304C64.7602 40.9231 64.3466 40.5557 64.7321 40.3423C64.8218 40.2768 64.925 40.234 65.0334 40.2174C65.1418 40.2007 65.2524 40.2106 65.3565 40.2462C65.4605 40.2819 65.5552 40.3423 65.6329 40.4228C65.7107 40.5032 65.7694 40.6015 65.8044 40.7097C65.8872 40.9092 65.9801 41.104 66.0825 41.2933C66.4399 40.6426 66.7276 39.9022 67.7169 40.4566C66.5418 41.6338 66.7656 42.8888 67.7881 44.0707C66.7135 44.5514 66.3874 43.8672 66.1237 43.0683C65.9015 43.5527 65.5187 43.937 65.046 44.1504C64.5733 44.3638 64.0425 44.3918 63.5516 44.2294C63.4531 44.2128 63.3627 44.1628 63.2943 44.0871C63.2259 44.0115 63.1834 43.9144 63.1733 43.811C63.1685 43.7366 63.149 43.664 63.116 43.5978C63.0831 43.5316 63.0374 43.4732 62.9819 43.4262C62.9263 43.3792 62.8621 43.3446 62.7931 43.3246C62.7242 43.3046 62.6521 43.2997 62.5812 43.31C62.2392 43.3147 62.0376 43.4238 61.9842 43.7931C61.8994 44.3961 61.4428 44.2686 61.1139 44.1874C60.7185 44.0906 60.9572 43.7388 61.0134 43.5192C61.2421 42.622 61.5312 41.7442 61.7409 40.8443C61.8564 40.3499 62.1182 40.2573 62.545 40.2724C62.9613 40.2871 63.3038 40.2611 63.4419 40.8339C63.6992 41.8991 64.0417 42.9422 64.4041 44.1864ZM62.5971 41.3377C62.5214 41.4101 62.461 41.4982 62.4199 41.5963C62.3788 41.6945 62.3578 41.8005 62.3583 41.9076C62.3339 42.1012 62.2016 42.3288 62.4077 42.4861C62.4548 42.514 62.5076 42.53 62.5618 42.5327C62.6159 42.5354 62.6699 42.5248 62.7194 42.5016C62.9459 42.3557 62.8177 42.1286 62.7787 41.9378C62.728 41.7348 62.6675 41.5345 62.5975 41.3377" fill="#C9C9C9"/>
<path d="M64.4041 44.1864C64.5493 43.881 64.7134 43.5858 64.8952 43.3025C65.1605 43.0092 65.3094 42.622 65.3116 42.2189C65.3139 41.8158 65.1694 41.4269 64.9074 41.1304C64.7602 40.9231 64.3466 40.5557 64.7321 40.3423C64.8218 40.2768 64.925 40.234 65.0334 40.2174C65.1418 40.2007 65.2524 40.2106 65.3565 40.2462C65.4605 40.2819 65.5552 40.3423 65.633 40.4228C65.7107 40.5032 65.7694 40.6015 65.8044 40.7097C65.8872 40.9092 65.9801 41.104 66.0825 41.2933C66.4399 40.6426 66.7276 39.9022 67.7169 40.4566C66.5418 41.6338 66.7656 42.8888 67.7881 44.0707C66.7135 44.5514 66.3874 43.8672 66.1237 43.0683C65.9015 43.5527 65.5187 43.937 65.046 44.1504C64.5733 44.3638 64.0425 44.3918 63.5516 44.2294C63.4531 44.2128 63.3627 44.1628 63.2943 44.0871C63.2259 44.0115 63.1834 43.9144 63.1733 43.811C63.1685 43.7366 63.149 43.664 63.116 43.5978C63.0831 43.5316 63.0374 43.4732 62.9819 43.4262C62.9263 43.3792 62.8621 43.3446 62.7931 43.3246C62.7242 43.3046 62.6521 43.2997 62.5812 43.31C62.2392 43.3147 62.0376 43.4238 61.9842 43.7931C61.8994 44.3961 61.4428 44.2686 61.1139 44.1874C60.7185 44.0906 60.9572 43.7388 61.0134 43.5192C61.2421 42.622 61.5312 41.7442 61.7409 40.8443C61.8564 40.3499 62.1182 40.2573 62.545 40.2724C62.9613 40.2871 63.3038 40.2611 63.4419 40.8339C63.6992 41.8991 64.0417 42.9422 64.4041 44.1864M62.5971 41.3377C62.5214 41.4101 62.461 41.4982 62.4199 41.5963C62.3788 41.6945 62.3578 41.8005 62.3583 41.9076C62.3339 42.1012 62.2016 42.3288 62.4077 42.4861C62.4548 42.514 62.5076 42.53 62.5618 42.5327C62.6159 42.5354 62.6699 42.5248 62.7194 42.5016C62.9459 42.3557 62.8177 42.1286 62.7787 41.9378C62.728 41.7348 62.6675 41.5345 62.5975 41.3377" stroke="#C9C9C9" stroke-width="0.666601"/>
<path d="M59.5944 40.283C59.9093 40.283 60.2241 40.2863 60.5385 40.283C60.8153 40.2787 61.0536 40.2971 61.0617 40.6895C61.068 41.0168 60.9752 41.2255 60.6304 41.1768C60.0674 41.098 60.0461 41.4498 60.0601 41.8851C60.0791 42.481 60.0461 43.0788 60.0705 43.6738C60.0882 44.1044 59.9296 44.2461 59.5219 44.2404C59.1387 44.2338 59.0268 44.0704 59.0368 43.7002C59.0535 43.0746 59.0241 42.4475 59.0463 41.8218C59.0612 41.3969 58.9874 41.1136 58.495 41.1811C58.1579 41.2259 58.0447 41.0394 58.051 40.7051C58.0583 40.3226 58.2775 40.2801 58.5652 40.2863C58.9081 40.2934 59.2515 40.2863 59.5949 40.2863" fill="#C9C9C9"/>
<path d="M59.5944 40.283C59.9093 40.283 60.2241 40.2863 60.5385 40.283C60.8153 40.2787 61.0536 40.2971 61.0617 40.6895C61.068 41.0168 60.9752 41.2255 60.6304 41.1768C60.0674 41.098 60.0461 41.4498 60.0601 41.8851C60.0791 42.481 60.0461 43.0788 60.0705 43.6738C60.0882 44.1044 59.9296 44.2461 59.5219 44.2404C59.1387 44.2338 59.0268 44.0704 59.0368 43.7002C59.0535 43.0746 59.0241 42.4475 59.0463 41.8218C59.0612 41.3969 58.9874 41.1136 58.495 41.1811C58.1579 41.2259 58.0447 41.0394 58.051 40.7051C58.0583 40.3226 58.2775 40.2801 58.5652 40.2863C58.9081 40.2934 59.2515 40.2863 59.5949 40.2863" stroke="#C9C9C9" stroke-width="0.666601"/>
<path d="M68.182 42.2385C68.182 41.7908 68.1928 41.3413 68.1779 40.8965C68.1656 40.5235 68.2146 40.2803 68.673 40.2709C69.1713 40.2605 69.2311 40.5178 69.223 40.9319C69.2062 41.8263 69.2089 42.7215 69.223 43.6163C69.2279 43.9903 69.1817 44.2264 68.7247 44.2382C68.2236 44.251 68.1607 43.9941 68.1783 43.5771C68.1978 43.1304 68.1829 42.6828 68.1824 42.2352" fill="#C9C9C9"/>
<path d="M68.182 42.2385C68.182 41.7908 68.1928 41.3413 68.1779 40.8965C68.1656 40.5235 68.2146 40.2803 68.673 40.2709C69.1713 40.2605 69.2311 40.5178 69.223 40.9319C69.2062 41.8263 69.2089 42.7215 69.223 43.6163C69.2279 43.9903 69.1817 44.2264 68.7247 44.2382C68.2236 44.251 68.1607 43.9941 68.1783 43.5771C68.1978 43.1304 68.1829 42.6828 68.1824 42.2352" stroke="#C9C9C9" stroke-width="0.666601"/>
<path d="M62.5885 41.3373C62.6585 41.534 62.719 41.7343 62.7697 41.9373C62.8091 42.1261 62.9381 42.355 62.7104 42.5009C62.6609 42.524 62.6069 42.5346 62.5528 42.5319C62.4987 42.5292 62.4459 42.5132 62.3988 42.4853C62.1928 42.3281 62.325 42.1006 62.3495 41.9071C62.3489 41.8 62.3699 41.694 62.411 41.5959C62.4521 41.4978 62.5124 41.4097 62.5881 41.3373" fill="#C9C9C9"/>
<path d="M62.5885 41.3373C62.6585 41.534 62.719 41.7343 62.7697 41.9373C62.8091 42.1261 62.9381 42.355 62.7104 42.5009C62.6609 42.524 62.6069 42.5346 62.5528 42.5319C62.4987 42.5292 62.4459 42.5132 62.3988 42.4853C62.1928 42.3281 62.325 42.1006 62.3495 41.9071C62.3489 41.8 62.3699 41.694 62.411 41.5959C62.4521 41.4978 62.5124 41.4097 62.5881 41.3373" stroke="#C9C9C9" stroke-width="0.666601"/>
<path d="M24.2465 92.3457C24.8844 91.51 25.818 91.3419 26.7249 91.3386C34.879 91.309 43.0331 91.3075 51.1873 91.3343C51.8288 91.332 52.4615 91.4904 53.032 91.7961C53.6026 92.1019 54.0943 92.5461 54.4657 93.0913C54.8372 93.6365 55.0776 94.2668 55.1665 94.929C55.2555 95.5913 55.1906 96.2661 54.9771 96.8967C54.8316 97.4487 54.5089 97.932 54.0629 98.266C53.4591 98.4476 52.8415 98.5754 52.2169 98.648C44.0977 98.6339 35.9785 98.6447 27.8593 98.6343C25.7863 98.6315 24.2927 97.2928 23.8126 95.1987C23.5969 94.2581 23.9661 93.436 24.069 92.5601L24.054 92.5643L24.247 92.3453" fill="#E6E6E6"/>
<path d="M24.251 92.3474L24.0586 92.5659L24.251 92.3474Z" fill="#540B07"/>
<path d="M99.398 94.717C99.3777 94.7696 99.3581 94.8226 99.3391 94.8762C98.6184 94.107 98.2641 93.0691 97.5851 92.2692C97.4002 92.051 97.2566 91.7068 96.9508 91.7304C96.5386 91.7625 96.5993 92.2229 96.4978 92.5025C96.3619 92.8802 96.3796 93.3222 96.0861 93.6433C94.9304 93.002 93.821 93.2981 92.7266 93.8321C93.2697 91.6059 93.9717 89.4251 94.8267 87.3079C94.9618 86.9797 95.138 86.6717 95.3508 86.3919C96.5196 84.8308 97.4895 84.9729 98.2048 86.7913C98.5175 87.6568 98.7434 88.5537 98.8788 89.4677C99.1846 91.203 99.2594 92.9619 99.3998 94.7161" fill="black"/>
<path d="M115.914 95.9626C116.197 95.5078 116.242 94.7084 116.899 94.7547C117.555 94.8009 117.686 95.5527 117.85 96.1075C118.617 98.7414 118.702 101.454 118.602 104.174C118.608 106.028 118.347 107.872 117.826 109.644C117.652 110.163 117.541 110.881 116.889 110.889C116.228 110.898 116.086 110.181 115.944 109.659C115.393 107.643 114.975 105.607 115.371 103.488C115.416 103.135 115.44 102.778 115.441 102.422C115.629 101.31 115.696 100.181 115.642 99.0535C115.615 98.0156 115.706 96.9781 115.914 95.9626Z" fill="#F2F4F3"/>
</svg>
