<svg width="300" height="300" viewBox="0 0 300 300" fill="none" xmlns="http://www.w3.org/2000/svg">
<rect width="300" height="300" rx="150" fill="#F2F3F4"/>
<path fill-rule="evenodd" clip-rule="evenodd" d="M118.667 111.958C118.667 103.781 121.915 95.9382 127.698 90.1559C133.48 84.3735 141.322 81.125 149.5 81.125C157.678 81.125 165.52 84.3735 171.302 90.1559C177.085 95.9382 180.333 103.781 180.333 111.958C180.333 120.136 177.085 127.978 171.302 133.761C165.52 139.543 157.678 142.792 149.5 142.792C141.322 142.792 133.48 139.543 127.698 133.761C121.915 127.978 118.667 120.136 118.667 111.958ZM118.667 158.208C108.445 158.208 98.6416 162.269 91.4136 169.497C84.1856 176.725 80.125 186.528 80.125 196.75C80.125 202.883 82.5614 208.765 86.8982 213.102C91.2349 217.439 97.1169 219.875 103.25 219.875H195.75C201.883 219.875 207.765 217.439 212.102 213.102C216.439 208.765 218.875 202.883 218.875 196.75C218.875 186.528 214.814 176.725 207.586 169.497C200.358 162.269 190.555 158.208 180.333 158.208H118.667Z" fill="#3070EE"/>
</svg>
