<svg width="213" height="106" viewBox="0 0 213 106" fill="none" xmlns="http://www.w3.org/2000/svg">
<path d="M211.052 73.9497C211.433 77.0823 211.433 77.0823 208.291 77.0823C206.808 77.0823 205.325 77.0823 203.841 77.0823C203.192 77.0823 202.39 77.0339 202.421 77.9379C202.448 78.714 203.206 78.6289 203.778 78.6304C205.907 78.6351 208.037 78.6838 210.162 78.6107C211.188 78.5755 211.69 78.8468 211.769 79.937C211.931 82.1858 212.316 84.4249 212.369 86.673C212.394 87.5298 212.248 88.3832 211.94 89.1829C211.631 89.9826 211.165 90.7125 210.571 91.3299C209.976 91.9473 209.264 92.4396 208.476 92.778C207.689 93.1164 206.841 93.2941 205.984 93.3006C203.213 93.3842 200.434 93.2781 197.667 93.4144C196.289 93.4821 196.035 93.0114 195.922 91.7172C195.229 83.7316 191.325 77.8101 183.921 74.631C176.69 71.5263 169.756 72.5266 163.57 77.4129C158.865 81.1293 156.419 86.1445 156.235 92.1419C156.19 93.5789 155.72 93.7818 154.461 93.7918C130.665 93.9818 106.87 94.2078 83.0747 94.4701C81.4755 94.4883 80.8294 94.3408 80.7934 92.3993C80.5998 82.4274 72.9282 74.3163 63.25 73.585C58.4122 73.1704 53.595 74.5874 49.7522 77.5555C45.9095 80.5236 43.3213 84.8264 42.5001 89.612C42.4025 90.2494 42.3444 90.8922 42.3262 91.5368C42.1931 94.0469 42.1935 94.0737 39.7987 93.6598C33.7069 92.6068 27.6135 91.5597 21.5322 90.4467C17.7217 89.7498 15.3885 87.2242 15.2534 83.9124C15.2108 82.8613 15.3157 82.271 16.6552 82.3914C18.3825 82.5462 20.1346 82.4274 21.8759 82.4301C22.4698 82.4301 23.1534 82.4556 23.1825 81.6616C23.2135 80.8223 22.5039 80.8827 21.9263 80.8808C20.1842 80.875 18.4421 80.8367 16.7028 80.894C15.8019 80.9234 15.4593 80.7321 15.5588 79.7221C16.052 74.7189 16.4825 69.7095 16.9006 64.6993C16.978 63.754 17.2703 63.3657 18.3217 63.4319C20.1207 63.5449 21.9317 63.4663 23.7376 63.4601C24.3261 63.4601 25.0109 63.4764 24.9919 62.6472C24.9722 61.7874 24.2393 61.9248 23.6865 61.9194C22.0114 61.8434 20.3335 61.8528 18.6593 61.9476C17.1247 62.0901 17.1352 61.4138 17.3733 60.2756C18.1839 56.3974 21.2747 53.3368 25.237 53.6012C29.934 53.9148 33.7998 52.2497 37.8255 50.2646C52.4446 43.0563 67.7054 37.7476 83.8617 35.131C99.2906 32.6325 114.433 34.0301 129.405 38.1196C140.514 41.2007 151.248 45.5026 161.41 50.9467C167.354 54.0959 173.925 55.6406 180.296 57.6602C186.606 59.6601 192.965 61.5017 199.302 63.4125C198.154 65.256 198.848 67.2838 198.809 69.2128C198.72 73.5939 200.157 74.5784 204.52 74.2335C206.703 74.0608 208.875 74.0314 211.052 73.9493M97.8908 53.0244C98.1571 56.109 98.1571 56.109 95.1968 56.109C87.3947 56.109 79.5929 56.0951 71.7912 56.1318C71.0576 56.1353 69.7828 55.6243 69.7293 56.8232C69.674 58.0706 70.9581 57.5282 71.7002 57.6602C71.7646 57.6659 71.8294 57.6659 71.8937 57.6602H156.231C156.682 57.6602 157.135 57.671 157.586 57.6397C158.081 57.6056 158.489 57.3908 158.469 56.8298C158.447 56.2542 158.004 56.1229 157.515 56.1164C156.999 56.1094 156.483 56.1082 155.967 56.1082C137.849 56.1082 119.729 56.0765 101.611 56.157C99.8121 56.1651 99.327 55.6057 99.5868 53.9995C99.6383 53.6837 99.6487 53.3608 99.6782 53.041C115.543 53.041 131.408 53.0368 147.272 53.0283C148.056 53.0283 149.147 53.403 149.461 52.3399C149.802 51.1832 148.698 50.8301 147.912 50.4647C143.015 48.1876 138.053 46.0793 132.945 44.2943C124.244 41.255 115.322 39.125 106.16 38.4456C101.022 38.0534 95.8595 38.1229 90.734 38.6535C83.3472 39.4916 76.0559 41.0252 68.9574 43.234C62.4866 45.1897 56.2299 47.7161 50.0397 50.4124C49.4168 50.6834 48.5249 50.8631 48.6681 51.7844C48.835 52.8564 49.7951 52.645 50.5395 52.6496C66.3238 52.7487 82.1112 52.3845 97.8908 53.0244ZM118.892 88.6818H142.855C144.659 88.6818 146.463 88.6996 148.266 88.6721C148.919 88.6624 149.924 88.9191 149.877 87.8731C149.831 86.8797 148.837 87.1913 148.177 87.1305C148.049 87.1189 147.919 87.1305 147.789 87.1305C128.592 87.1305 109.394 87.1305 90.1959 87.1305C89.7453 87.1305 89.292 87.1151 88.8444 87.1565C88.6489 87.1508 88.4588 87.2218 88.3148 87.3542C88.1708 87.4866 88.0841 87.67 88.0733 87.8653C88.0346 88.453 88.4337 88.6434 88.9335 88.6659C89.448 88.6895 89.964 88.6818 90.4793 88.6821H118.889M59.3114 57.6602C61.4363 57.6602 63.5616 57.6571 65.6866 57.6602C66.299 57.6602 66.9606 57.611 66.9463 56.8368C66.9308 56.0157 66.2046 56.1105 65.6359 56.1102C61.3855 56.1063 57.1355 56.1076 52.8859 56.114C52.3303 56.114 51.5964 55.9979 51.6347 56.8829C51.6699 57.6931 52.3563 57.654 52.9366 57.6571C55.0615 57.6637 57.1865 57.6598 59.3114 57.6594M104.499 63.397C103.729 63.397 102.958 63.4009 102.188 63.397C101.641 63.3935 101.056 63.4706 101.043 64.1248C101.03 64.7411 101.558 64.9517 102.131 64.9525C103.607 64.9552 105.084 64.9591 106.561 64.9525C107.103 64.9498 107.667 64.8236 107.701 64.1872C107.74 63.5016 107.159 63.4129 106.617 63.4052C105.911 63.3947 105.204 63.4024 104.498 63.3993" fill="#FDFDFD"/>
<path d="M211.052 73.9497C211.433 77.0823 211.433 77.0823 208.291 77.0823C206.808 77.0823 205.325 77.0823 203.841 77.0823C203.192 77.0823 202.39 77.0339 202.421 77.9379C202.448 78.714 203.206 78.6289 203.778 78.6304C205.907 78.6351 208.037 78.6838 210.162 78.6107C211.188 78.5755 211.69 78.8468 211.769 79.937C211.931 82.1858 212.316 84.4249 212.369 86.673C212.394 87.5298 212.248 88.3832 211.94 89.1829C211.631 89.9826 211.165 90.7125 210.571 91.3299C209.976 91.9473 209.264 92.4396 208.476 92.778C207.689 93.1164 206.841 93.2941 205.984 93.3006C203.213 93.3842 200.434 93.2781 197.667 93.4144C196.289 93.4821 196.035 93.0114 195.922 91.7172C195.229 83.7316 191.325 77.8101 183.921 74.631C176.69 71.5263 169.756 72.5266 163.57 77.4129C158.865 81.1293 156.419 86.1445 156.235 92.1419C156.19 93.5789 155.72 93.7818 154.461 93.7918C130.665 93.9818 106.87 94.2078 83.0747 94.4701C81.4755 94.4883 80.8294 94.3408 80.7934 92.3993C80.5998 82.4274 72.9282 74.3163 63.25 73.585C58.4122 73.1704 53.595 74.5874 49.7522 77.5555C45.9095 80.5236 43.3213 84.8264 42.5001 89.612C42.4025 90.2494 42.3444 90.8922 42.3262 91.5368C42.1931 94.0469 42.1935 94.0737 39.7987 93.6598C33.7069 92.6068 27.6135 91.5597 21.5322 90.4467C17.7217 89.7498 15.3885 87.2242 15.2534 83.9124C15.2108 82.8613 15.3157 82.271 16.6552 82.3914C18.3825 82.5462 20.1346 82.4274 21.8759 82.4301C22.4698 82.4301 23.1534 82.4556 23.1825 81.6616C23.2135 80.8223 22.5039 80.8827 21.9263 80.8808C20.1842 80.875 18.4421 80.8367 16.7028 80.894C15.8019 80.9234 15.4593 80.7321 15.5588 79.7221C16.052 74.7189 16.4825 69.7095 16.9006 64.6993C16.978 63.754 17.2703 63.3657 18.3217 63.4319C20.1207 63.5449 21.9317 63.4663 23.7376 63.4601C24.3261 63.4601 25.0109 63.4764 24.9919 62.6472C24.9722 61.7874 24.2393 61.9248 23.6865 61.9194C22.0114 61.8434 20.3335 61.8528 18.6593 61.9476C17.1247 62.0901 17.1352 61.4138 17.3733 60.2756C18.1839 56.3974 21.2747 53.3368 25.237 53.6012C29.934 53.9148 33.7998 52.2497 37.8255 50.2646C52.4446 43.0563 67.7054 37.7476 83.8617 35.131C99.2906 32.6325 114.433 34.0301 129.405 38.1196C140.514 41.2007 151.248 45.5026 161.41 50.9467C167.354 54.0959 173.925 55.6406 180.296 57.6602C186.606 59.6601 192.965 61.5017 199.302 63.4125C198.154 65.256 198.848 67.2838 198.809 69.2128C198.72 73.5939 200.157 74.5784 204.52 74.2335C206.703 74.0612 208.875 74.0318 211.052 73.9497ZM97.8908 53.0244C98.1571 56.109 98.1571 56.109 95.1968 56.109C87.3947 56.109 79.5929 56.0951 71.7912 56.1318C71.0576 56.1353 69.7828 55.6243 69.7293 56.8232C69.674 58.0706 70.9581 57.5282 71.7002 57.6602C71.7646 57.6659 71.8294 57.6659 71.8937 57.6602H156.231C156.682 57.6602 157.135 57.671 157.586 57.6397C158.081 57.6056 158.489 57.3908 158.469 56.8298C158.447 56.2542 158.004 56.1229 157.515 56.1164C156.999 56.1094 156.483 56.1082 155.967 56.1082C137.849 56.1082 119.729 56.0765 101.611 56.157C99.8121 56.1651 99.327 55.6057 99.5868 53.9995C99.6383 53.6837 99.6487 53.3608 99.6782 53.041C115.543 53.041 131.408 53.0368 147.272 53.0283C148.056 53.0283 149.147 53.403 149.461 52.3399C149.802 51.1832 148.698 50.8301 147.912 50.4647C143.015 48.1876 138.053 46.0793 132.945 44.2943C124.244 41.255 115.322 39.125 106.16 38.4456C101.022 38.0534 95.8595 38.1229 90.734 38.6535C83.3472 39.4916 76.0559 41.0252 68.9574 43.234C62.4866 45.1897 56.2299 47.7161 50.0397 50.4124C49.4168 50.6834 48.5249 50.8631 48.6681 51.7844C48.835 52.8564 49.7951 52.645 50.5395 52.6496C66.3238 52.7487 82.1112 52.3845 97.8908 53.0244ZM118.892 88.6818H142.855C144.659 88.6818 146.463 88.6996 148.266 88.6721C148.919 88.6624 149.924 88.9191 149.877 87.8731C149.831 86.8797 148.837 87.1913 148.177 87.1305C148.049 87.1189 147.919 87.1305 147.789 87.1305C128.592 87.1305 109.394 87.1305 90.1959 87.1305C89.7453 87.1305 89.292 87.1151 88.8444 87.1565C88.6489 87.1508 88.4588 87.2218 88.3148 87.3542C88.1708 87.4866 88.0841 87.67 88.0733 87.8653C88.0346 88.453 88.4337 88.6434 88.9335 88.6659C89.448 88.6895 89.964 88.6818 90.4793 88.6821L118.892 88.6818ZM59.3114 57.6602C61.4363 57.6602 63.5616 57.6571 65.6866 57.6602C66.299 57.6602 66.9606 57.611 66.9463 56.8368C66.9308 56.0157 66.2046 56.1105 65.6359 56.1102C61.3855 56.1063 57.1355 56.1076 52.8859 56.114C52.3303 56.114 51.5964 55.9979 51.6347 56.8829C51.6699 57.6931 52.3563 57.654 52.9366 57.6571C55.0615 57.6645 57.1865 57.6606 59.3114 57.6602ZM104.499 63.397C103.729 63.397 102.958 63.4009 102.188 63.397C101.641 63.3935 101.056 63.4706 101.043 64.1248C101.03 64.7411 101.558 64.9517 102.131 64.9525C103.607 64.9552 105.084 64.9591 106.561 64.9525C107.103 64.9498 107.667 64.8236 107.701 64.1872C107.74 63.5016 107.159 63.4129 106.617 63.4052C105.914 63.3924 105.207 63.4001 104.499 63.397Z" stroke="#3B3B3B" stroke-width="0.437748" stroke-miterlimit="10"/>
<path d="M162.734 91.7772C162.73 89.1359 163.508 86.5523 164.97 84.3529C166.433 82.1535 168.515 80.4369 170.953 79.42C173.39 78.403 176.075 78.1313 178.667 78.6391C181.259 79.1469 183.642 80.4115 185.516 82.2732C187.39 84.1349 188.67 86.5101 189.195 89.0988C189.719 91.6876 189.465 94.3737 188.464 96.818C187.463 99.2623 185.759 101.355 183.57 102.832C181.38 104.309 178.801 105.104 176.16 105.116C174.401 105.126 172.658 104.789 171.03 104.124C169.402 103.458 167.922 102.477 166.674 101.238C165.427 99.9981 164.436 98.5242 163.76 96.9006C163.084 95.2771 162.735 93.5359 162.734 91.7772M183.741 91.8438C183.767 87.4383 180.48 84.0324 176.177 84.0041C171.957 83.9759 168.224 87.5711 168.251 91.6394C168.272 93.6924 169.087 95.6574 170.527 97.1212C171.967 98.585 173.918 99.4336 175.97 99.4884C176.987 99.5138 177.998 99.3343 178.944 98.9607C179.89 98.5871 180.752 98.027 181.477 97.3138C182.202 96.6005 182.776 95.7487 183.165 94.8089C183.554 93.8692 183.75 92.8608 183.741 91.8438" fill="#121212"/>
<path d="M74.9883 101.422C76.2092 99.5089 77.1256 97.4176 77.7047 95.2231C78.6977 97.2815 80.3198 97.5532 82.2078 97.5331C106.618 97.2681 131.028 97.0265 155.438 96.8084C158.28 96.7805 159.19 95.8452 159.265 92.9642C159.279 92.0545 159.357 91.1468 159.5 90.2482C159.339 94.2118 160.442 98.1241 162.649 101.42H74.9883" fill="#F2F2F2"/>
<path d="M74.9147 91.7346C74.9155 94.3749 74.1338 96.9563 72.6685 99.1527C71.2032 101.349 69.1198 103.062 66.6816 104.075C64.2434 105.088 61.5596 105.356 58.9692 104.845C56.3788 104.334 53.9979 103.067 52.1272 101.204C50.2564 99.3406 48.9798 96.9648 48.4584 94.3764C47.937 91.7881 48.1943 89.1033 49.1977 86.661C50.2012 84.2188 51.9058 82.1287 54.0964 80.6546C56.2869 79.1805 58.8651 78.3885 61.5055 78.3787C63.2645 78.3696 65.0079 78.7084 66.6354 79.3757C68.2629 80.043 69.7424 81.0256 70.9887 82.2669C72.235 83.5082 73.2235 84.9838 73.8973 86.6086C74.5711 88.2335 74.9169 89.9756 74.9147 91.7346ZM53.5311 91.6796C53.5148 96.3592 56.8828 99.841 61.461 99.8766C66.0205 99.911 69.8256 96.1788 69.7842 91.7125C69.7503 89.5601 68.8737 87.5069 67.3425 85.9939C65.8114 84.4808 63.7479 83.6287 61.5953 83.6204C56.9831 83.6061 53.5485 87.0391 53.5311 91.6807" fill="#121212"/>
<path d="M12.0939 101.266C16.0631 99.2772 19.9793 97.1964 23.5296 94.5035C23.7883 94.3168 24.0859 94.1911 24.4001 94.1359C24.7143 94.0807 25.0369 94.0975 25.3437 94.1849C30.4712 95.1001 35.6025 95.9932 40.7304 96.9095C43.275 97.3644 43.7825 97.1863 45.3879 95.0815C45.9577 97.3277 46.8829 99.4684 48.1284 101.423C37.3983 101.423 26.6683 101.421 15.9385 101.418C14.6571 101.418 13.3753 101.319 12.0939 101.266" fill="#FDFDFD"/>
<path d="M12.0928 101.266C13.3742 101.319 14.6559 101.417 15.9373 101.418C26.6672 101.429 37.3971 101.431 48.1272 101.423L51.6888 105.152H0.75C4.60287 104.077 8.39015 102.779 12.0928 101.266" fill="#F2F2F2"/>
<path d="M211.056 73.949C208.879 74.0311 206.707 74.0609 204.524 74.2332C200.162 74.5781 198.724 73.5936 198.813 69.2129C198.852 67.285 198.158 65.2557 199.306 63.4122C201.637 64.0587 204.013 64.5775 206.287 65.3866C208.909 66.3157 210.378 68.3369 210.765 71.1005C210.897 72.0455 210.961 73.0006 211.056 73.951" fill="#ECF2FA"/>
<path d="M128.239 34.5291L115.949 32.0655C116.16 31.9298 116.393 31.8337 116.638 31.7817C121.443 31.7612 126.248 31.7767 131.053 31.7453C132.053 31.7387 132.207 32.2675 132.192 33.0801C132.178 33.8377 132.164 34.5043 131.118 34.4784C130.159 34.4552 129.198 34.509 128.239 34.5291" fill="#ECF2FA"/>
<path d="M9.41117 81.7828C9.02753 79.9312 9.31787 78.0583 9.23735 76.197C9.17541 74.7677 10.2632 75.1378 11.0065 75.1684C11.6476 75.1947 12.7873 74.6651 12.6785 76.0263C12.526 77.9437 12.8008 79.9022 12.1698 81.7766L9.41117 81.7828" fill="#ECF2FA"/>
<path d="M8.67947 73.8797C8.64075 71.0069 8.64075 71.0061 11.5523 71.0065C12.1199 71.0065 12.687 71.0142 13.2557 71.0189C13.2263 73.939 13.2263 73.9417 10.3909 73.9324C9.8211 73.9324 9.25164 73.8983 8.68179 73.8797" fill="#ECF2FA"/>
<path d="M9.41386 81.7832L12.1725 81.777C12.1849 82.1598 12.1725 82.5454 12.2139 82.9256C12.3347 84.0804 12.2054 84.7838 10.6654 84.7695C9.10571 84.7547 9.24392 83.8942 9.28263 82.9202C9.29773 82.54 9.36741 82.1622 9.41232 81.7832" fill="#ECF2FA"/>
<path d="M97.8903 53.0251C82.1107 52.3848 66.3229 52.749 50.539 52.6503C49.7946 52.6457 48.8357 52.857 48.6677 51.7851C48.5244 50.8633 49.4164 50.6841 50.0389 50.4131C56.2294 47.7168 62.4861 45.19 68.9565 43.2346C76.0555 41.0263 83.3471 39.493 90.7343 38.6553C95.8598 38.1246 101.023 38.055 106.16 38.4474C115.323 39.1269 124.244 41.2568 132.945 44.2961C138.055 46.0812 143.015 48.1895 147.913 50.4665C148.697 50.8312 149.802 51.1851 149.461 52.3418C149.148 53.4048 148.056 53.0293 147.272 53.0301C131.408 53.0471 115.543 53.0514 99.6785 53.0429C99.6494 49.5227 99.6332 46.0026 99.5813 42.4828C99.5708 41.774 99.836 40.6831 98.6909 40.7408C97.7177 40.7911 98.0134 41.8193 98.0026 42.4666C97.943 45.9852 97.9252 49.5045 97.8907 53.0239" fill="#ECF2FA"/>
<path d="M97.8941 53.0253C97.9274 49.5059 97.9463 45.9865 98.0059 42.468C98.0168 41.8207 97.721 40.7925 98.6943 40.7422C99.8386 40.6833 99.5734 41.7742 99.5846 42.4842C99.6365 46.004 99.6528 49.5241 99.6818 53.0442C99.6524 53.364 99.6431 53.6869 99.5904 54.0028C99.3295 55.6089 99.8158 56.168 101.615 56.1602C119.732 56.0797 137.852 56.1111 155.97 56.1114C156.486 56.1114 157.002 56.1114 157.519 56.1196C158.008 56.1258 158.451 56.2574 158.472 56.833C158.493 57.394 158.085 57.6073 157.59 57.6429C157.14 57.6743 156.688 57.663 156.235 57.6634H71.8966C71.8322 57.6691 71.7675 57.6691 71.7031 57.6634C70.9609 57.5314 69.6768 58.0738 69.7322 56.8265C69.7856 55.6264 71.0604 56.1385 71.7936 56.1351C79.5954 56.0963 87.3975 56.1122 95.1997 56.1122C98.16 56.1122 98.16 56.1122 97.8937 53.0276" fill="#45484A"/>
<path d="M118.893 88.682H90.4826C89.9674 88.682 89.4513 88.6894 88.9369 88.6662C88.4371 88.6433 88.0399 88.4529 88.0767 87.8652C88.0875 87.6699 88.1741 87.4865 88.3182 87.3541C88.4622 87.2217 88.6522 87.1507 88.8478 87.1564C89.2953 87.115 89.7487 87.1305 90.1993 87.1305C109.397 87.1305 128.595 87.1305 147.793 87.1305C147.922 87.1305 148.051 87.1204 148.18 87.1305C148.841 87.1912 149.835 86.8796 149.88 87.873C149.928 88.9182 148.922 88.6623 148.27 88.672C146.466 88.6995 144.662 88.6817 142.858 88.6817L118.893 88.682Z" fill="#45484A"/>
<path d="M59.311 57.6605C57.1861 57.6605 55.0607 57.6648 52.9358 57.6582C52.3551 57.6582 51.6695 57.6969 51.6343 56.884C51.5956 56.0001 52.3311 56.1163 52.8851 56.1147C57.1355 56.1047 61.3856 56.1034 65.6355 56.1109C66.2038 56.1109 66.9304 56.0168 66.9455 56.8375C66.9602 57.6118 66.2986 57.6625 65.6862 57.6609C63.5609 57.6563 61.4359 57.6609 59.311 57.6609" fill="#45484A"/>
<path d="M104.495 63.3981C105.201 63.3981 105.907 63.392 106.614 63.4024C107.155 63.4101 107.733 63.4988 107.697 64.1844C107.663 64.8208 107.101 64.947 106.558 64.9497C105.081 64.9575 103.604 64.9536 102.127 64.9497C101.554 64.9497 101.027 64.7384 101.039 64.1221C101.053 63.4678 101.637 63.3908 102.184 63.3943C102.955 63.3993 103.726 63.3943 104.496 63.397" fill="#45484A"/>
<path d="M183.73 91.8454C183.738 92.8625 183.542 93.871 183.153 94.8108C182.764 95.7506 182.19 96.6025 181.465 97.3158C180.74 98.029 179.878 98.5891 178.932 98.9626C177.986 99.3361 176.975 99.5155 175.958 99.4899C173.905 99.4351 171.954 98.5866 170.515 97.1228C169.075 95.659 168.259 93.694 168.238 91.641C168.212 87.5727 171.944 83.9759 176.164 84.0057C180.468 84.0339 183.754 87.4399 183.728 91.8454" fill="#9A9A9A"/>
<path d="M53.5352 91.6792C53.5526 87.0375 56.9872 83.6045 61.5994 83.6188C63.7522 83.6269 65.8159 84.479 67.3472 85.992C68.8785 87.5051 69.7552 89.5584 69.7891 91.7109C69.8278 96.1772 66.0247 99.9095 61.4659 99.875C56.887 99.8406 53.519 96.3587 53.5352 91.6792Z" fill="#9A9A9A"/>
<path d="M88.6056 55.8656C88.6021 46.5567 91.1083 33.2508 87.7179 27.3731C81.5281 17.7445 71.2825 22.6676 71.2825 22.6676C66.5433 24.326 64.5647 33.2954 65.8015 55.8675L88.6056 55.8656Z" fill="#3070EE"/>
<path d="M75.5234 18.7324C74.6425 19.526 73.5623 19.3163 72.5298 18.1525C73.0559 17.0413 72.6762 16.0234 72.2037 15.0174C71.3773 13.2493 71.0129 11.3005 71.1447 9.3533C71.2275 7.93347 71.558 6.65905 73.0522 6.01041C73.4447 5.84061 73.6071 5.3297 73.9958 5.06406C75.2056 4.23318 76.6417 3.79462 78.1093 3.80786C78.9889 3.80376 79.8677 3.80887 80.7447 3.76206C81.0498 3.75621 81.3498 3.68245 81.6228 3.54616C81.8958 3.40986 82.135 3.21444 82.3231 2.97411C82.6104 2.66684 83.0052 2.48218 83.4252 2.45854C83.8453 2.4349 84.2583 2.5741 84.5783 2.84718C84.9719 3.22111 85.2673 3.68622 85.4385 4.20141C85.9285 5.76936 85.581 7.09756 84.3044 8.15929C83.5176 8.61741 82.6114 8.82872 81.7031 8.76586C81.0119 8.7361 80.323 8.66052 79.6331 8.58463C79.1115 8.52635 78.855 8.69394 78.8542 9.25871C78.852 9.74974 78.7428 10.2629 78.2172 10.4626C77.5905 10.7001 77.5273 11.1115 77.6842 11.6745C77.8051 12.1073 77.8811 12.5526 77.9769 12.992L77.9687 13.0361L77.9247 13.2523C77.7006 13.8595 77.152 14.0703 76.6237 14.2797C76.1665 14.4601 76.0559 13.9345 75.7592 13.7726C74.9911 13.3535 74.2517 13.6763 74.1741 14.5483C74.1163 15.0151 74.1842 15.4889 74.3709 15.9206C74.5576 16.3523 74.8563 16.7263 75.236 17.0038C75.4949 17.203 75.818 17.3435 75.7848 17.7518L75.5249 18.7311" fill="#3B3B3B"/>
<path d="M75.789 17.7536C75.8212 17.3459 75.4997 17.2058 75.2402 17.0056C74.8604 16.7281 74.5616 16.3542 74.3749 15.9225C74.1881 15.4908 74.1201 15.0171 74.178 14.5503C74.2563 13.6796 74.9963 13.3579 75.763 13.7746C76.0596 13.9361 76.1702 14.4618 76.6276 14.2817C77.1564 14.0733 77.7037 13.8601 77.9283 13.2545L77.9721 13.0379L77.9804 12.9942C78.2248 12.9363 78.2967 12.738 78.3579 12.5309C78.5893 11.7501 78.7987 10.9614 79.0576 10.1898C79.2842 9.5143 79.5349 9.02625 80.4718 9.48249C81.1347 9.81881 81.8708 9.98517 82.614 9.96661C83.3571 9.94805 84.084 9.74516 84.7293 9.37616C85.1819 10.5064 85.4963 11.6873 85.6655 12.893C85.7147 13.1942 85.7023 13.4902 86.0326 13.64C86.2305 14.0841 86.9155 14.3426 86.5536 15.0005L84.6537 15.4686L85.6258 15.9272C85.9053 17.2594 85.3797 18.4387 84.9231 19.6306C84.3778 20.4477 83.3707 20.2607 82.6418 20.6835C82.4529 20.5935 82.2527 20.5296 82.0466 20.4934C80.3913 20.3921 78.7828 19.9044 77.35 19.0693C76.746 18.7425 76.1264 18.4083 75.7903 17.752M81.2464 12.4812C82.0502 11.9677 82.9656 11.655 83.9154 11.5692C84.1245 11.5549 84.3755 11.5566 84.3146 11.2322C84.3114 11.1784 84.2962 11.1261 84.2701 11.079C84.2439 11.0319 84.2075 10.9914 84.1636 10.9603C84.1196 10.9292 84.0692 10.9084 84.0161 10.8994C83.963 10.8905 83.9086 10.8936 83.8569 10.9085C82.8675 11.1285 81.8049 11.228 81.2462 12.48M83.0209 12.5003C83.1682 12.6453 83.5207 12.3795 83.5423 12.8042C83.5583 13.1183 83.7122 13.4467 84.1125 13.2364C84.5287 13.0179 84.2053 12.6268 84.178 12.3454C84.132 11.8727 83.8069 12.1782 83.5972 12.2505C83.4002 12.3187 83.2136 12.4155 83.0226 12.4994M83.6825 17.3577C83.1458 17.2093 82.7029 16.8295 81.9468 16.5189C82.5309 17.1926 83.0245 17.4447 83.6825 17.3577ZM84.6348 16.9766C84.282 17.1098 84.0593 17.1259 83.9166 17.3681C84.2026 17.452 84.4084 17.4162 84.6348 16.9766Z" fill="#DBDBDB"/>
<path d="M75.7875 17.753C76.1229 18.408 76.7432 18.7436 77.3476 19.0702C78.7803 19.9053 80.3889 20.393 82.0442 20.4943C82.2502 20.5305 82.4505 20.5944 82.6394 20.6844C82.7107 20.8434 82.7825 21.002 82.8547 21.1605C82.567 21.473 82.2441 21.302 81.9235 21.2355C80.3243 20.9062 78.7341 20.5075 77.1199 20.2824C76.1176 20.1422 75.4573 19.8699 75.529 18.7308L75.7889 17.7514" fill="#DBDBDB"/>
<path d="M84.726 8.97704C84.5851 8.70496 84.4441 8.43289 84.3032 8.16082C85.5801 7.0989 85.9274 5.77123 85.4373 4.20294C86.5487 6.08688 86.3005 7.75163 84.726 8.97704" fill="#540B07"/>
<path d="M81.2383 12.4835C81.797 11.2315 82.8596 11.132 83.849 10.912C83.9007 10.8971 83.9551 10.894 84.0082 10.9029C84.0613 10.9119 84.1117 10.9327 84.1557 10.9638C84.1996 10.9949 84.236 11.0354 84.2622 11.0825C84.2883 11.1296 84.3035 11.1819 84.3067 11.2357C84.3675 11.5601 84.1172 11.5594 83.9075 11.5727C82.9577 11.6586 82.0423 11.9713 81.2385 12.4847" fill="#3B3B3B"/>
<path d="M83.0134 12.5044C83.2044 12.4206 83.391 12.3238 83.5879 12.2557C83.8001 12.1841 84.123 11.8759 84.1684 12.3505C84.196 12.6316 84.5193 13.0226 84.103 13.2412C83.7027 13.4514 83.5486 13.1233 83.533 12.8092C83.5114 12.3847 83.1594 12.6501 83.0117 12.5054" fill="#3B3B3B"/>
<path d="M86.5516 15.0028C86.4055 15.4746 85.7837 15.4707 85.6241 15.9292L84.6523 15.4707L86.5513 15.003" fill="#C9C9C9"/>
<path d="M83.6687 17.3618C83.0133 17.4476 82.5198 17.1947 81.9336 16.5234C82.6882 16.8341 83.1304 17.2127 83.6687 17.3618Z" fill="#C9C9C9"/>
<path d="M84.622 16.982C84.3957 17.4213 84.1898 17.4569 83.904 17.3733C84.0468 17.1315 84.2695 17.1155 84.622 16.982Z" fill="#C9C9C9"/>
<path d="M98.7206 31.4873L98.2344 29.4038C98.2344 29.4038 100.804 28.0148 102.263 28.362L103.166 30.1679L98.7206 31.4873Z" fill="#F1F2F2"/>
<path d="M74.7578 28.7778C74.7578 28.7778 76.2111 46.121 90.6079 46.6727C105.005 47.2243 102.957 29.3333 102.957 29.3333L98.2343 30.3057C98.2343 30.3057 97.8472 37.8334 93.5396 38.3889C89.2321 38.9445 88.6491 27.5277 84.343 25.5828C80.037 23.6379 76.1472 22.2489 74.7582 28.7778" fill="#3070EE"/>
<path d="M97.8346 28.72L95.1441 27.885C94.9824 27.8343 94.8473 27.7215 94.7686 27.5715C94.6899 27.4214 94.6738 27.2463 94.724 27.0844L96.35 21.8501C96.4003 21.6881 96.5129 21.5527 96.663 21.4737C96.8131 21.3946 96.9885 21.3784 97.1505 21.4285L99.8411 22.2635C99.9214 22.2884 99.996 22.3289 100.061 22.3826C100.125 22.4364 100.179 22.5024 100.218 22.5768C100.257 22.6512 100.281 22.7326 100.289 22.8164C100.297 22.9001 100.288 22.9846 100.263 23.0649L98.6367 28.2984C98.6118 28.3787 98.5713 28.4534 98.5176 28.518C98.4638 28.5827 98.3978 28.6361 98.3234 28.6753C98.249 28.7145 98.1676 28.7386 98.0838 28.7462C98.0001 28.7539 97.9157 28.745 97.8354 28.72" fill="#254DA1"/>
<path d="M97.8558 27.8698L95.6058 27.173C95.5543 27.1572 95.5064 27.1313 95.4649 27.097C95.4233 27.0626 95.389 27.0204 95.3638 26.9727C95.3387 26.9251 95.3231 26.8729 95.3182 26.8193C95.3132 26.7656 95.3188 26.7115 95.3348 26.66L96.701 22.258C96.7168 22.2066 96.7425 22.1587 96.7768 22.1172C96.8111 22.0757 96.8533 22.0414 96.9008 22.0163C96.9484 21.9911 97.0005 21.9755 97.0541 21.9705C97.1077 21.9655 97.1617 21.9711 97.2131 21.987L99.4635 22.6839C99.515 22.6997 99.5629 22.7256 99.6044 22.7599C99.6458 22.7943 99.6802 22.8365 99.7053 22.8842C99.7305 22.9318 99.746 22.9839 99.751 23.0376C99.756 23.0912 99.7504 23.1453 99.7345 23.1968L98.3703 27.5988C98.3544 27.6503 98.3285 27.6982 98.2942 27.7397C98.2598 27.7811 98.2176 27.8155 98.17 27.8406C98.1223 27.8658 98.0702 27.8813 98.0165 27.8863C97.9629 27.8913 97.9088 27.8857 97.8573 27.8698" fill="#A9EAFF"/>
<path d="M98.4232 24.5715L97.1975 24.9672L97.0297 24.5017L96.6252 24.6475L96.9342 25.5043L98.5555 24.9809L98.4232 24.5715Z" fill="#254DA1"/>
</svg>
