<svg width="17" height="16" viewBox="0 0 17 16" fill="none" xmlns="http://www.w3.org/2000/svg">
<path d="M15.6377 8.50539C15.8386 8.33129 15.939 8.24424 15.9758 8.14065C16.0081 8.04973 16.0081 7.95027 15.9758 7.85935C15.939 7.75576 15.8386 7.66871 15.6377 7.4946L8.66848 1.45336C8.32274 1.15365 8.14987 1.0038 8.00351 1.00013C7.87632 0.996937 7.75482 1.05345 7.67443 1.1532C7.58194 1.26797 7.58194 1.49823 7.58194 1.95875V5.53265C5.82565 5.84338 4.21824 6.74339 3.02371 8.09474C1.7214 9.56802 1.00102 11.4746 1 13.4508V13.96C1.86334 12.9082 2.94127 12.0575 4.15996 11.4663C5.23441 10.945 6.39589 10.6362 7.58194 10.5549V14.0412C7.58194 14.5018 7.58194 14.732 7.67443 14.8468C7.75482 14.9465 7.87632 15.0031 8.00351 14.9999C8.14987 14.9962 8.32274 14.8463 8.66848 14.5466L15.6377 8.50539Z" stroke="white" stroke-width="1.5" stroke-linecap="round" stroke-linejoin="round"/>
</svg>
