<svg width="2182" height="508" viewBox="0 0 2182 508" fill="none" xmlns="http://www.w3.org/2000/svg">
<path fill-rule="evenodd" clip-rule="evenodd" d="M1368.82 1.42529H1116.09V506.897H1368.82C1508.4 506.897 1621.56 393.743 1621.56 254.161C1621.56 114.579 1508.4 1.42529 1368.82 1.42529ZM1465.55 99.0996L1429.7 136.072L1194.02 406.209C1193.8 406.462 1193.84 406.848 1194.11 407.051C1194.33 407.22 1194.65 407.205 1194.85 407.014L1457.62 163.154L1493.48 126.182C1500.96 118.47 1500.77 106.156 1493.06 98.6771C1485.34 91.1986 1473.03 91.3878 1465.55 99.0996Z" fill="#3070EE"/>
<path fill-rule="evenodd" clip-rule="evenodd" d="M559.016 48.9237C559.016 23.015 580.019 2.01172 605.928 2.01172H812.22C840.923 2.01172 862.896 27.5577 858.604 55.9382L829.158 250.663C829.108 250.992 829.342 251.296 829.673 251.331C829.956 251.361 830.22 251.182 830.297 250.908L890.311 36.2903C895.978 16.0244 914.446 2.01172 935.49 2.01172H1016.41C1042.32 2.01172 1063.32 23.0149 1063.32 48.9237V329.223C1063.32 427.029 984.033 506.316 886.227 506.316H605.928C580.019 506.316 559.016 485.313 559.016 459.404V437.074C559.016 416.801 572.038 398.822 591.299 392.501L804.988 322.37C805.303 322.267 805.469 321.921 805.352 321.61C805.251 321.343 804.973 321.188 804.693 321.243L614.996 358.618C586.005 364.33 559.016 342.14 559.016 312.591V48.9237Z" fill="#3070EE"/>
<path fill-rule="evenodd" clip-rule="evenodd" d="M211.671 52.4229C213.64 25.1898 192.077 2.01172 164.773 2.01172H1.35338C1.02877 2.01172 0.765625 2.27489 0.765625 2.59949V506.896C0.765625 507.22 1.02879 507.483 1.3534 507.483H164.67C191.974 507.483 213.537 484.305 211.568 457.072L199.349 288.061C199.311 287.538 199.707 287.084 200.231 287.049C200.694 287.019 201.11 287.329 201.214 287.781L243.345 471C248.255 492.352 267.261 507.483 289.17 507.483H505.649C505.974 507.483 506.237 507.22 506.237 506.896V246.724C506.237 216.185 477.578 193.748 447.931 201.078L229.641 255.048C229.191 255.159 228.726 254.927 228.544 254.5C228.338 254.018 228.565 253.46 229.049 253.257L477.364 149.374C494.853 142.058 506.237 124.954 506.237 105.997V2.59948C506.237 2.27487 505.974 2.01172 505.649 2.01172H289.497C267.587 2.01172 248.582 17.1431 243.672 38.495L201.214 223.135C201.11 223.587 200.694 223.897 200.231 223.867C199.707 223.832 199.311 223.378 199.349 222.855L211.671 52.4229Z" fill="#3070EE"/>
<path fill-rule="evenodd" clip-rule="evenodd" d="M1675.87 2.60145C1675.87 2.27684 1676.13 2.01367 1676.45 2.01367H2180.75C2181.08 2.01367 2181.34 2.27682 2181.34 2.60143V506.312C2181.34 506.96 2180.81 507.485 2180.17 507.485H1854.72C1755.94 507.485 1675.87 427.41 1675.87 328.633V288.278C1675.87 269.974 1686.49 253.333 1703.09 245.627L1715.51 239.863L2071.46 53.8655C2071.76 53.7089 2071.86 53.329 2071.68 53.0446C2071.53 52.8112 2071.23 52.718 2070.98 52.8228L1699.14 204.576C1688.28 209.613 1675.87 201.688 1675.87 189.721V2.60145ZM1908.06 366.7L1889.1 389.507C1882.23 397.768 1869.97 398.899 1861.71 392.032C1853.45 385.165 1852.31 372.902 1859.18 364.64L1878.14 341.833L2050.92 163.471C2051.12 163.262 2051.44 163.231 2051.68 163.397C2051.95 163.585 2052.02 163.957 2051.83 164.226L1908.06 366.7Z" fill="#3070EE"/>
</svg>
