<svg width="20" height="20" viewBox="0 0 20 20" fill="none" xmlns="http://www.w3.org/2000/svg">
<path d="M4.66564 9.26245C4.60999 8.90382 4.58112 8.53642 4.58112 8.16232C4.58112 4.20668 7.8089 1 11.7906 1C15.7722 1 19 4.20668 19 8.16232C19 9.05588 18.8353 9.91123 18.5344 10.7C18.4719 10.8638 18.4406 10.9458 18.4265 11.0097C18.4124 11.0731 18.407 11.1176 18.4054 11.1825C18.4039 11.248 18.4128 11.3202 18.4305 11.4644L18.791 14.3922C18.83 14.7092 18.8495 14.8676 18.7968 14.9828C18.7506 15.0838 18.6685 15.164 18.5666 15.2078C18.4502 15.2579 18.2922 15.2347 17.9762 15.1884L15.1245 14.7704C14.9756 14.7485 14.9011 14.7376 14.8333 14.738C14.7663 14.7384 14.7198 14.7434 14.6542 14.7572C14.5878 14.7711 14.5031 14.8029 14.3335 14.8664C13.5427 15.1626 12.6857 15.3246 11.7906 15.3246C11.4162 15.3246 11.0484 15.2963 10.6894 15.2416M6.04189 18.9058C8.69634 18.9058 10.8482 16.7012 10.8482 13.9817C10.8482 11.2622 8.69634 9.05761 6.04189 9.05761C3.38745 9.05761 1.2356 11.2622 1.2356 13.9817C1.2356 14.5284 1.32255 15.0542 1.48305 15.5455C1.5509 15.7532 1.58482 15.8571 1.59596 15.928C1.60758 16.0021 1.60962 16.0437 1.60529 16.1185C1.60114 16.1902 1.5832 16.2712 1.54733 16.4333L1 18.9058L3.68122 18.5396C3.82756 18.5196 3.90074 18.5096 3.96463 18.5101C4.03192 18.5105 4.06763 18.5142 4.13361 18.5273C4.19628 18.5398 4.28944 18.5727 4.47576 18.6385C4.96666 18.8117 5.49356 18.9058 6.04189 18.9058Z" stroke="white" stroke-width="1.5" stroke-linecap="round" stroke-linejoin="round"/>
</svg>
