<svg width="18" height="17" viewBox="0 0 18 17" fill="none" xmlns="http://www.w3.org/2000/svg">
<path d="M8.67347 12.0164C8.67347 14.203 10.4461 15.9756 12.6327 15.9756C14.8193 15.9756 16.5918 14.203 16.5918 12.0164C16.5918 9.82978 14.8193 8.05719 12.6327 8.05719C10.4461 8.05719 8.67347 9.82978 8.67347 12.0164ZM8.67347 12.0164C8.67347 11.1249 8.96811 10.3023 9.46531 9.64048V2.51434M8.67347 12.0164C8.67347 12.6699 8.83182 13.2865 9.11225 13.8298C8.44516 14.3933 6.90439 14.7878 5.11021 14.7878C2.70495 14.7878 0.755104 14.0788 0.755104 13.2041V2.51434M9.46531 2.51434C9.46531 3.38898 7.51546 4.09801 5.11021 4.09801C2.70495 4.09801 0.755104 3.38898 0.755104 2.51434M9.46531 2.51434C9.46531 1.6397 7.51546 0.930664 5.11021 0.930664C2.70495 0.930664 0.755104 1.6397 0.755104 2.51434M0.755104 9.64087C0.755104 10.5155 2.70495 11.2245 5.11021 11.2245C6.84354 11.2245 8.34036 10.8563 9.04139 10.3233M9.46531 6.0776C9.46531 6.95224 7.51546 7.66128 5.11021 7.66128C2.70495 7.66128 0.755104 6.95224 0.755104 6.0776" stroke="#707070" stroke-width="1.18776" stroke-linecap="round" stroke-linejoin="round"/>
</svg>
