<svg width="20" height="20" viewBox="0 0 20 20" fill="none" xmlns="http://www.w3.org/2000/svg">
<path d="M15 3.5C15 4.9 13.9 6 12.5 6C11.1 6 10 4.9 10 3.5C10 2.1 11.1 1 12.5 1C13.9 1 15 2.1 15 3.5ZM13 7H12.2C10.1 7 8.1 5.8 7.1 3.9C7 3.8 6.9 3.7 6.9 3.6L5.1 4.4C5.6 5.8 7.2 7.6 9.5 8.5L7.7 13.5L3.8 12.4L1 17.9L3 18.4L4.8 14.8L9.3 16C10.3 16.2 11.3 15.7 11.7 14.8L14 8.4C14.2 7.7 13.7 7 13 7ZM16.9 6L13.5 15.4C12.9 17 11.4 18 9.8 18C9.5 18 9.1 18 8.8 17.9L5.9 17.1L5 18.9L7 19.4L8.4 19.8C8.9 19.9 9.4 20 9.9 20C12.4 20 14.6 18.5 15.5 16.1L19 6H16.9Z" fill="#7A7A7A"/>
</svg>
