<svg width="18" height="18" viewBox="0 0 18 18" fill="none" xmlns="http://www.w3.org/2000/svg">
<path d="M6.29661 8.74845L7.88028 10.3321L11.4435 6.76885M13.3449 3.20441C13.5079 3.59876 13.8209 3.91222 14.215 4.07587L15.5969 4.6483C15.9913 4.81166 16.3046 5.125 16.468 5.51938C16.6313 5.91377 16.6313 6.3569 16.468 6.75128L15.896 8.13224C15.7326 8.5268 15.7323 8.97038 15.8965 9.36475L16.4675 10.7453C16.5485 10.9406 16.5902 11.15 16.5902 11.3615C16.5902 11.5729 16.5486 11.7823 16.4677 11.9777C16.3868 12.173 16.2682 12.3505 16.1186 12.5C15.9691 12.6495 15.7915 12.7681 15.5962 12.849L14.2153 13.421C13.8209 13.584 13.5075 13.897 13.3438 14.2911L12.7714 15.6731C12.6081 16.0675 12.2947 16.3808 11.9004 16.5442C11.506 16.7075 11.0629 16.7075 10.6685 16.5442L9.2876 15.9721C8.89322 15.8092 8.45027 15.8095 8.05613 15.9731L6.67423 16.5447C6.28008 16.7077 5.83735 16.7075 5.4433 16.5443C5.04925 16.3811 4.7361 16.0681 4.57263 15.6741L4.00006 14.2918C3.837 13.8974 3.52403 13.584 3.12993 13.4203L1.74803 12.8479C1.35383 12.6846 1.0406 12.3715 0.877183 11.9773C0.713769 11.5831 0.713547 11.1402 0.876567 10.7459L1.44856 9.36493C1.61151 8.97053 1.61118 8.52756 1.44763 8.13341L0.876463 6.75047C0.795482 6.55514 0.753784 6.34576 0.75375 6.1343C0.753716 5.92285 0.795347 5.71345 0.876265 5.51809C0.957183 5.32273 1.0758 5.14523 1.22534 4.99574C1.37488 4.84624 1.55242 4.72767 1.74779 4.64681L3.1287 4.0748C3.5227 3.91188 3.83596 3.59929 3.99973 3.20563L4.57213 1.82368C4.73548 1.4293 5.04881 1.11596 5.44318 0.952598C5.83755 0.789238 6.28067 0.789238 6.67504 0.952598L8.05595 1.52461C8.45033 1.68757 8.89328 1.68724 9.28742 1.52368L10.6699 0.953485C11.0642 0.790217 11.5072 0.79025 11.9015 0.953578C12.2958 1.11691 12.6091 1.43015 12.7725 1.82444L13.3451 3.2068L13.3449 3.20441Z" stroke="#111111" stroke-width="1.18776" stroke-linecap="round" stroke-linejoin="round"/>
</svg>
