<svg width="14" height="16" viewBox="0 0 14 16" fill="none" xmlns="http://www.w3.org/2000/svg">
<path d="M13.25 6.59375V11.6563M13.25 6.59375V5.75M13.25 6.59375H0.75M0.75 6.59375V11.6562M0.75 6.59375V5.75M0.75 11.6562V5.75M0.75 11.6562C0.75 12.8376 0.75 13.4283 0.97707 13.8795C1.17681 14.2764 1.49552 14.5991 1.88752 14.8013C2.33317 15.0313 2.91656 15.0312 4.08333 15.0312H9.91667C11.0834 15.0312 11.6668 15.0313 12.1125 14.8013C12.5045 14.5991 12.8232 14.2764 13.0229 13.8795C13.25 13.4283 13.25 12.8376 13.25 11.6563M13.25 11.6563V5.75M13.25 5.75C13.25 4.56864 13.25 3.97796 13.0229 3.52674C12.8232 3.12983 12.5045 2.80714 12.1125 2.60491C11.6668 2.375 11.0834 2.375 9.91667 2.375H9.77778M0.75 5.75C0.75 4.56864 0.75 3.97796 0.97707 3.52674C1.17681 3.12983 1.49552 2.80714 1.88752 2.60491C2.33317 2.375 2.91656 2.375 4.08333 2.375H4.22222M9.77778 0.96875V2.375M9.77778 3.78125V2.375M4.22222 0.96875V2.375M4.22222 3.78125V2.375M9.77778 2.375H4.22222" stroke="#3070EE" stroke-width="1.10294" stroke-linecap="round" stroke-linejoin="round"/>
</svg>
