<svg width="50" height="50" viewBox="0 0 50 50" fill="none" xmlns="http://www.w3.org/2000/svg">
<path d="M23.0973 2.29146C23.7087 0.992441 24.0143 0.342932 24.4293 0.135414C24.7903 -0.0451379 25.2097 -0.0451379 25.5707 0.135414C25.9857 0.342932 26.2914 0.992441 26.9027 2.29146L32.7024 14.6156C32.8829 14.9991 32.9731 15.1908 33.105 15.3397C33.2217 15.4715 33.3618 15.5783 33.5173 15.6542C33.693 15.7399 33.8947 15.7708 34.2982 15.8327L47.2713 17.8216C48.6374 18.031 49.3204 18.1358 49.6366 18.4857C49.9116 18.7902 50.0409 19.2087 49.9886 19.6245C49.9284 20.1025 49.4339 20.6077 48.4449 21.6181L39.061 31.2049C38.7684 31.5038 38.6222 31.6532 38.5278 31.831C38.4442 31.9884 38.3906 32.1614 38.3699 32.3402C38.3466 32.5422 38.3811 32.7533 38.4501 33.1755L40.6643 46.7164C40.8978 48.1446 41.0146 48.8587 40.7952 49.2825C40.6042 49.6512 40.2649 49.9098 39.8715 49.9863C39.4195 50.0742 38.8081 49.7369 37.5854 49.0625L25.9876 42.6651C25.6263 42.4658 25.4456 42.3661 25.2552 42.3269C25.0867 42.2923 24.9133 42.2923 24.7448 42.3269C24.5544 42.3661 24.3738 42.4658 24.0124 42.6651L12.4146 49.0625C11.1919 49.7369 10.5805 50.0742 10.1285 49.9863C9.73515 49.9098 9.39577 49.6512 9.20484 49.2825C8.9854 48.8587 9.10216 48.1446 9.3357 46.7164L11.5499 33.1755C11.6189 32.7533 11.6534 32.5422 11.6301 32.3402C11.6094 32.1614 11.5558 31.9884 11.4722 31.831C11.3778 31.6532 11.2316 31.5038 10.939 31.2049L1.55515 21.6181C0.566117 20.6077 0.0716012 20.1025 0.0114248 19.6245C-0.0409319 19.2087 0.0884137 18.7902 0.363449 18.4857C0.679562 18.1358 1.36262 18.031 2.72875 17.8216L15.7018 15.8327C16.1053 15.7708 16.307 15.7399 16.4827 15.6542C16.6382 15.5783 16.7783 15.4715 16.895 15.3397C17.0269 15.1908 17.1171 14.9991 17.2976 14.6156L23.0973 2.29146Z" fill="#F2F3F4"/>
</svg>
