<svg width="41" height="37" viewBox="0 0 41 37" fill="none" xmlns="http://www.w3.org/2000/svg">
<path d="M34.0556 36V24.3333M28.2222 30.1667H39.8889M20.4444 24.3333H12.6667C9.04268 24.3333 7.23068 24.3333 5.80135 24.9254C3.89558 25.7148 2.38145 27.2289 1.59205 29.1347C1 30.564 1 32.376 1 36M27.25 1.56536C30.1004 2.71917 32.1111 5.51366 32.1111 8.77778C32.1111 12.0419 30.1004 14.8364 27.25 15.9902M23.3611 8.77778C23.3611 13.0733 19.8789 16.5556 15.5833 16.5556C11.2878 16.5556 7.80556 13.0733 7.80556 8.77778C7.80556 4.48223 11.2878 1 15.5833 1C19.8789 1 23.3611 4.48223 23.3611 8.77778Z" stroke="black" stroke-width="1.5" stroke-linecap="round" stroke-linejoin="round"/>
</svg>
