<svg width="20" height="20" viewBox="0 0 20 20" fill="none" xmlns="http://www.w3.org/2000/svg">
<path d="M8.4083 4.06078L8.40846 4.06159C8.56339 4.82579 8.49111 5.50752 8.29357 5.98521C8.09537 6.46448 7.81572 6.66 7.56604 6.6982L7.56509 6.69835C7.30622 6.73831 6.93007 6.62661 6.52526 6.2085C6.12952 5.79973 5.78403 5.1659 5.62531 4.39986L5.62514 4.39904C5.46677 3.63897 5.54061 2.9595 5.74085 2.48111C5.94049 2.00414 6.22373 1.80011 6.47827 1.75646C6.74574 1.72039 7.12162 1.83869 7.51969 2.25287C7.91281 2.66191 8.2539 3.29491 8.4083 4.06078ZM12.2945 6.6982L12.2936 6.69806C12.0372 6.65916 11.7565 6.4616 11.5595 5.98521C11.3627 5.50918 11.2922 4.829 11.4513 4.06556L11.4523 4.06078C11.6067 3.29491 11.9479 2.66154 12.3403 2.25221C12.7388 1.83653 13.1121 1.72073 13.3724 1.75645C13.6323 1.80021 13.9157 2.00474 14.1165 2.48226C14.3177 2.96073 14.3939 3.6403 14.2449 4.40147C14.0808 5.16793 13.7351 5.80067 13.3403 6.2085C12.9365 6.62551 12.56 6.73884 12.2945 6.6982ZM15.4558 18.0673L15.4532 18.0685C14.8507 18.3454 14.1363 18.2275 13.1335 17.9038C12.9728 17.852 12.7979 17.7926 12.6163 17.7309C12.2862 17.6188 11.9337 17.499 11.6031 17.403C11.0695 17.2482 10.4881 17.1207 9.89045 17.1207C9.28884 17.1207 8.70349 17.2542 8.16858 17.4148C7.84428 17.5122 7.49488 17.6344 7.16819 17.7487C6.98017 17.8144 6.79968 17.8776 6.63583 17.9318C5.63049 18.2647 4.93761 18.3722 4.36377 18.0811L4.3638 18.0811L4.35533 18.0769C4.0251 17.9146 3.70809 17.5947 3.48614 17.182C3.26404 16.769 3.17267 16.3292 3.21543 15.9721C3.27001 15.5188 3.57285 15.1061 4.14326 14.6098C4.35951 14.4217 4.5876 14.2431 4.83273 14.0513C4.90736 13.9929 4.98358 13.9332 5.06152 13.8717C5.38151 13.6191 5.72312 13.3402 6.02333 13.031C6.41835 12.634 6.7723 12.1636 7.09535 11.716C7.17652 11.6035 7.25546 11.4929 7.33302 11.3843C7.57638 11.0433 7.80625 10.7212 8.04956 10.419C8.70342 9.60694 9.25729 9.19872 9.89045 9.19872C10.5252 9.19872 11.0925 9.60578 11.7485 10.4084C12.0237 10.745 12.2848 11.113 12.5608 11.5019C12.6062 11.5658 12.6519 11.6303 12.6982 11.6953C13.0155 12.1409 13.3579 12.611 13.7298 13.0123C14.0355 13.3489 14.3844 13.6647 14.7117 13.9562C14.7516 13.9918 14.7912 14.027 14.8304 14.0619C15.1236 14.3226 15.3973 14.5659 15.6469 14.8178C16.2213 15.3976 16.5283 15.8897 16.5508 16.4138C16.5625 16.6885 16.461 17.0296 16.2436 17.3586C16.0271 17.6863 15.7362 17.9398 15.4558 18.0673ZM1.33558 6.299C1.6229 6.17599 2.03991 6.19525 2.53425 6.47416C3.02115 6.74886 3.50853 7.24147 3.85149 7.89494C4.17044 8.56538 4.25594 9.2148 4.17452 9.70949C4.0932 10.2035 3.86507 10.4814 3.59579 10.5986C3.31368 10.7213 2.90267 10.7045 2.41638 10.4274C1.93552 10.1533 1.45351 9.6577 1.11949 8.99172C0.786549 8.32792 0.697549 7.6772 0.777498 7.18028C0.857436 6.68343 1.08532 6.40942 1.33558 6.299ZM18.6644 6.299C18.9147 6.40943 19.1426 6.68343 19.2225 7.18028C19.3025 7.6772 19.2135 8.32792 18.8805 8.99172C18.5465 9.6577 18.0645 10.1533 17.5836 10.4274C17.0973 10.7045 16.6863 10.7213 16.4042 10.5986C16.1349 10.4814 15.9068 10.2035 15.8255 9.70949C15.7441 9.2148 15.8296 8.56537 16.1485 7.89493C16.4915 7.24146 16.9789 6.74886 17.4657 6.47416C17.9601 6.19525 18.3771 6.17599 18.6644 6.299Z" stroke="#7A7A7A" stroke-width="1.5"/>
</svg>
