<svg width="19" height="21" viewBox="0 0 19 21" fill="none" xmlns="http://www.w3.org/2000/svg">
<path d="M1 8.65H18V7.5025C18 5.89585 18 5.09252 17.6912 4.47886C17.4195 3.93907 16.9861 3.50021 16.453 3.22517C15.8469 2.9125 15.0535 2.9125 13.4667 2.9125H13.2778H5.72222H5.53333C3.94652 2.9125 3.15311 2.9125 2.54703 3.22517C2.0139 3.50021 1.58046 3.93907 1.30881 4.47886C1 5.09252 1 5.89585 1 7.5025V8.65Z" fill="#3070EE"/>
<path d="M18 8.65H1M18 8.65V15.535M18 8.65V7.5025M1 8.65V15.535M1 8.65V7.5025M1 15.535V7.5025M1 15.535C1 17.1417 1 17.945 1.30881 18.5586C1.58046 19.0984 2.0139 19.5373 2.54703 19.8123C3.15311 20.125 3.94652 20.125 5.53333 20.125H13.4667C15.0535 20.125 15.8469 20.125 16.453 19.8123C16.9861 19.5373 17.4195 19.0984 17.6912 18.5586C18 17.945 18 17.1417 18 15.535M18 15.535V7.5025M18 7.5025C18 5.89585 18 5.09252 17.6912 4.47886C17.4195 3.93907 16.9861 3.50021 16.453 3.22517C15.8469 2.9125 15.0535 2.9125 13.4667 2.9125H13.2778M1 7.5025C1 5.89585 1 5.09252 1.30881 4.47886C1.58046 3.93907 2.0139 3.50021 2.54703 3.22517C3.15311 2.9125 3.94652 2.9125 5.53333 2.9125H5.72222M13.2778 1V2.9125M13.2778 4.825V2.9125M5.72222 1V2.9125M5.72222 4.825V2.9125M13.2778 2.9125H5.72222" stroke="#3070EE" stroke-width="1.5" stroke-linecap="round" stroke-linejoin="round"/>
</svg>
