<svg width="26" height="12" viewBox="0 0 26 12" fill="none" xmlns="http://www.w3.org/2000/svg">
<path d="M18.5455 1L8.54545 11L4 6.45455" stroke="#3070EE" stroke-width="1.81818" stroke-linecap="round" stroke-linejoin="round"/>
<path d="M25.5519 1.64282C25.9069 1.2878 25.9069 0.712198 25.5519 0.357176C25.1969 0.00215352 24.6213 0.00215352 24.2663 0.357176L25.5519 1.64282ZM14.9091 11L14.2663 11.6428C14.6213 11.9978 15.1969 11.9978 15.5519 11.6428L14.9091 11ZM14.6428 9.44808L14 8.80526L12.7144 10.0909L13.3572 10.7337L14.6428 9.44808ZM24.2663 0.357176L14.2663 10.3572L15.5519 11.6428L25.5519 1.64282L24.2663 0.357176ZM15.5519 10.3572L14.6428 9.44808L13.3572 10.7337L14.2663 11.6428L15.5519 10.3572Z" fill="#3070EE"/>
</svg>
