<svg width="50" height="50" viewBox="0 0 50 50" fill="none" xmlns="http://www.w3.org/2000/svg">
<rect width="50" height="50" rx="25" fill="#3070EE"/>
<path d="M21.8692 27.9755L33.3344 17.6022M22.0085 28.2996L24.8782 34.976C25.131 35.5642 25.2574 35.8582 25.4396 35.9441C25.5975 36.0185 25.7855 36.0186 25.9435 35.9444C26.1258 35.8587 26.2526 35.5648 26.5061 34.9769L33.7023 18.2929C33.9312 17.7623 34.0456 17.4969 33.983 17.3273C33.9287 17.1801 33.8009 17.0645 33.6382 17.0154C33.4508 16.9587 33.1575 17.0623 32.571 17.2694L14.1308 23.7802C13.481 24.0096 13.1562 24.1243 13.0615 24.2892C12.9794 24.4321 12.9795 24.6023 13.0618 24.7451C13.1567 24.9099 13.4817 25.0243 14.1318 25.253L21.511 27.8494C21.643 27.8959 21.7089 27.9191 21.7645 27.9549C21.8137 27.9867 21.8568 28.0257 21.8919 28.0702C21.9316 28.1205 21.9572 28.1802 22.0085 28.2996Z" stroke="white" stroke-width="1.5" stroke-linecap="round" stroke-linejoin="round"/>
</svg>
