<svg width="18" height="16" viewBox="0 0 18 16" fill="none" xmlns="http://www.w3.org/2000/svg">
<path d="M3.13061 0.685547L0.755104 3.06106M16.5918 3.06106L14.2163 0.685547M3.92245 13.3549L2.33878 14.9386M13.4245 13.3549L15.0082 14.9386M8.67347 5.43657V8.60391L10.2571 10.1876M8.67347 14.9386C10.3535 14.9386 11.9648 14.2712 13.1528 13.0832C14.3408 11.8952 15.0082 10.284 15.0082 8.60391C15.0082 6.92385 14.3408 5.31259 13.1528 4.12461C11.9648 2.93662 10.3535 2.26922 8.67347 2.26922C6.99341 2.26922 5.38215 2.93662 4.19417 4.12461C3.00618 5.31259 2.33878 6.92385 2.33878 8.60391C2.33878 10.284 3.00618 11.8952 4.19417 13.0832C5.38215 14.2712 6.99341 14.9386 8.67347 14.9386Z" stroke="#707070" stroke-width="1.18776" stroke-linecap="round" stroke-linejoin="round"/>
</svg>
