<svg width="20" height="20" viewBox="0 0 20 20" fill="none" xmlns="http://www.w3.org/2000/svg">
<path d="M19.25 14.4C19.4667 14.4 19.646 14.471 19.788 14.613C19.93 14.755 20.0007 14.934 20 15.15V16.65C20 16.8667 19.929 17.046 19.787 17.188C19.645 17.33 19.466 17.4007 19.25 17.4C19.034 17.3993 18.855 17.3283 18.713 17.187C18.571 17.0457 18.5 16.8667 18.5 16.65V15.15C18.5 14.9333 18.571 14.7543 18.713 14.613C18.855 14.4717 19.034 14.4007 19.25 14.4ZM16.75 13.4C16.5333 13.4 16.3543 13.329 16.213 13.187C16.0717 13.045 16.0007 12.866 16 12.65V12.1C16 11.45 15.8083 10.9543 15.425 10.613C15.0417 10.2717 14.5833 10.1007 14.05 10.1H12.5C11.5667 10.1 10.775 9.775 10.125 9.125C9.47501 8.475 9.15 7.68334 9.15 6.75C9.15 5.81667 9.47501 5.025 10.125 4.375C10.775 3.725 11.5667 3.4 12.5 3.4C12.7167 3.4 12.896 3.471 13.038 3.613C13.18 3.755 13.2507 3.934 13.25 4.15C13.2493 4.366 13.1783 4.54534 13.037 4.688C12.8957 4.83067 12.7167 4.90134 12.5 4.9C12 4.9 11.5667 5.075 11.2 5.425C10.8333 5.775 10.65 6.21667 10.65 6.75C10.65 7.28334 10.8333 7.72501 11.2 8.07501C11.5667 8.425 12 8.6 12.5 8.6H14.05C14.9833 8.6 15.7917 8.90001 16.475 9.50001C17.1583 10.1 17.5 10.85 17.5 11.75V12.65C17.5 12.8667 17.429 13.046 17.287 13.188C17.145 13.33 16.966 13.4007 16.75 13.4ZM19.25 13.4C19.0333 13.4 18.8543 13.329 18.713 13.187C18.5717 13.045 18.5007 12.866 18.5 12.65V11.15C18.5 10.05 18.1167 9.10001 17.35 8.3C16.5833 7.5 15.6333 7.1 14.5 7.1C14.2833 7.1 14.1043 7.029 13.963 6.887C13.8217 6.745 13.7507 6.566 13.75 6.35C13.7493 6.134 13.8203 5.955 13.963 5.813C14.1057 5.671 14.2847 5.6 14.5 5.6C15 5.6 15.4333 5.41667 15.8 5.05C16.1667 4.68334 16.35 4.25 16.35 3.75C16.35 3.53334 16.421 3.35434 16.563 3.213C16.705 3.07167 16.884 3.00067 17.1 3C17.316 2.99934 17.4953 3.07034 17.638 3.213C17.7807 3.35567 17.8513 3.53467 17.85 3.75C17.85 4.23334 17.7583 4.671 17.575 5.063C17.3917 5.455 17.15 5.81734 16.85 6.15C17.7833 6.58334 18.5417 7.25 19.125 8.15C19.7083 9.05 20 10.05 20 11.15V12.65C20 12.8667 19.929 13.046 19.787 13.188C19.645 13.33 19.466 13.4007 19.25 13.4Z" fill="#7A7A7A"/>
<path d="M1.5 17.4C1.08334 17.4 0.729335 17.2543 0.438002 16.963C0.146669 16.6717 0.000668939 16.3173 2.27273e-06 15.9C-0.000664394 15.4827 0.145335 15.1287 0.438002 14.838C0.730669 14.5473 1.08467 14.4013 1.5 14.4H13.5C13.9153 14.4013 14.2693 14.5472 14.562 14.8379C14.8547 15.1286 15.0007 15.4826 15 15.8999C14.9993 16.3172 14.8533 16.6716 14.562 16.9629C14.2707 17.2542 13.9167 17.3999 13.5 17.3999L1.5 17.4Z" fill="#7A7A7A"/>
<path d="M17.288 14.6129C17.146 14.4709 16.9667 14.3999 16.75 14.3999C16.534 14.4006 16.355 14.4716 16.213 14.6129C16.071 14.7542 16 14.9332 16 15.1499V16.6499C16 16.8666 16.071 17.0456 16.213 17.1869C16.355 17.3282 16.534 17.3992 16.75 17.3999C16.966 17.4006 17.145 17.3299 17.287 17.1879C17.429 17.0459 17.5 16.8666 17.5 16.6499V15.1499C17.5007 14.9339 17.43 14.7549 17.288 14.6129Z" fill="#7A7A7A"/>
</svg>
